  0
SECTION
  2
HEADER
  9
$ACADVER
  1
AC1009
  9
$INSBASE
 10
0.000000
 20
0.000000
  9
$LIMMIN
 10
-228.600000
 20
-660.400000
  9
$LIMMAX
 10
2540.000000
 20
2540.000000
  9
$EXTMIN
 10
-228.600000
 20
-660.400000
  9
$EXTMAX
 10
2540.000000
 20
2540.000000
  9
$ATTMODE
 70
0
  9
$LUNITS
 70
2
  9
$LUPREC
 70
2
  9
$THICKNESS
 40
1.412240
  0
ENDSEC
  0
SECTION
  2
TABLES
  0
TABLE
  2
LTYPE
 70
1
  0
LTYPE
  3
Solid Line
  2
CONTINUOUS
 70
0
 72
65
 73
0
 40
0.000000
  0
ENDTAB
  0
TABLE
  2
LAYER
 70
18
  0
LAYER
  2
BG_ASSEMBLY_TOP
 70
0
 62
7
  6
CONTINUOUS
  0
LAYER
  2
BG_SILKSCREEN_BOTTOM
 70
0
 62
23
  6
CONTINUOUS
  0
LAYER
  2
BG_SILKSCREEN_TOP
 70
0
 62
7
  6
CONTINUOUS
  0
LAYER
  2
BG_OUTLINE
 70
0
 62
40
  6
CONTINUOUS
  0
LAYER
  2
DF_OUTLINE
 70
0
 62
7
  6
CONTINUOUS
  0
LAYER
  2
ET_TOP
 70
0
 62
12
  6
CONTINUOUS
  0
LAYER
  2
ET_BOTTOM
 70
0
 62
132
  6
CONTINUOUS
  0
LAYER
  2
PG_SILKSCREEN_BOTTOM
 70
0
 62
23
  6
CONTINUOUS
  0
LAYER
  2
PG_SILKSCREEN_TOP
 70
0
 62
7
  6
CONTINUOUS
  0
LAYER
  2
PIN_TOP
 70
0
 62
12
  6
CONTINUOUS
  0
LAYER
  2
PIN_BOTTOM
 70
0
 62
132
  6
CONTINUOUS
  0
LAYER
  2
RD_SILKSCREEN_BOTTOM
 70
0
 62
23
  6
CONTINUOUS
  0
LAYER
  2
RD_SILKSCREEN_TOP
 70
0
 62
7
  6
CONTINUOUS
  0
LAYER
  2
VC_TOP
 70
0
 62
5
  6
CONTINUOUS
  0
LAYER
  2
VC_BOTTOM
 70
0
 62
5
  6
CONTINUOUS
  0
LAYER
  2
PLAN_TOP
 70
0
 62
80
  6
CONTINUOUS
  0
LAYER
  2
PLAN_BOTTOM
 70
0
 62
212
  6
CONTINUOUS
  0
LAYER
  2
PLAN_ALL
 70
0
 62
7
  6
CONTINUOUS
  0
ENDTAB
  0
TABLE
  2
STYLE
 70
1
  0
STYLE
  2
STANDARD
 70
0
 40
0.000000
 41
1.000000
 50
0.000000
 71
0
 42
0.200000
  3
txt
  0
ENDTAB
  0
ENDSEC
  0
SECTION
  2
BLOCKS
  0
BLOCK
  8
0
  2
FIGURE_CIRCLE
 70
0
 10
0.000000
 20
0.000000
  0
CIRCLE
  8
0
 10
0.000000
 20
0.000000
 40
0.500000
  0
ENDBLK
  0
BLOCK
  8
0
  2
FIGURE_SQUARE
 70
0
 10
0.000000
 20
0.000000
  0
POLYLINE
  8
0
 66
1
 70
1
 40
0.000000
 41
0.000000
 39
0.000000
  0
VERTEX
  8
0
 10
-0.500000
 20
-0.500000
 40
0.000000
 41
0.000000
 42
0.000000
  0
VERTEX
  8
0
 10
-0.500000
 20
0.500000
 40
0.000000
 41
0.000000
 42
0.000000
  0
VERTEX
  8
0
 10
0.500000
 20
0.500000
 40
0.000000
 41
0.000000
 42
0.000000
  0
VERTEX
  8
0
 10
0.500000
 20
-0.500000
 40
0.000000
 41
0.000000
 42
0.000000
  0
SEQEND
  0
ENDBLK
  0
BLOCK
  8
0
  2
FIGURE_HEX
 70
0
 10
0.000000
 20
0.000000
  0
POLYLINE
  8
0
 66
1
 70
1
 40
0.000000
 41
0.000000
 39
0.000000
  0
VERTEX
  8
0
 10
-0.500000
 20
0.000000
 40
0.000000
 41
0.000000
 42
0.000000
  0
VERTEX
  8
0
 10
-0.250000
 20
0.500000
 40
0.000000
 41
0.000000
 42
0.000000
  0
VERTEX
  8
0
 10
0.250000
 20
0.500000
 40
0.000000
 41
0.000000
 42
0.000000
  0
VERTEX
  8
0
 10
0.500000
 20
0.000000
 40
0.000000
 41
0.000000
 42
0.000000
  0
VERTEX
  8
0
 10
0.250000
 20
-0.500000
 40
0.000000
 41
0.000000
 42
0.000000
  0
VERTEX
  8
0
 10
-0.250000
 20
-0.500000
 40
0.000000
 41
0.000000
 42
0.000000
  0
SEQEND
  0
ENDBLK
  0
BLOCK
  8
0
  2
FIGURE_OCT
 70
0
 10
0.000000
 20
0.000000
  0
POLYLINE
  8
0
 66
1
 70
1
 40
0.000000
 41
0.000000
 39
0.000000
  0
VERTEX
  8
0
 10
-0.500000
 20
-0.207100
 40
0.000000
 41
0.000000
 42
0.000000
  0
VERTEX
  8
0
 10
-0.500000
 20
0.207100
 40
0.000000
 41
0.000000
 42
0.000000
  0
VERTEX
  8
0
 10
-0.207100
 20
0.500000
 40
0.000000
 41
0.000000
 42
0.000000
  0
VERTEX
  8
0
 10
0.207100
 20
0.500000
 40
0.000000
 41
0.000000
 42
0.000000
  0
VERTEX
  8
0
 10
0.500000
 20
0.207100
 40
0.000000
 41
0.000000
 42
0.000000
  0
VERTEX
  8
0
 10
0.500000
 20
-0.207100
 40
0.000000
 41
0.000000
 42
0.000000
  0
VERTEX
  8
0
 10
0.207100
 20
-0.500000
 40
0.000000
 41
0.000000
 42
0.000000
  0
VERTEX
  8
0
 10
-0.207100
 20
-0.500000
 40
0.000000
 41
0.000000
 42
0.000000
  0
SEQEND
  0
ENDBLK
  0
BLOCK
  8
0
  2
FIGURE_OBLONG
 70
0
 10
0.000000
 20
0.000000
  0
POLYLINE
  8
0
 66
1
 70
1
 40
0.000000
 41
0.000000
 39
0.000000
  0
VERTEX
  8
0
 10
-0.500000
 20
-0.125000
 40
0.000000
 41
0.000000
 42
0.000000
  0
VERTEX
  8
0
 10
-0.500000
 20
0.125000
 40
0.000000
 41
0.000000
 42
0.000000
  0
VERTEX
  8
0
 10
-0.416000
 20
0.375000
 40
0.000000
 41
0.000000
 42
0.000000
  0
VERTEX
  8
0
 10
-0.250000
 20
0.500000
 40
0.000000
 41
0.000000
 42
0.000000
  0
VERTEX
  8
0
 10
0.250000
 20
0.500000
 40
0.000000
 41
0.000000
 42
0.000000
  0
VERTEX
  8
0
 10
0.416000
 20
0.375000
 40
0.000000
 41
0.000000
 42
0.000000
  0
VERTEX
  8
0
 10
0.500000
 20
0.125000
 40
0.000000
 41
0.000000
 42
0.000000
  0
VERTEX
  8
0
 10
0.500000
 20
-0.125000
 40
0.000000
 41
0.000000
 42
0.000000
  0
VERTEX
  8
0
 10
0.416000
 20
-0.375000
 40
0.000000
 41
0.000000
 42
0.000000
  0
VERTEX
  8
0
 10
0.250000
 20
-0.500000
 40
0.000000
 41
0.000000
 42
0.000000
  0
VERTEX
  8
0
 10
-0.250000
 20
-0.500000
 40
0.000000
 41
0.000000
 42
0.000000
  0
VERTEX
  8
0
 10
-0.416000
 20
-0.375000
 40
0.000000
 41
0.000000
 42
0.000000
  0
SEQEND
  0
ENDBLK
  0
BLOCK
  8
0
  2
FIGURE_TRI
 70
0
 10
0.000000
 20
0.000000
  0
POLYLINE
  8
0
 66
1
 70
1
 40
0.000000
 41
0.000000
 39
0.000000
  0
VERTEX
  8
0
 10
-0.500000
 20
-0.500000
 40
0.000000
 41
0.000000
 42
0.000000
  0
VERTEX
  8
0
 10
0.000000
 20
0.500000
 40
0.000000
 41
0.000000
 42
0.000000
  0
VERTEX
  8
0
 10
0.500000
 20
-0.500000
 40
0.000000
 41
0.000000
 42
0.000000
  0
SEQEND
  0
ENDBLK
  0
BLOCK
  8
0
  2
FIGURE_CROSS
 70
0
 10
0.000000
 20
0.000000
  0
POLYLINE
  8
0
 66
1
 70
0
 40
0.000000
 41
0.000000
 39
0.000000
  0
VERTEX
  8
0
 10
-0.500000
 20
0.000000
 40
0.000000
 41
0.000000
 42
0.000000
  0
VERTEX
  8
0
 10
0.500000
 20
0.000000
 40
0.000000
 41
0.000000
 42
0.000000
  0
SEQEND
  0
POLYLINE
  8
0
 66
1
 70
0
 40
0.000000
 41
0.000000
 39
0.000000
  0
VERTEX
  8
0
 10
0.000000
 20
0.500000
 40
0.000000
 41
0.000000
 42
0.000000
  0
VERTEX
  8
0
 10
0.000000
 20
-0.500000
 40
0.000000
 41
0.000000
 42
0.000000
  0
SEQEND
  0
ENDBLK
  0
BLOCK
  8
0
  2
FIGURE_DIAMOND
 70
0
 10
0.000000
 20
0.000000
  0
POLYLINE
  8
0
 66
1
 70
1
 40
0.000000
 41
0.000000
 39
0.000000
  0
VERTEX
  8
0
 10
-0.500000
 20
0.000000
 40
0.000000
 41
0.000000
 42
0.000000
  0
VERTEX
  8
0
 10
0.000000
 20
0.500000
 40
0.000000
 41
0.000000
 42
0.000000
  0
VERTEX
  8
0
 10
0.500000
 20
0.000000
 40
0.000000
 41
0.000000
 42
0.000000
  0
VERTEX
  8
0
 10
0.000000
 20
-0.500000
 40
0.000000
 41
0.000000
 42
0.000000
  0
SEQEND
  0
ENDBLK
  0
ENDSEC
  0
SECTION
  2
ENTITIES
  0
CIRCLE
  8
VC_TOP
 10
59.309000
 20
49.657000
 40
0.250063
  0
CIRCLE
  8
VC_BOTTOM
 10
59.309000
 20
49.657000
 40
0.250063
  0
CIRCLE
  8
VC_TOP
 10
58.674000
 20
49.657000
 40
0.250063
  0
CIRCLE
  8
VC_BOTTOM
 10
58.674000
 20
49.657000
 40
0.250063
  0
CIRCLE
  8
VC_TOP
 10
58.039000
 20
49.657000
 40
0.250063
  0
CIRCLE
  8
VC_BOTTOM
 10
58.039000
 20
49.657000
 40
0.250063
  0
CIRCLE
  8
VC_TOP
 10
57.404000
 20
49.657000
 40
0.250063
  0
CIRCLE
  8
VC_BOTTOM
 10
57.404000
 20
49.657000
 40
0.250063
  0
POLYLINE
  8
ET_BOTTOM
 66
1
 70
1
 40
0.000000
 41
0.000000
 39
0.000000
  0
VERTEX
  8
ET_BOTTOM
 10
59.563000
 20
50.165000
 40
0.000000
 41
0.000000
 42
0.000000
  0
VERTEX
  8
ET_BOTTOM
 10
59.563000
 20
47.879000
 40
0.000000
 41
0.000000
 42
0.000000
  0
VERTEX
  8
ET_BOTTOM
 10
59.436000
 20
47.752000
 40
0.000000
 41
0.000000
 42
0.000000
  0
VERTEX
  8
ET_BOTTOM
 10
57.404000
 20
47.752000
 40
0.000000
 41
0.000000
 42
0.000000
  0
VERTEX
  8
ET_BOTTOM
 10
57.150000
 20
48.006000
 40
0.000000
 41
0.000000
 42
0.000000
  0
VERTEX
  8
ET_BOTTOM
 10
57.150000
 20
50.165000
 40
0.000000
 41
0.000000
 42
0.000000
  0
VERTEX
  8
ET_BOTTOM
 10
57.277000
 20
50.292000
 40
0.000000
 41
0.000000
 42
0.000000
  0
VERTEX
  8
ET_BOTTOM
 10
59.436000
 20
50.292000
 40
0.000000
 41
0.000000
 42
0.000000
  0
SEQEND
  0
POLYLINE
  8
ET_BOTTOM
 66
1
 70
1
 40
0.000000
 41
0.000000
 39
0.000000
  0
VERTEX
  8
ET_BOTTOM
 10
61.468000
 20
49.022000
 40
0.000000
 41
0.000000
 42
0.000000
  0
VERTEX
  8
ET_BOTTOM
 10
61.341000
 20
48.895000
 40
0.000000
 41
0.000000
 42
0.000000
  0
VERTEX
  8
ET_BOTTOM
 10
60.833000
 20
48.895000
 40
0.000000
 41
0.000000
 42
0.000000
  0
VERTEX
  8
ET_BOTTOM
 10
60.706000
 20
48.768000
 40
0.000000
 41
0.000000
 42
0.000000
  0
VERTEX
  8
ET_BOTTOM
 10
60.071000
 20
48.768000
 40
0.000000
 41
0.000000
 42
0.000000
  0
VERTEX
  8
ET_BOTTOM
 10
59.944000
 20
48.895000
 40
0.000000
 41
0.000000
 42
0.000000
  0
VERTEX
  8
ET_BOTTOM
 10
59.944000
 20
50.673000
 40
0.000000
 41
0.000000
 42
0.000000
  0
VERTEX
  8
ET_BOTTOM
 10
59.563000
 20
51.054000
 40
0.000000
 41
0.000000
 42
0.000000
  0
VERTEX
  8
ET_BOTTOM
 10
59.563000
 20
52.197000
 40
0.000000
 41
0.000000
 42
0.000000
  0
VERTEX
  8
ET_BOTTOM
 10
59.817000
 20
52.451000
 40
0.000000
 41
0.000000
 42
0.000000
  0
VERTEX
  8
ET_BOTTOM
 10
61.214000
 20
52.451000
 40
0.000000
 41
0.000000
 42
0.000000
  0
VERTEX
  8
ET_BOTTOM
 10
61.468000
 20
52.197000
 40
0.000000
 41
0.000000
 42
0.000000
  0
SEQEND
  0
CIRCLE
  8
VC_TOP
 10
61.087000
 20
48.387000
 40
0.250063
  0
CIRCLE
  8
VC_BOTTOM
 10
61.087000
 20
48.387000
 40
0.250063
  0
CIRCLE
  8
VC_TOP
 10
61.595000
 20
44.958000
 40
0.250063
  0
CIRCLE
  8
VC_BOTTOM
 10
61.595000
 20
44.958000
 40
0.250063
  0
CIRCLE
  8
VC_TOP
 10
60.833000
 20
44.958000
 40
0.250063
  0
CIRCLE
  8
VC_BOTTOM
 10
60.833000
 20
44.958000
 40
0.250063
  0
CIRCLE
  8
VC_TOP
 10
62.357000
 20
44.958000
 40
0.250063
  0
CIRCLE
  8
VC_BOTTOM
 10
62.357000
 20
44.958000
 40
0.250063
  0
CIRCLE
  8
VC_TOP
 10
62.992000
 20
44.958000
 40
0.250063
  0
CIRCLE
  8
VC_BOTTOM
 10
62.992000
 20
44.958000
 40
0.250063
  0
POLYLINE
  8
ET_BOTTOM
 66
1
 70
1
 40
0.000000
 41
0.000000
 39
0.000000
  0
VERTEX
  8
ET_BOTTOM
 10
60.198000
 20
44.323000
 40
0.000000
 41
0.000000
 42
0.000000
  0
VERTEX
  8
ET_BOTTOM
 10
60.071000
 20
44.450000
 40
0.000000
 41
0.000000
 42
0.000000
  0
VERTEX
  8
ET_BOTTOM
 10
60.071000
 20
48.387000
 40
0.000000
 41
0.000000
 42
0.000000
  0
VERTEX
  8
ET_BOTTOM
 10
60.197492
 20
48.513492
 40
0.000000
 41
0.000000
 42
0.000000
  0
VERTEX
  8
ET_BOTTOM
 10
60.811410
 20
48.513492
 40
0.000000
 41
0.000000
 42
0.000000
  0
VERTEX
  8
ET_BOTTOM
 10
60.811664
 20
48.514000
 40
0.000000
 41
0.000000
 42
0.000000
  0
VERTEX
  8
ET_BOTTOM
 10
60.833000
 20
48.514000
 40
0.000000
 41
0.000000
 42
0.000000
  0
VERTEX
  8
ET_BOTTOM
 10
60.959492
 20
48.640492
 40
0.000000
 41
0.000000
 42
0.000000
  0
VERTEX
  8
ET_BOTTOM
 10
61.214508
 20
48.640492
 40
0.000000
 41
0.000000
 42
0.000000
  0
VERTEX
  8
ET_BOTTOM
 10
61.341000
 20
48.514000
 40
0.000000
 41
0.000000
 42
0.000000
  0
VERTEX
  8
ET_BOTTOM
 10
61.341000
 20
46.101000
 40
0.000000
 41
0.000000
 42
0.000000
  0
VERTEX
  8
ET_BOTTOM
 10
61.722000
 20
45.720000
 40
0.000000
 41
0.000000
 42
0.000000
  0
VERTEX
  8
ET_BOTTOM
 10
63.246000
 20
45.720000
 40
0.000000
 41
0.000000
 42
0.000000
  0
VERTEX
  8
ET_BOTTOM
 10
63.373000
 20
45.593000
 40
0.000000
 41
0.000000
 42
0.000000
  0
VERTEX
  8
ET_BOTTOM
 10
63.373000
 20
44.450000
 40
0.000000
 41
0.000000
 42
0.000000
  0
VERTEX
  8
ET_BOTTOM
 10
63.246000
 20
44.323000
 40
0.000000
 41
0.000000
 42
0.000000
  0
SEQEND
  0
CIRCLE
  8
VC_TOP
 10
13.581126
 20
21.201126
 40
0.250063
  0
CIRCLE
  8
VC_BOTTOM
 10
13.581126
 20
21.201126
 40
0.250063
  0
CIRCLE
  8
VC_TOP
 10
15.069312
 20
20.815808
 40
0.203200
  0
CIRCLE
  8
VC_BOTTOM
 10
15.069312
 20
20.815808
 40
0.203200
  0
CIRCLE
  8
VC_TOP
 10
12.827000
 20
49.911000
 40
0.250063
  0
CIRCLE
  8
VC_BOTTOM
 10
12.827000
 20
49.911000
 40
0.250063
  0
CIRCLE
  8
VC_TOP
 10
71.628000
 20
6.985000
 40
0.250063
  0
CIRCLE
  8
VC_BOTTOM
 10
71.628000
 20
6.985000
 40
0.250063
  0
CIRCLE
  8
VC_TOP
 10
66.675000
 20
6.985000
 40
0.250063
  0
CIRCLE
  8
VC_BOTTOM
 10
66.675000
 20
6.985000
 40
0.250063
  0
CIRCLE
  8
VC_TOP
 10
48.844200
 20
52.908200
 40
0.250063
  0
CIRCLE
  8
VC_BOTTOM
 10
48.844200
 20
52.908200
 40
0.250063
  0
CIRCLE
  8
VC_TOP
 10
4.343400
 20
29.616400
 40
0.250063
  0
CIRCLE
  8
VC_BOTTOM
 10
4.343400
 20
29.616400
 40
0.250063
  0
CIRCLE
  8
VC_TOP
 10
68.808600
 20
32.359600
 40
0.250063
  0
CIRCLE
  8
VC_BOTTOM
 10
68.808600
 20
32.359600
 40
0.250063
  0
CIRCLE
  8
VC_TOP
 10
70.332600
 20
31.851600
 40
0.250063
  0
CIRCLE
  8
VC_BOTTOM
 10
70.332600
 20
31.851600
 40
0.250063
  0
CIRCLE
  8
VC_TOP
 10
10.871200
 20
8.636000
 40
0.250063
  0
CIRCLE
  8
VC_BOTTOM
 10
10.871200
 20
8.636000
 40
0.250063
  0
CIRCLE
  8
VC_TOP
 10
10.515600
 20
12.369800
 40
0.250063
  0
CIRCLE
  8
VC_BOTTOM
 10
10.515600
 20
12.369800
 40
0.250063
  0
CIRCLE
  8
VC_TOP
 10
10.566400
 20
16.560800
 40
0.250063
  0
CIRCLE
  8
VC_BOTTOM
 10
10.566400
 20
16.560800
 40
0.250063
  0
CIRCLE
  8
VC_TOP
 10
13.106400
 20
16.764000
 40
0.250063
  0
CIRCLE
  8
VC_BOTTOM
 10
13.106400
 20
16.764000
 40
0.250063
  0
CIRCLE
  8
VC_TOP
 10
10.795000
 20
20.243800
 40
0.250063
  0
CIRCLE
  8
VC_BOTTOM
 10
10.795000
 20
20.243800
 40
0.250063
  0
CIRCLE
  8
VC_TOP
 10
74.244200
 20
42.418000
 40
0.250063
  0
CIRCLE
  8
VC_BOTTOM
 10
74.244200
 20
42.418000
 40
0.250063
  0
CIRCLE
  8
VC_TOP
 10
73.609200
 20
31.191200
 40
0.250063
  0
CIRCLE
  8
VC_BOTTOM
 10
73.609200
 20
31.191200
 40
0.250063
  0
CIRCLE
  8
VC_TOP
 10
70.739000
 20
28.956000
 40
0.250063
  0
CIRCLE
  8
VC_BOTTOM
 10
70.739000
 20
28.956000
 40
0.250063
  0
CIRCLE
  8
VC_TOP
 10
74.498200
 20
27.838400
 40
0.250063
  0
CIRCLE
  8
VC_BOTTOM
 10
74.498200
 20
27.838400
 40
0.250063
  0
CIRCLE
  8
VC_TOP
 10
79.019400
 20
27.813000
 40
0.250063
  0
CIRCLE
  8
VC_BOTTOM
 10
79.019400
 20
27.813000
 40
0.250063
  0
CIRCLE
  8
VC_TOP
 10
78.994000
 20
35.153600
 40
0.250063
  0
CIRCLE
  8
VC_BOTTOM
 10
78.994000
 20
35.153600
 40
0.250063
  0
CIRCLE
  8
VC_TOP
 10
78.968600
 20
40.055800
 40
0.250063
  0
CIRCLE
  8
VC_BOTTOM
 10
78.968600
 20
40.055800
 40
0.250063
  0
CIRCLE
  8
VC_TOP
 10
68.275200
 20
43.408600
 40
0.250063
  0
CIRCLE
  8
VC_BOTTOM
 10
68.275200
 20
43.408600
 40
0.250063
  0
CIRCLE
  8
VC_TOP
 10
76.352400
 20
47.066200
 40
0.250063
  0
CIRCLE
  8
VC_BOTTOM
 10
76.352400
 20
47.066200
 40
0.250063
  0
CIRCLE
  8
VC_TOP
 10
71.120000
 20
46.456600
 40
0.250063
  0
CIRCLE
  8
VC_BOTTOM
 10
71.120000
 20
46.456600
 40
0.250063
  0
CIRCLE
  8
VC_TOP
 10
73.482200
 20
45.770800
 40
0.250063
  0
CIRCLE
  8
VC_BOTTOM
 10
73.482200
 20
45.770800
 40
0.250063
  0
CIRCLE
  8
VC_TOP
 10
78.994000
 20
45.237400
 40
0.250063
  0
CIRCLE
  8
VC_BOTTOM
 10
78.994000
 20
45.237400
 40
0.250063
  0
CIRCLE
  8
VC_TOP
 10
78.943200
 20
48.793400
 40
0.250063
  0
CIRCLE
  8
VC_BOTTOM
 10
78.943200
 20
48.793400
 40
0.250063
  0
CIRCLE
  8
VC_TOP
 10
75.742800
 20
49.428400
 40
0.250063
  0
CIRCLE
  8
VC_BOTTOM
 10
75.742800
 20
49.428400
 40
0.250063
  0
CIRCLE
  8
VC_TOP
 10
72.288400
 20
52.578000
 40
0.250063
  0
CIRCLE
  8
VC_BOTTOM
 10
72.288400
 20
52.578000
 40
0.250063
  0
CIRCLE
  8
VC_TOP
 10
72.847200
 20
55.092600
 40
0.250063
  0
CIRCLE
  8
VC_BOTTOM
 10
72.847200
 20
55.092600
 40
0.250063
  0
CIRCLE
  8
VC_TOP
 10
70.459600
 20
43.332400
 40
0.250063
  0
CIRCLE
  8
VC_BOTTOM
 10
70.459600
 20
43.332400
 40
0.250063
  0
CIRCLE
  8
VC_TOP
 10
61.315600
 20
55.016400
 40
0.250063
  0
CIRCLE
  8
VC_BOTTOM
 10
61.315600
 20
55.016400
 40
0.250063
  0
CIRCLE
  8
VC_TOP
 10
59.283600
 20
55.041800
 40
0.250063
  0
CIRCLE
  8
VC_BOTTOM
 10
59.283600
 20
55.041800
 40
0.250063
  0
CIRCLE
  8
VC_TOP
 10
45.974000
 20
55.092600
 40
0.250063
  0
CIRCLE
  8
VC_BOTTOM
 10
45.974000
 20
55.092600
 40
0.250063
  0
CIRCLE
  8
VC_TOP
 10
44.094400
 20
55.118000
 40
0.250063
  0
CIRCLE
  8
VC_BOTTOM
 10
44.094400
 20
55.118000
 40
0.250063
  0
CIRCLE
  8
VC_TOP
 10
23.215600
 20
55.092600
 40
0.250063
  0
CIRCLE
  8
VC_BOTTOM
 10
23.215600
 20
55.092600
 40
0.250063
  0
CIRCLE
  8
VC_TOP
 10
21.234400
 20
55.143400
 40
0.250063
  0
CIRCLE
  8
VC_BOTTOM
 10
21.234400
 20
55.143400
 40
0.250063
  0
CIRCLE
  8
VC_TOP
 10
7.670800
 20
52.806600
 40
0.250063
  0
CIRCLE
  8
VC_BOTTOM
 10
7.670800
 20
52.806600
 40
0.250063
  0
CIRCLE
  8
VC_TOP
 10
58.877200
 20
1.016000
 40
0.250063
  0
CIRCLE
  8
VC_BOTTOM
 10
58.877200
 20
1.016000
 40
0.250063
  0
CIRCLE
  8
VC_TOP
 10
56.769000
 20
0.939800
 40
0.250063
  0
CIRCLE
  8
VC_BOTTOM
 10
56.769000
 20
0.939800
 40
0.250063
  0
CIRCLE
  8
VC_TOP
 10
20.751800
 20
0.965200
 40
0.250063
  0
CIRCLE
  8
VC_BOTTOM
 10
20.751800
 20
0.965200
 40
0.250063
  0
CIRCLE
  8
VC_TOP
 10
18.643600
 20
0.939800
 40
0.250063
  0
CIRCLE
  8
VC_BOTTOM
 10
18.643600
 20
0.939800
 40
0.250063
  0
CIRCLE
  8
VC_TOP
 10
4.953000
 20
14.833600
 40
0.250063
  0
CIRCLE
  8
VC_BOTTOM
 10
4.953000
 20
14.833600
 40
0.250063
  0
CIRCLE
  8
VC_TOP
 10
4.241800
 20
22.225000
 40
0.250063
  0
CIRCLE
  8
VC_BOTTOM
 10
4.241800
 20
22.225000
 40
0.250063
  0
CIRCLE
  8
VC_TOP
 10
4.165600
 20
25.552400
 40
0.250063
  0
CIRCLE
  8
VC_BOTTOM
 10
4.165600
 20
25.552400
 40
0.250063
  0
CIRCLE
  8
VC_TOP
 10
7.772400
 20
25.120600
 40
0.250063
  0
CIRCLE
  8
VC_BOTTOM
 10
7.772400
 20
25.120600
 40
0.250063
  0
CIRCLE
  8
VC_TOP
 10
7.543800
 20
22.936200
 40
0.250063
  0
CIRCLE
  8
VC_BOTTOM
 10
7.543800
 20
22.936200
 40
0.250063
  0
CIRCLE
  8
VC_TOP
 10
7.467600
 20
18.796000
 40
0.250063
  0
CIRCLE
  8
VC_BOTTOM
 10
7.467600
 20
18.796000
 40
0.250063
  0
CIRCLE
  8
VC_TOP
 10
7.493000
 20
14.732000
 40
0.250063
  0
CIRCLE
  8
VC_BOTTOM
 10
7.493000
 20
14.732000
 40
0.250063
  0
CIRCLE
  8
VC_TOP
 10
5.943600
 20
10.414000
 40
0.250063
  0
CIRCLE
  8
VC_BOTTOM
 10
5.943600
 20
10.414000
 40
0.250063
  0
CIRCLE
  8
VC_TOP
 10
13.512800
 20
12.166600
 40
0.250063
  0
CIRCLE
  8
VC_BOTTOM
 10
13.512800
 20
12.166600
 40
0.250063
  0
CIRCLE
  8
VC_TOP
 10
10.007600
 20
6.959600
 40
0.250063
  0
CIRCLE
  8
VC_BOTTOM
 10
10.007600
 20
6.959600
 40
0.250063
  0
CIRCLE
  8
VC_TOP
 10
6.350000
 20
8.001000
 40
0.250063
  0
CIRCLE
  8
VC_BOTTOM
 10
6.350000
 20
8.001000
 40
0.250063
  0
CIRCLE
  8
VC_TOP
 10
0.990600
 20
12.319000
 40
0.250063
  0
CIRCLE
  8
VC_BOTTOM
 10
0.990600
 20
12.319000
 40
0.250063
  0
CIRCLE
  8
VC_TOP
 10
0.838200
 20
15.671800
 40
0.250063
  0
CIRCLE
  8
VC_BOTTOM
 10
0.838200
 20
15.671800
 40
0.250063
  0
CIRCLE
  8
VC_TOP
 10
0.889000
 20
20.167600
 40
0.250063
  0
CIRCLE
  8
VC_BOTTOM
 10
0.889000
 20
20.167600
 40
0.250063
  0
CIRCLE
  8
VC_TOP
 10
0.939800
 20
23.291800
 40
0.250063
  0
CIRCLE
  8
VC_BOTTOM
 10
0.939800
 20
23.291800
 40
0.250063
  0
CIRCLE
  8
VC_TOP
 10
0.889000
 20
27.152600
 40
0.250063
  0
CIRCLE
  8
VC_BOTTOM
 10
0.889000
 20
27.152600
 40
0.250063
  0
CIRCLE
  8
VC_TOP
 10
0.914400
 20
31.521400
 40
0.250063
  0
CIRCLE
  8
VC_BOTTOM
 10
0.914400
 20
31.521400
 40
0.250063
  0
CIRCLE
  8
VC_TOP
 10
3.708400
 20
35.712400
 40
0.250063
  0
CIRCLE
  8
VC_BOTTOM
 10
3.708400
 20
35.712400
 40
0.250063
  0
CIRCLE
  8
VC_TOP
 10
0.889000
 20
35.636200
 40
0.250063
  0
CIRCLE
  8
VC_BOTTOM
 10
0.889000
 20
35.636200
 40
0.250063
  0
CIRCLE
  8
VC_TOP
 10
7.594600
 20
37.541200
 40
0.250063
  0
CIRCLE
  8
VC_BOTTOM
 10
7.594600
 20
37.541200
 40
0.250063
  0
CIRCLE
  8
VC_TOP
 10
3.810000
 20
39.751000
 40
0.250063
  0
CIRCLE
  8
VC_BOTTOM
 10
3.810000
 20
39.751000
 40
0.250063
  0
CIRCLE
  8
VC_TOP
 10
3.149600
 20
43.942000
 40
0.250063
  0
CIRCLE
  8
VC_BOTTOM
 10
3.149600
 20
43.942000
 40
0.250063
  0
CIRCLE
  8
VC_TOP
 10
0.863600
 20
40.157400
 40
0.250063
  0
CIRCLE
  8
VC_BOTTOM
 10
0.863600
 20
40.157400
 40
0.250063
  0
CIRCLE
  8
VC_TOP
 10
0.863600
 20
44.678600
 40
0.250063
  0
CIRCLE
  8
VC_BOTTOM
 10
0.863600
 20
44.678600
 40
0.250063
  0
CIRCLE
  8
VC_TOP
 10
3.835400
 20
49.098200
 40
0.250063
  0
CIRCLE
  8
VC_BOTTOM
 10
3.835400
 20
49.098200
 40
0.250063
  0
CIRCLE
  8
VC_TOP
 10
4.394200
 20
46.786800
 40
0.250063
  0
CIRCLE
  8
VC_BOTTOM
 10
4.394200
 20
46.786800
 40
0.250063
  0
CIRCLE
  8
VC_TOP
 10
7.747000
 20
46.913800
 40
0.250063
  0
CIRCLE
  8
VC_BOTTOM
 10
7.747000
 20
46.913800
 40
0.250063
  0
CIRCLE
  8
VC_TOP
 10
0.939800
 20
49.580800
 40
0.250063
  0
CIRCLE
  8
VC_BOTTOM
 10
0.939800
 20
49.580800
 40
0.250063
  0
CIRCLE
  8
VC_TOP
 10
9.626600
 20
49.606200
 40
0.250063
  0
CIRCLE
  8
VC_BOTTOM
 10
9.626600
 20
49.606200
 40
0.250063
  0
CIRCLE
  8
VC_TOP
 10
7.924800
 20
55.219600
 40
0.250063
  0
CIRCLE
  8
VC_BOTTOM
 10
7.924800
 20
55.219600
 40
0.250063
  0
CIRCLE
  8
VC_TOP
 10
1.295400
 20
6.832600
 40
0.250063
  0
CIRCLE
  8
VC_BOTTOM
 10
1.295400
 20
6.832600
 40
0.250063
  0
CIRCLE
  8
VC_TOP
 10
6.908800
 20
4.953000
 40
0.250063
  0
CIRCLE
  8
VC_BOTTOM
 10
6.908800
 20
4.953000
 40
0.250063
  0
CIRCLE
  8
VC_TOP
 10
78.333600
 20
6.807200
 40
0.250063
  0
CIRCLE
  8
VC_BOTTOM
 10
78.333600
 20
6.807200
 40
0.250063
  0
CIRCLE
  8
VC_TOP
 10
73.431400
 20
4.902200
 40
0.250063
  0
CIRCLE
  8
VC_BOTTOM
 10
73.431400
 20
4.902200
 40
0.250063
  0
CIRCLE
  8
VC_TOP
 10
72.491600
 20
0.965200
 40
0.250063
  0
CIRCLE
  8
VC_BOTTOM
 10
72.491600
 20
0.965200
 40
0.250063
  0
CIRCLE
  8
VC_TOP
 10
35.991800
 20
0.939800
 40
0.250063
  0
CIRCLE
  8
VC_BOTTOM
 10
35.991800
 20
0.939800
 40
0.250063
  0
CIRCLE
  8
VC_TOP
 10
33.934400
 20
0.914400
 40
0.250063
  0
CIRCLE
  8
VC_BOTTOM
 10
33.934400
 20
0.914400
 40
0.250063
  0
CIRCLE
  8
VC_TOP
 10
6.324600
 20
0.889000
 40
0.250063
  0
CIRCLE
  8
VC_BOTTOM
 10
6.324600
 20
0.889000
 40
0.250063
  0
CIRCLE
  8
VC_TOP
 10
12.852400
 20
7.315200
 40
0.250063
  0
CIRCLE
  8
VC_BOTTOM
 10
12.852400
 20
7.315200
 40
0.250063
  0
CIRCLE
  8
VC_TOP
 10
12.801600
 20
8.153400
 40
0.250063
  0
CIRCLE
  8
VC_BOTTOM
 10
12.801600
 20
8.153400
 40
0.250063
  0
CIRCLE
  8
VC_TOP
 10
7.772400
 20
26.238200
 40
0.250063
  0
CIRCLE
  8
VC_BOTTOM
 10
7.772400
 20
26.238200
 40
0.250063
  0
CIRCLE
  8
VC_TOP
 10
7.620000
 20
33.171892
 40
0.250063
  0
CIRCLE
  8
VC_BOTTOM
 10
7.620000
 20
33.171892
 40
0.250063
  0
CIRCLE
  8
VC_TOP
 10
7.848600
 20
38.735000
 40
0.250063
  0
CIRCLE
  8
VC_BOTTOM
 10
7.848600
 20
38.735000
 40
0.250063
  0
CIRCLE
  8
VC_TOP
 10
7.620000
 20
45.744892
 40
0.250063
  0
CIRCLE
  8
VC_BOTTOM
 10
7.620000
 20
45.744892
 40
0.250063
  0
CIRCLE
  8
VC_TOP
 10
8.001000
 20
42.545000
 40
0.250063
  0
CIRCLE
  8
VC_BOTTOM
 10
8.001000
 20
42.545000
 40
0.250063
  0
CIRCLE
  8
VC_TOP
 10
11.938000
 20
23.114000
 40
0.250063
  0
CIRCLE
  8
VC_BOTTOM
 10
11.938000
 20
23.114000
 40
0.250063
  0
CIRCLE
  8
VC_TOP
 10
62.763400
 20
24.993600
 40
0.250063
  0
CIRCLE
  8
VC_BOTTOM
 10
62.763400
 20
24.993600
 40
0.250063
  0
CIRCLE
  8
VC_TOP
 10
65.913000
 20
24.638000
 40
0.250063
  0
CIRCLE
  8
VC_BOTTOM
 10
65.913000
 20
24.638000
 40
0.250063
  0
CIRCLE
  8
VC_TOP
 10
67.183000
 20
23.241000
 40
0.250063
  0
CIRCLE
  8
VC_BOTTOM
 10
67.183000
 20
23.241000
 40
0.250063
  0
CIRCLE
  8
VC_TOP
 10
20.320000
 20
49.885600
 40
0.250063
  0
CIRCLE
  8
VC_BOTTOM
 10
20.320000
 20
49.885600
 40
0.250063
  0
CIRCLE
  8
VC_TOP
 10
15.875000
 20
8.255000
 40
0.250063
  0
CIRCLE
  8
VC_BOTTOM
 10
15.875000
 20
8.255000
 40
0.250063
  0
CIRCLE
  8
VC_TOP
 10
15.875000
 20
7.493000
 40
0.250063
  0
CIRCLE
  8
VC_BOTTOM
 10
15.875000
 20
7.493000
 40
0.250063
  0
CIRCLE
  8
VC_TOP
 10
13.739876
 20
19.575272
 40
0.250063
  0
CIRCLE
  8
VC_BOTTOM
 10
13.739876
 20
19.575272
 40
0.250063
  0
CIRCLE
  8
VC_TOP
 10
13.766800
 20
18.821400
 40
0.250063
  0
CIRCLE
  8
VC_BOTTOM
 10
13.766800
 20
18.821400
 40
0.250063
  0
CIRCLE
  8
VC_TOP
 10
11.938000
 20
22.232874
 40
0.250063
  0
CIRCLE
  8
VC_BOTTOM
 10
11.938000
 20
22.232874
 40
0.250063
  0
CIRCLE
  8
VC_TOP
 10
15.069312
 20
21.615908
 40
0.203200
  0
CIRCLE
  8
VC_BOTTOM
 10
15.069312
 20
21.615908
 40
0.203200
  0
CIRCLE
  8
VC_TOP
 10
11.938000
 20
17.272000
 40
0.250063
  0
CIRCLE
  8
VC_BOTTOM
 10
11.938000
 20
17.272000
 40
0.250063
  0
CIRCLE
  8
VC_TOP
 10
11.938000
 20
11.684000
 40
0.250063
  0
CIRCLE
  8
VC_BOTTOM
 10
11.938000
 20
11.684000
 40
0.250063
  0
CIRCLE
  8
VC_TOP
 10
11.938000
 20
16.256000
 40
0.250063
  0
CIRCLE
  8
VC_BOTTOM
 10
11.938000
 20
16.256000
 40
0.250063
  0
CIRCLE
  8
VC_TOP
 10
60.909200
 20
17.581880
 40
0.250063
  0
CIRCLE
  8
VC_BOTTOM
 10
60.909200
 20
17.581880
 40
0.250063
  0
CIRCLE
  8
VC_TOP
 10
60.909200
 20
18.348452
 40
0.250063
  0
CIRCLE
  8
VC_BOTTOM
 10
60.909200
 20
18.348452
 40
0.250063
  0
CIRCLE
  8
PIN_BOTTOM
 10
73.787000
 20
7.239000
 40
0.508000
  0
POLYLINE
  8
PG_SILKSCREEN_BOTTOM
 66
1
 70
0
 40
0.000000
 41
0.000000
 39
0.000000
  0
VERTEX
  8
PG_SILKSCREEN_BOTTOM
 10
75.311000
 20
7.239000
 40
0.154940
 41
0.154940
 42
1.000000
  0
VERTEX
  8
PG_SILKSCREEN_BOTTOM
 10
72.263000
 20
7.239000
 40
0.154940
 41
0.154940
 42
1.000000
  0
VERTEX
  8
PG_SILKSCREEN_BOTTOM
 10
75.311000
 20
7.239000
 40
0.154940
 41
0.154940
 42
0.000000
  0
SEQEND
  0
CIRCLE
  8
PIN_TOP
 10
73.787000
 20
7.239000
 40
0.508000
  0
POLYLINE
  8
PG_SILKSCREEN_TOP
 66
1
 70
0
 40
0.000000
 41
0.000000
 39
0.000000
  0
VERTEX
  8
PG_SILKSCREEN_TOP
 10
75.311000
 20
7.239000
 40
0.154940
 41
0.154940
 42
1.000000
  0
VERTEX
  8
PG_SILKSCREEN_TOP
 10
72.263000
 20
7.239000
 40
0.154940
 41
0.154940
 42
1.000000
  0
VERTEX
  8
PG_SILKSCREEN_TOP
 10
75.311000
 20
7.239000
 40
0.154940
 41
0.154940
 42
0.000000
  0
SEQEND
  0
CIRCLE
  8
PIN_BOTTOM
 10
73.533000
 20
48.768000
 40
0.508000
  0
POLYLINE
  8
PG_SILKSCREEN_BOTTOM
 66
1
 70
0
 40
0.000000
 41
0.000000
 39
0.000000
  0
VERTEX
  8
PG_SILKSCREEN_BOTTOM
 10
75.057000
 20
48.768000
 40
0.154940
 41
0.154940
 42
1.000000
  0
VERTEX
  8
PG_SILKSCREEN_BOTTOM
 10
72.009000
 20
48.768000
 40
0.154940
 41
0.154940
 42
1.000000
  0
VERTEX
  8
PG_SILKSCREEN_BOTTOM
 10
75.057000
 20
48.768000
 40
0.154940
 41
0.154940
 42
0.000000
  0
SEQEND
  0
CIRCLE
  8
PIN_BOTTOM
 10
6.477000
 20
49.403000
 40
0.508000
  0
POLYLINE
  8
PG_SILKSCREEN_BOTTOM
 66
1
 70
0
 40
0.000000
 41
0.000000
 39
0.000000
  0
VERTEX
  8
PG_SILKSCREEN_BOTTOM
 10
8.001000
 20
49.403000
 40
0.154940
 41
0.154940
 42
1.000000
  0
VERTEX
  8
PG_SILKSCREEN_BOTTOM
 10
4.953000
 20
49.403000
 40
0.154940
 41
0.154940
 42
1.000000
  0
VERTEX
  8
PG_SILKSCREEN_BOTTOM
 10
8.001000
 20
49.403000
 40
0.154940
 41
0.154940
 42
0.000000
  0
SEQEND
  0
CIRCLE
  8
PIN_TOP
 10
73.279000
 20
48.514000
 40
0.508000
  0
POLYLINE
  8
PG_SILKSCREEN_TOP
 66
1
 70
0
 40
0.000000
 41
0.000000
 39
0.000000
  0
VERTEX
  8
PG_SILKSCREEN_TOP
 10
74.803000
 20
48.514000
 40
0.154940
 41
0.154940
 42
1.000000
  0
VERTEX
  8
PG_SILKSCREEN_TOP
 10
71.755000
 20
48.514000
 40
0.154940
 41
0.154940
 42
1.000000
  0
VERTEX
  8
PG_SILKSCREEN_TOP
 10
74.803000
 20
48.514000
 40
0.154940
 41
0.154940
 42
0.000000
  0
SEQEND
  0
CIRCLE
  8
PIN_TOP
 10
6.477000
 20
49.403000
 40
0.508000
  0
POLYLINE
  8
PG_SILKSCREEN_TOP
 66
1
 70
0
 40
0.000000
 41
0.000000
 39
0.000000
  0
VERTEX
  8
PG_SILKSCREEN_TOP
 10
8.001000
 20
49.403000
 40
0.154940
 41
0.154940
 42
1.000000
  0
VERTEX
  8
PG_SILKSCREEN_TOP
 10
4.953000
 20
49.403000
 40
0.154940
 41
0.154940
 42
1.000000
  0
VERTEX
  8
PG_SILKSCREEN_TOP
 10
8.001000
 20
49.403000
 40
0.154940
 41
0.154940
 42
0.000000
  0
SEQEND
  0
CIRCLE
  8
PIN_TOP
 10
77.000100
 20
53.007006
 40
2.997200
  0
CIRCLE
  8
PIN_BOTTOM
 10
77.000100
 20
53.007006
 40
2.997200
  0
CIRCLE
  8
PIN_TOP
 10
77.000100
 20
55.293006
 40
0.508000
  0
CIRCLE
  8
PIN_BOTTOM
 10
77.000100
 20
55.293006
 40
0.508000
  0
CIRCLE
  8
PIN_TOP
 10
75.383644
 20
54.623462
 40
0.508000
  0
CIRCLE
  8
PIN_BOTTOM
 10
75.383644
 20
54.623462
 40
0.508000
  0
CIRCLE
  8
PIN_TOP
 10
74.714100
 20
53.007006
 40
0.508000
  0
CIRCLE
  8
PIN_BOTTOM
 10
74.714100
 20
53.007006
 40
0.508000
  0
CIRCLE
  8
PIN_TOP
 10
75.383644
 20
51.390550
 40
0.508000
  0
CIRCLE
  8
PIN_BOTTOM
 10
75.383644
 20
51.390550
 40
0.508000
  0
CIRCLE
  8
PIN_TOP
 10
77.000100
 20
50.721006
 40
0.508000
  0
CIRCLE
  8
PIN_BOTTOM
 10
77.000100
 20
50.721006
 40
0.508000
  0
CIRCLE
  8
PIN_TOP
 10
78.616556
 20
51.390550
 40
0.508000
  0
CIRCLE
  8
PIN_BOTTOM
 10
78.616556
 20
51.390550
 40
0.508000
  0
CIRCLE
  8
PIN_TOP
 10
79.286100
 20
53.007006
 40
0.508000
  0
CIRCLE
  8
PIN_BOTTOM
 10
79.286100
 20
53.007006
 40
0.508000
  0
CIRCLE
  8
PIN_TOP
 10
78.616556
 20
54.623462
 40
0.508000
  0
CIRCLE
  8
PIN_BOTTOM
 10
78.616556
 20
54.623462
 40
0.508000
  0
TEXT
  8
RD_SILKSCREEN_TOP
 10
77.393800
 20
48.463200
 11
0.000000
 21
0.000000
 40
0.762000
 41
0.833333
 50
0.000000
  7
STANDARD
 71
0
 72
0
  1
M2
 73
0
  0
CIRCLE
  8
PIN_TOP
 10
77.000100
 20
2.999994
 40
2.997200
  0
CIRCLE
  8
PIN_BOTTOM
 10
77.000100
 20
2.999994
 40
2.997200
  0
CIRCLE
  8
PIN_TOP
 10
77.000100
 20
5.285994
 40
0.508000
  0
CIRCLE
  8
PIN_BOTTOM
 10
77.000100
 20
5.285994
 40
0.508000
  0
CIRCLE
  8
PIN_TOP
 10
75.383644
 20
4.616450
 40
0.508000
  0
CIRCLE
  8
PIN_BOTTOM
 10
75.383644
 20
4.616450
 40
0.508000
  0
CIRCLE
  8
PIN_TOP
 10
74.714100
 20
2.999994
 40
0.508000
  0
CIRCLE
  8
PIN_BOTTOM
 10
74.714100
 20
2.999994
 40
0.508000
  0
CIRCLE
  8
PIN_TOP
 10
75.383644
 20
1.383538
 40
0.508000
  0
CIRCLE
  8
PIN_BOTTOM
 10
75.383644
 20
1.383538
 40
0.508000
  0
CIRCLE
  8
PIN_TOP
 10
77.000100
 20
0.713994
 40
0.508000
  0
CIRCLE
  8
PIN_BOTTOM
 10
77.000100
 20
0.713994
 40
0.508000
  0
CIRCLE
  8
PIN_TOP
 10
78.616556
 20
1.383538
 40
0.508000
  0
CIRCLE
  8
PIN_BOTTOM
 10
78.616556
 20
1.383538
 40
0.508000
  0
CIRCLE
  8
PIN_TOP
 10
79.286100
 20
2.999994
 40
0.508000
  0
CIRCLE
  8
PIN_BOTTOM
 10
79.286100
 20
2.999994
 40
0.508000
  0
CIRCLE
  8
PIN_TOP
 10
78.616556
 20
4.616450
 40
0.508000
  0
CIRCLE
  8
PIN_BOTTOM
 10
78.616556
 20
4.616450
 40
0.508000
  0
TEXT
  8
RD_SILKSCREEN_TOP
 10
77.368400
 20
6.502400
 11
0.000000
 21
0.000000
 40
0.762000
 41
0.833333
 50
0.000000
  7
STANDARD
 71
0
 72
0
  1
M4
 73
0
  0
CIRCLE
  8
PIN_TOP
 10
2.999740
 20
2.999994
 40
2.997200
  0
CIRCLE
  8
PIN_BOTTOM
 10
2.999740
 20
2.999994
 40
2.997200
  0
CIRCLE
  8
PIN_TOP
 10
2.999740
 20
5.285994
 40
0.508000
  0
CIRCLE
  8
PIN_BOTTOM
 10
2.999740
 20
5.285994
 40
0.508000
  0
CIRCLE
  8
PIN_TOP
 10
1.383284
 20
4.616450
 40
0.508000
  0
CIRCLE
  8
PIN_BOTTOM
 10
1.383284
 20
4.616450
 40
0.508000
  0
CIRCLE
  8
PIN_TOP
 10
0.713740
 20
2.999994
 40
0.508000
  0
CIRCLE
  8
PIN_BOTTOM
 10
0.713740
 20
2.999994
 40
0.508000
  0
CIRCLE
  8
PIN_TOP
 10
1.383284
 20
1.383538
 40
0.508000
  0
CIRCLE
  8
PIN_BOTTOM
 10
1.383284
 20
1.383538
 40
0.508000
  0
CIRCLE
  8
PIN_TOP
 10
2.999740
 20
0.713994
 40
0.508000
  0
CIRCLE
  8
PIN_BOTTOM
 10
2.999740
 20
0.713994
 40
0.508000
  0
CIRCLE
  8
PIN_TOP
 10
4.616196
 20
1.383538
 40
0.508000
  0
CIRCLE
  8
PIN_BOTTOM
 10
4.616196
 20
1.383538
 40
0.508000
  0
CIRCLE
  8
PIN_TOP
 10
5.285740
 20
2.999994
 40
0.508000
  0
CIRCLE
  8
PIN_BOTTOM
 10
5.285740
 20
2.999994
 40
0.508000
  0
CIRCLE
  8
PIN_TOP
 10
4.616196
 20
4.616450
 40
0.508000
  0
CIRCLE
  8
PIN_BOTTOM
 10
4.616196
 20
4.616450
 40
0.508000
  0
TEXT
  8
RD_SILKSCREEN_TOP
 10
1.117600
 20
6.629400
 11
0.000000
 21
0.000000
 40
0.762000
 41
0.833333
 50
0.000000
  7
STANDARD
 71
0
 72
0
  1
M3
 73
0
  0
CIRCLE
  8
PIN_TOP
 10
2.999740
 20
53.007006
 40
2.997200
  0
CIRCLE
  8
PIN_BOTTOM
 10
2.999740
 20
53.007006
 40
2.997200
  0
CIRCLE
  8
PIN_TOP
 10
2.999740
 20
55.293006
 40
0.508000
  0
CIRCLE
  8
PIN_BOTTOM
 10
2.999740
 20
55.293006
 40
0.508000
  0
CIRCLE
  8
PIN_TOP
 10
1.383284
 20
54.623462
 40
0.508000
  0
CIRCLE
  8
PIN_BOTTOM
 10
1.383284
 20
54.623462
 40
0.508000
  0
CIRCLE
  8
PIN_TOP
 10
0.713740
 20
53.007006
 40
0.508000
  0
CIRCLE
  8
PIN_BOTTOM
 10
0.713740
 20
53.007006
 40
0.508000
  0
CIRCLE
  8
PIN_TOP
 10
1.383284
 20
51.390550
 40
0.508000
  0
CIRCLE
  8
PIN_BOTTOM
 10
1.383284
 20
51.390550
 40
0.508000
  0
CIRCLE
  8
PIN_TOP
 10
2.999740
 20
50.721006
 40
0.508000
  0
CIRCLE
  8
PIN_BOTTOM
 10
2.999740
 20
50.721006
 40
0.508000
  0
CIRCLE
  8
PIN_TOP
 10
4.616196
 20
51.390550
 40
0.508000
  0
CIRCLE
  8
PIN_BOTTOM
 10
4.616196
 20
51.390550
 40
0.508000
  0
CIRCLE
  8
PIN_TOP
 10
5.285740
 20
53.007006
 40
0.508000
  0
CIRCLE
  8
PIN_BOTTOM
 10
5.285740
 20
53.007006
 40
0.508000
  0
CIRCLE
  8
PIN_TOP
 10
4.616196
 20
54.623462
 40
0.508000
  0
CIRCLE
  8
PIN_BOTTOM
 10
4.616196
 20
54.623462
 40
0.508000
  0
TEXT
  8
RD_SILKSCREEN_TOP
 10
0.635000
 20
49.022000
 11
0.000000
 21
0.000000
 40
0.762000
 41
0.833333
 50
0.000000
  7
STANDARD
 71
0
 72
0
  1
M1
 73
0
  0
POLYLINE
  8
PIN_BOTTOM
 66
1
 70
1
 40
0.000000
 41
0.000000
 39
0.000000
  0
VERTEX
  8
PIN_BOTTOM
 10
59.559063
 20
48.256063
 40
0.000000
 41
0.000000
 42
0.000000
  0
VERTEX
  8
PIN_BOTTOM
 10
59.058937
 20
48.256063
 40
0.000000
 41
0.000000
 42
0.000000
  0
VERTEX
  8
PIN_BOTTOM
 10
59.058937
 20
47.755937
 40
0.000000
 41
0.000000
 42
0.000000
  0
VERTEX
  8
PIN_BOTTOM
 10
59.559063
 20
47.755937
 40
0.000000
 41
0.000000
 42
0.000000
  0
SEQEND
  0
POLYLINE
  8
PIN_BOTTOM
 66
1
 70
1
 40
0.000000
 41
0.000000
 39
0.000000
  0
VERTEX
  8
PIN_BOTTOM
 10
60.575063
 20
48.256063
 40
0.000000
 41
0.000000
 42
0.000000
  0
VERTEX
  8
PIN_BOTTOM
 10
60.074937
 20
48.256063
 40
0.000000
 41
0.000000
 42
0.000000
  0
VERTEX
  8
PIN_BOTTOM
 10
60.074937
 20
47.755937
 40
0.000000
 41
0.000000
 42
0.000000
  0
VERTEX
  8
PIN_BOTTOM
 10
60.575063
 20
47.755937
 40
0.000000
 41
0.000000
 42
0.000000
  0
SEQEND
  0
POLYLINE
  8
PG_SILKSCREEN_BOTTOM
 66
1
 70
0
 40
0.000000
 41
0.000000
 39
0.000000
  0
VERTEX
  8
PG_SILKSCREEN_BOTTOM
 10
59.917076
 20
47.806102
 40
0.127000
 41
0.127000
 42
0.000000
  0
VERTEX
  8
PG_SILKSCREEN_BOTTOM
 10
59.917076
 20
47.665894
 40
0.127000
 41
0.127000
 42
0.000000
  0
SEQEND
  0
POLYLINE
  8
PG_SILKSCREEN_BOTTOM
 66
1
 70
0
 40
0.000000
 41
0.000000
 39
0.000000
  0
VERTEX
  8
PG_SILKSCREEN_BOTTOM
 10
59.716924
 20
48.006000
 40
0.127000
 41
0.127000
 42
0.000000
  0
VERTEX
  8
PG_SILKSCREEN_BOTTOM
 10
59.917076
 20
47.806102
 40
0.127000
 41
0.127000
 42
0.000000
  0
SEQEND
  0
POLYLINE
  8
PG_SILKSCREEN_BOTTOM
 66
1
 70
0
 40
0.000000
 41
0.000000
 39
0.000000
  0
VERTEX
  8
PG_SILKSCREEN_BOTTOM
 10
59.917076
 20
48.205898
 40
0.127000
 41
0.127000
 42
0.000000
  0
VERTEX
  8
PG_SILKSCREEN_BOTTOM
 10
59.716924
 20
48.006000
 40
0.127000
 41
0.127000
 42
0.000000
  0
SEQEND
  0
POLYLINE
  8
PG_SILKSCREEN_BOTTOM
 66
1
 70
0
 40
0.000000
 41
0.000000
 39
0.000000
  0
VERTEX
  8
PG_SILKSCREEN_BOTTOM
 10
59.917076
 20
48.356012
 40
0.127000
 41
0.127000
 42
0.000000
  0
VERTEX
  8
PG_SILKSCREEN_BOTTOM
 10
59.917076
 20
48.205898
 40
0.127000
 41
0.127000
 42
0.000000
  0
SEQEND
  0
POLYLINE
  8
PG_SILKSCREEN_BOTTOM
 66
1
 70
0
 40
0.000000
 41
0.000000
 39
0.000000
  0
VERTEX
  8
PG_SILKSCREEN_BOTTOM
 10
60.716922
 20
48.406050
 40
0.127000
 41
0.127000
 42
0.000000
  0
VERTEX
  8
PG_SILKSCREEN_BOTTOM
 10
60.716922
 20
47.605950
 40
0.127000
 41
0.127000
 42
0.000000
  0
VERTEX
  8
PG_SILKSCREEN_BOTTOM
 10
58.917078
 20
47.605950
 40
0.127000
 41
0.127000
 42
0.000000
  0
VERTEX
  8
PG_SILKSCREEN_BOTTOM
 10
58.917078
 20
48.406050
 40
0.127000
 41
0.127000
 42
0.000000
  0
VERTEX
  8
PG_SILKSCREEN_BOTTOM
 10
60.716922
 20
48.406050
 40
0.127000
 41
0.127000
 42
0.000000
  0
SEQEND
  0
POLYLINE
  8
PIN_BOTTOM
 66
1
 70
1
 40
0.000000
 41
0.000000
 39
0.000000
  0
VERTEX
  8
PIN_BOTTOM
 10
59.559063
 20
49.272063
 40
0.000000
 41
0.000000
 42
0.000000
  0
VERTEX
  8
PIN_BOTTOM
 10
59.058937
 20
49.272063
 40
0.000000
 41
0.000000
 42
0.000000
  0
VERTEX
  8
PIN_BOTTOM
 10
59.058937
 20
48.771937
 40
0.000000
 41
0.000000
 42
0.000000
  0
VERTEX
  8
PIN_BOTTOM
 10
59.559063
 20
48.771937
 40
0.000000
 41
0.000000
 42
0.000000
  0
SEQEND
  0
POLYLINE
  8
PIN_BOTTOM
 66
1
 70
1
 40
0.000000
 41
0.000000
 39
0.000000
  0
VERTEX
  8
PIN_BOTTOM
 10
60.575063
 20
49.272063
 40
0.000000
 41
0.000000
 42
0.000000
  0
VERTEX
  8
PIN_BOTTOM
 10
60.074937
 20
49.272063
 40
0.000000
 41
0.000000
 42
0.000000
  0
VERTEX
  8
PIN_BOTTOM
 10
60.074937
 20
48.771937
 40
0.000000
 41
0.000000
 42
0.000000
  0
VERTEX
  8
PIN_BOTTOM
 10
60.575063
 20
48.771937
 40
0.000000
 41
0.000000
 42
0.000000
  0
SEQEND
  0
POLYLINE
  8
PG_SILKSCREEN_BOTTOM
 66
1
 70
0
 40
0.000000
 41
0.000000
 39
0.000000
  0
VERTEX
  8
PG_SILKSCREEN_BOTTOM
 10
59.917076
 20
48.822102
 40
0.127000
 41
0.127000
 42
0.000000
  0
VERTEX
  8
PG_SILKSCREEN_BOTTOM
 10
59.917076
 20
48.681894
 40
0.127000
 41
0.127000
 42
0.000000
  0
SEQEND
  0
POLYLINE
  8
PG_SILKSCREEN_BOTTOM
 66
1
 70
0
 40
0.000000
 41
0.000000
 39
0.000000
  0
VERTEX
  8
PG_SILKSCREEN_BOTTOM
 10
59.716924
 20
49.022000
 40
0.127000
 41
0.127000
 42
0.000000
  0
VERTEX
  8
PG_SILKSCREEN_BOTTOM
 10
59.917076
 20
48.822102
 40
0.127000
 41
0.127000
 42
0.000000
  0
SEQEND
  0
POLYLINE
  8
PG_SILKSCREEN_BOTTOM
 66
1
 70
0
 40
0.000000
 41
0.000000
 39
0.000000
  0
VERTEX
  8
PG_SILKSCREEN_BOTTOM
 10
59.917076
 20
49.221898
 40
0.127000
 41
0.127000
 42
0.000000
  0
VERTEX
  8
PG_SILKSCREEN_BOTTOM
 10
59.716924
 20
49.022000
 40
0.127000
 41
0.127000
 42
0.000000
  0
SEQEND
  0
POLYLINE
  8
PG_SILKSCREEN_BOTTOM
 66
1
 70
0
 40
0.000000
 41
0.000000
 39
0.000000
  0
VERTEX
  8
PG_SILKSCREEN_BOTTOM
 10
59.917076
 20
49.372012
 40
0.127000
 41
0.127000
 42
0.000000
  0
VERTEX
  8
PG_SILKSCREEN_BOTTOM
 10
59.917076
 20
49.221898
 40
0.127000
 41
0.127000
 42
0.000000
  0
SEQEND
  0
POLYLINE
  8
PG_SILKSCREEN_BOTTOM
 66
1
 70
0
 40
0.000000
 41
0.000000
 39
0.000000
  0
VERTEX
  8
PG_SILKSCREEN_BOTTOM
 10
60.716922
 20
49.422050
 40
0.127000
 41
0.127000
 42
0.000000
  0
VERTEX
  8
PG_SILKSCREEN_BOTTOM
 10
60.716922
 20
48.621950
 40
0.127000
 41
0.127000
 42
0.000000
  0
VERTEX
  8
PG_SILKSCREEN_BOTTOM
 10
58.917078
 20
48.621950
 40
0.127000
 41
0.127000
 42
0.000000
  0
VERTEX
  8
PG_SILKSCREEN_BOTTOM
 10
58.917078
 20
49.422050
 40
0.127000
 41
0.127000
 42
0.000000
  0
VERTEX
  8
PG_SILKSCREEN_BOTTOM
 10
60.716922
 20
49.422050
 40
0.127000
 41
0.127000
 42
0.000000
  0
SEQEND
  0
POLYLINE
  8
PIN_TOP
 66
1
 70
1
 40
0.000000
 41
0.000000
 39
0.000000
  0
VERTEX
  8
PIN_TOP
 10
2.855976
 20
13.970000
 40
0.000000
 41
0.000000
 42
0.000000
  0
VERTEX
  8
PIN_TOP
 10
1.077976
 20
13.970000
 40
0.000000
 41
0.000000
 42
0.000000
  0
VERTEX
  8
PIN_TOP
 10
1.077976
 20
14.986000
 40
0.000000
 41
0.000000
 42
0.000000
  0
VERTEX
  8
PIN_TOP
 10
2.855976
 20
14.986000
 40
0.000000
 41
0.000000
 42
0.000000
  0
SEQEND
  0
POLYLINE
  8
PIN_TOP
 66
1
 70
1
 40
0.000000
 41
0.000000
 39
0.000000
  0
VERTEX
  8
PIN_TOP
 10
10.606024
 20
13.970000
 40
0.000000
 41
0.000000
 42
0.000000
  0
VERTEX
  8
PIN_TOP
 10
8.828024
 20
13.970000
 40
0.000000
 41
0.000000
 42
0.000000
  0
VERTEX
  8
PIN_TOP
 10
8.828024
 20
14.986000
 40
0.000000
 41
0.000000
 42
0.000000
  0
VERTEX
  8
PIN_TOP
 10
10.606024
 20
14.986000
 40
0.000000
 41
0.000000
 42
0.000000
  0
SEQEND
  0
POLYLINE
  8
PG_SILKSCREEN_TOP
 66
1
 70
0
 40
0.000000
 41
0.000000
 39
0.000000
  0
VERTEX
  8
PG_SILKSCREEN_TOP
 10
2.794000
 20
15.240000
 40
0.152400
 41
0.152400
 42
0.000000
  0
VERTEX
  8
PG_SILKSCREEN_TOP
 10
2.791968
 20
16.327882
 40
0.152400
 41
0.152400
 42
0.000000
  0
SEQEND
  0
POLYLINE
  8
PG_SILKSCREEN_TOP
 66
1
 70
0
 40
0.000000
 41
0.000000
 39
0.000000
  0
VERTEX
  8
PG_SILKSCREEN_TOP
 10
8.892032
 20
13.716000
 40
0.152400
 41
0.152400
 42
0.000000
  0
VERTEX
  8
PG_SILKSCREEN_TOP
 10
8.892032
 20
12.628118
 40
0.152400
 41
0.152400
 42
0.000000
  0
VERTEX
  8
PG_SILKSCREEN_TOP
 10
2.791968
 20
12.628118
 40
0.152400
 41
0.152400
 42
0.000000
  0
VERTEX
  8
PG_SILKSCREEN_TOP
 10
2.791968
 20
13.716000
 40
0.152400
 41
0.152400
 42
0.000000
  0
SEQEND
  0
POLYLINE
  8
PG_SILKSCREEN_TOP
 66
1
 70
0
 40
0.000000
 41
0.000000
 39
0.000000
  0
VERTEX
  8
PG_SILKSCREEN_TOP
 10
2.791968
 20
16.327882
 40
0.152400
 41
0.152400
 42
0.000000
  0
VERTEX
  8
PG_SILKSCREEN_TOP
 10
8.892032
 20
16.327882
 40
0.152400
 41
0.152400
 42
0.000000
  0
VERTEX
  8
PG_SILKSCREEN_TOP
 10
8.892032
 20
15.240000
 40
0.152400
 41
0.152400
 42
0.000000
  0
SEQEND
  0
TEXT
  8
PG_SILKSCREEN_TOP
 10
9.728200
 20
15.595600
 11
0.000000
 21
0.000000
 40
0.762000
 41
0.833333
 50
0.000000
  7
STANDARD
 71
0
 72
0
  1
2
 73
0
  0
TEXT
  8
PG_SILKSCREEN_TOP
 10
1.574800
 20
15.519400
 11
0.000000
 21
0.000000
 40
0.762000
 41
0.833333
 50
0.000000
  7
STANDARD
 71
0
 72
0
  1
1
 73
0
  0
TEXT
  8
RD_SILKSCREEN_TOP
 10
1.092200
 20
17.018000
 11
0.000000
 21
0.000000
 40
0.762000
 41
0.833333
 50
0.000000
  7
STANDARD
 71
0
 72
0
  1
K1
 73
0
  0
POLYLINE
  8
PIN_TOP
 66
1
 70
1
 40
0.000000
 41
0.000000
 39
0.000000
  0
VERTEX
  8
PIN_TOP
 10
2.855976
 20
9.398000
 40
0.000000
 41
0.000000
 42
0.000000
  0
VERTEX
  8
PIN_TOP
 10
1.077976
 20
9.398000
 40
0.000000
 41
0.000000
 42
0.000000
  0
VERTEX
  8
PIN_TOP
 10
1.077976
 20
10.414000
 40
0.000000
 41
0.000000
 42
0.000000
  0
VERTEX
  8
PIN_TOP
 10
2.855976
 20
10.414000
 40
0.000000
 41
0.000000
 42
0.000000
  0
SEQEND
  0
POLYLINE
  8
PIN_TOP
 66
1
 70
1
 40
0.000000
 41
0.000000
 39
0.000000
  0
VERTEX
  8
PIN_TOP
 10
10.606024
 20
9.398000
 40
0.000000
 41
0.000000
 42
0.000000
  0
VERTEX
  8
PIN_TOP
 10
8.828024
 20
9.398000
 40
0.000000
 41
0.000000
 42
0.000000
  0
VERTEX
  8
PIN_TOP
 10
8.828024
 20
10.414000
 40
0.000000
 41
0.000000
 42
0.000000
  0
VERTEX
  8
PIN_TOP
 10
10.606024
 20
10.414000
 40
0.000000
 41
0.000000
 42
0.000000
  0
SEQEND
  0
POLYLINE
  8
PG_SILKSCREEN_TOP
 66
1
 70
0
 40
0.000000
 41
0.000000
 39
0.000000
  0
VERTEX
  8
PG_SILKSCREEN_TOP
 10
2.794000
 20
10.668000
 40
0.152400
 41
0.152400
 42
0.000000
  0
VERTEX
  8
PG_SILKSCREEN_TOP
 10
2.791968
 20
11.755882
 40
0.152400
 41
0.152400
 42
0.000000
  0
SEQEND
  0
POLYLINE
  8
PG_SILKSCREEN_TOP
 66
1
 70
0
 40
0.000000
 41
0.000000
 39
0.000000
  0
VERTEX
  8
PG_SILKSCREEN_TOP
 10
8.892032
 20
9.144000
 40
0.152400
 41
0.152400
 42
0.000000
  0
VERTEX
  8
PG_SILKSCREEN_TOP
 10
8.892032
 20
8.056118
 40
0.152400
 41
0.152400
 42
0.000000
  0
VERTEX
  8
PG_SILKSCREEN_TOP
 10
2.791968
 20
8.056118
 40
0.152400
 41
0.152400
 42
0.000000
  0
VERTEX
  8
PG_SILKSCREEN_TOP
 10
2.791968
 20
9.144000
 40
0.152400
 41
0.152400
 42
0.000000
  0
SEQEND
  0
POLYLINE
  8
PG_SILKSCREEN_TOP
 66
1
 70
0
 40
0.000000
 41
0.000000
 39
0.000000
  0
VERTEX
  8
PG_SILKSCREEN_TOP
 10
2.791968
 20
11.755882
 40
0.152400
 41
0.152400
 42
0.000000
  0
VERTEX
  8
PG_SILKSCREEN_TOP
 10
8.892032
 20
11.755882
 40
0.152400
 41
0.152400
 42
0.000000
  0
VERTEX
  8
PG_SILKSCREEN_TOP
 10
8.892032
 20
10.668000
 40
0.152400
 41
0.152400
 42
0.000000
  0
SEQEND
  0
TEXT
  8
PG_SILKSCREEN_TOP
 10
9.652000
 20
10.896600
 11
0.000000
 21
0.000000
 40
0.762000
 41
0.833333
 50
0.000000
  7
STANDARD
 71
0
 72
0
  1
2
 73
0
  0
TEXT
  8
PG_SILKSCREEN_TOP
 10
1.473200
 20
11.252200
 11
0.000000
 21
0.000000
 40
0.762000
 41
0.833333
 50
0.000000
  7
STANDARD
 71
0
 72
0
  1
1
 73
0
  0
TEXT
  8
RD_SILKSCREEN_TOP
 10
1.092200
 20
12.471400
 11
0.000000
 21
0.000000
 40
0.762000
 41
0.833333
 50
0.000000
  7
STANDARD
 71
0
 72
0
  1
K3
 73
0
  0
POLYLINE
  8
PIN_TOP
 66
1
 70
1
 40
0.000000
 41
0.000000
 39
0.000000
  0
VERTEX
  8
PIN_TOP
 10
2.855976
 20
18.542000
 40
0.000000
 41
0.000000
 42
0.000000
  0
VERTEX
  8
PIN_TOP
 10
1.077976
 20
18.542000
 40
0.000000
 41
0.000000
 42
0.000000
  0
VERTEX
  8
PIN_TOP
 10
1.077976
 20
19.558000
 40
0.000000
 41
0.000000
 42
0.000000
  0
VERTEX
  8
PIN_TOP
 10
2.855976
 20
19.558000
 40
0.000000
 41
0.000000
 42
0.000000
  0
SEQEND
  0
POLYLINE
  8
PIN_TOP
 66
1
 70
1
 40
0.000000
 41
0.000000
 39
0.000000
  0
VERTEX
  8
PIN_TOP
 10
10.606024
 20
18.542000
 40
0.000000
 41
0.000000
 42
0.000000
  0
VERTEX
  8
PIN_TOP
 10
8.828024
 20
18.542000
 40
0.000000
 41
0.000000
 42
0.000000
  0
VERTEX
  8
PIN_TOP
 10
8.828024
 20
19.558000
 40
0.000000
 41
0.000000
 42
0.000000
  0
VERTEX
  8
PIN_TOP
 10
10.606024
 20
19.558000
 40
0.000000
 41
0.000000
 42
0.000000
  0
SEQEND
  0
POLYLINE
  8
PG_SILKSCREEN_TOP
 66
1
 70
0
 40
0.000000
 41
0.000000
 39
0.000000
  0
VERTEX
  8
PG_SILKSCREEN_TOP
 10
2.794000
 20
19.812000
 40
0.152400
 41
0.152400
 42
0.000000
  0
VERTEX
  8
PG_SILKSCREEN_TOP
 10
2.791968
 20
20.899882
 40
0.152400
 41
0.152400
 42
0.000000
  0
SEQEND
  0
POLYLINE
  8
PG_SILKSCREEN_TOP
 66
1
 70
0
 40
0.000000
 41
0.000000
 39
0.000000
  0
VERTEX
  8
PG_SILKSCREEN_TOP
 10
8.892032
 20
18.288000
 40
0.152400
 41
0.152400
 42
0.000000
  0
VERTEX
  8
PG_SILKSCREEN_TOP
 10
8.892032
 20
17.200118
 40
0.152400
 41
0.152400
 42
0.000000
  0
VERTEX
  8
PG_SILKSCREEN_TOP
 10
2.791968
 20
17.200118
 40
0.152400
 41
0.152400
 42
0.000000
  0
VERTEX
  8
PG_SILKSCREEN_TOP
 10
2.791968
 20
18.288000
 40
0.152400
 41
0.152400
 42
0.000000
  0
SEQEND
  0
POLYLINE
  8
PG_SILKSCREEN_TOP
 66
1
 70
0
 40
0.000000
 41
0.000000
 39
0.000000
  0
VERTEX
  8
PG_SILKSCREEN_TOP
 10
2.791968
 20
20.899882
 40
0.152400
 41
0.152400
 42
0.000000
  0
VERTEX
  8
PG_SILKSCREEN_TOP
 10
8.892032
 20
20.899882
 40
0.152400
 41
0.152400
 42
0.000000
  0
VERTEX
  8
PG_SILKSCREEN_TOP
 10
8.892032
 20
19.812000
 40
0.152400
 41
0.152400
 42
0.000000
  0
SEQEND
  0
TEXT
  8
PG_SILKSCREEN_TOP
 10
9.728200
 20
20.066000
 11
0.000000
 21
0.000000
 40
0.762000
 41
0.833333
 50
0.000000
  7
STANDARD
 71
0
 72
0
  1
2
 73
0
  0
TEXT
  8
PG_SILKSCREEN_TOP
 10
1.473200
 20
20.243800
 11
0.000000
 21
0.000000
 40
0.762000
 41
0.833333
 50
0.000000
  7
STANDARD
 71
0
 72
0
  1
1
 73
0
  0
TEXT
  8
RD_SILKSCREEN_TOP
 10
1.244600
 20
21.590000
 11
0.000000
 21
0.000000
 40
0.762000
 41
0.833333
 50
0.000000
  7
STANDARD
 71
0
 72
0
  1
K2
 73
0
  0
CIRCLE
  8
PIN_TOP
 10
3.992880
 20
10.798048
 40
0.508000
  0
CIRCLE
  8
PIN_BOTTOM
 10
3.992880
 20
10.798048
 40
0.508000
  0
CIRCLE
  8
PIN_TOP
 10
3.992880
 20
18.798032
 40
0.508000
  0
CIRCLE
  8
PIN_BOTTOM
 10
3.992880
 20
18.798032
 40
0.508000
  0
POLYLINE
  8
PIN_BOTTOM
 66
1
 70
1
 40
0.000000
 41
0.000000
 39
0.000000
  0
VERTEX
  8
PIN_BOTTOM
 10
14.693138
 20
6.947916
 40
0.000000
 41
0.000000
 42
0.000000
  0
VERTEX
  8
PIN_BOTTOM
 10
14.693138
 20
8.547862
 40
0.000000
 41
0.000000
 42
0.000000
  0
VERTEX
  8
PIN_BOTTOM
 10
13.293090
 20
8.547862
 40
0.000000
 41
0.000000
 42
0.000000
  0
VERTEX
  8
PIN_BOTTOM
 10
13.293090
 20
6.947916
 40
0.000000
 41
0.000000
 42
0.000000
  0
SEQEND
  0
POLYLINE
  8
PIN_BOTTOM
 66
1
 70
1
 40
0.000000
 41
0.000000
 39
0.000000
  0
VERTEX
  8
PIN_BOTTOM
 10
14.693138
 20
21.798026
 40
0.000000
 41
0.000000
 42
0.000000
  0
VERTEX
  8
PIN_BOTTOM
 10
14.693138
 20
23.397972
 40
0.000000
 41
0.000000
 42
0.000000
  0
VERTEX
  8
PIN_BOTTOM
 10
13.293090
 20
23.397972
 40
0.000000
 41
0.000000
 42
0.000000
  0
VERTEX
  8
PIN_BOTTOM
 10
13.293090
 20
21.798026
 40
0.000000
 41
0.000000
 42
0.000000
  0
SEQEND
  0
POLYLINE
  8
PIN_BOTTOM
 66
1
 70
1
 40
0.000000
 41
0.000000
 39
0.000000
  0
VERTEX
  8
PIN_BOTTOM
 10
3.292983
 20
7.398004
 40
0.000000
 41
0.000000
 42
0.000000
  0
VERTEX
  8
PIN_BOTTOM
 10
5.492877
 20
7.398004
 40
0.000000
 41
0.000000
 42
0.000000
  0
VERTEX
  8
PIN_BOTTOM
 10
5.492877
 20
8.597900
 40
0.000000
 41
0.000000
 42
0.000000
  0
VERTEX
  8
PIN_BOTTOM
 10
3.292983
 20
8.597900
 40
0.000000
 41
0.000000
 42
0.000000
  0
SEQEND
  0
POLYLINE
  8
PIN_BOTTOM
 66
1
 70
1
 40
0.000000
 41
0.000000
 39
0.000000
  0
VERTEX
  8
PIN_BOTTOM
 10
3.292983
 20
22.898100
 40
0.000000
 41
0.000000
 42
0.000000
  0
VERTEX
  8
PIN_BOTTOM
 10
5.492877
 20
22.898100
 40
0.000000
 41
0.000000
 42
0.000000
  0
VERTEX
  8
PIN_BOTTOM
 10
5.492877
 20
24.097996
 40
0.000000
 41
0.000000
 42
0.000000
  0
VERTEX
  8
PIN_BOTTOM
 10
3.292983
 20
24.097996
 40
0.000000
 41
0.000000
 42
0.000000
  0
SEQEND
  0
POLYLINE
  8
PIN_BOTTOM
 66
1
 70
1
 40
0.000000
 41
0.000000
 39
0.000000
  0
VERTEX
  8
PIN_BOTTOM
 10
13.893038
 20
17.647920
 40
0.000000
 41
0.000000
 42
0.000000
  0
VERTEX
  8
PIN_BOTTOM
 10
15.293086
 20
17.647920
 40
0.000000
 41
0.000000
 42
0.000000
  0
VERTEX
  8
PIN_BOTTOM
 10
15.293086
 20
18.347944
 40
0.000000
 41
0.000000
 42
0.000000
  0
VERTEX
  8
PIN_BOTTOM
 10
13.893038
 20
18.347944
 40
0.000000
 41
0.000000
 42
0.000000
  0
SEQEND
  0
POLYLINE
  8
PIN_BOTTOM
 66
1
 70
1
 40
0.000000
 41
0.000000
 39
0.000000
  0
VERTEX
  8
PIN_BOTTOM
 10
13.893038
 20
16.548100
 40
0.000000
 41
0.000000
 42
0.000000
  0
VERTEX
  8
PIN_BOTTOM
 10
15.293086
 20
16.548100
 40
0.000000
 41
0.000000
 42
0.000000
  0
VERTEX
  8
PIN_BOTTOM
 10
15.293086
 20
17.248124
 40
0.000000
 41
0.000000
 42
0.000000
  0
VERTEX
  8
PIN_BOTTOM
 10
13.893038
 20
17.248124
 40
0.000000
 41
0.000000
 42
0.000000
  0
SEQEND
  0
POLYLINE
  8
PIN_BOTTOM
 66
1
 70
1
 40
0.000000
 41
0.000000
 39
0.000000
  0
VERTEX
  8
PIN_BOTTOM
 10
13.893038
 20
15.448026
 40
0.000000
 41
0.000000
 42
0.000000
  0
VERTEX
  8
PIN_BOTTOM
 10
15.293086
 20
15.448026
 40
0.000000
 41
0.000000
 42
0.000000
  0
VERTEX
  8
PIN_BOTTOM
 10
15.293086
 20
16.148050
 40
0.000000
 41
0.000000
 42
0.000000
  0
VERTEX
  8
PIN_BOTTOM
 10
13.893038
 20
16.148050
 40
0.000000
 41
0.000000
 42
0.000000
  0
SEQEND
  0
POLYLINE
  8
PIN_BOTTOM
 66
1
 70
1
 40
0.000000
 41
0.000000
 39
0.000000
  0
VERTEX
  8
PIN_BOTTOM
 10
13.893038
 20
14.347952
 40
0.000000
 41
0.000000
 42
0.000000
  0
VERTEX
  8
PIN_BOTTOM
 10
15.293086
 20
14.347952
 40
0.000000
 41
0.000000
 42
0.000000
  0
VERTEX
  8
PIN_BOTTOM
 10
15.293086
 20
15.047976
 40
0.000000
 41
0.000000
 42
0.000000
  0
VERTEX
  8
PIN_BOTTOM
 10
13.893038
 20
15.047976
 40
0.000000
 41
0.000000
 42
0.000000
  0
SEQEND
  0
POLYLINE
  8
PIN_BOTTOM
 66
1
 70
1
 40
0.000000
 41
0.000000
 39
0.000000
  0
VERTEX
  8
PIN_BOTTOM
 10
13.893038
 20
13.247878
 40
0.000000
 41
0.000000
 42
0.000000
  0
VERTEX
  8
PIN_BOTTOM
 10
15.293086
 20
13.247878
 40
0.000000
 41
0.000000
 42
0.000000
  0
VERTEX
  8
PIN_BOTTOM
 10
15.293086
 20
13.947902
 40
0.000000
 41
0.000000
 42
0.000000
  0
VERTEX
  8
PIN_BOTTOM
 10
13.893038
 20
13.947902
 40
0.000000
 41
0.000000
 42
0.000000
  0
SEQEND
  0
POLYLINE
  8
PIN_BOTTOM
 66
1
 70
1
 40
0.000000
 41
0.000000
 39
0.000000
  0
VERTEX
  8
PIN_BOTTOM
 10
13.893038
 20
12.148058
 40
0.000000
 41
0.000000
 42
0.000000
  0
VERTEX
  8
PIN_BOTTOM
 10
15.293086
 20
12.148058
 40
0.000000
 41
0.000000
 42
0.000000
  0
VERTEX
  8
PIN_BOTTOM
 10
15.293086
 20
12.848082
 40
0.000000
 41
0.000000
 42
0.000000
  0
VERTEX
  8
PIN_BOTTOM
 10
13.893038
 20
12.848082
 40
0.000000
 41
0.000000
 42
0.000000
  0
SEQEND
  0
POLYLINE
  8
PIN_BOTTOM
 66
1
 70
1
 40
0.000000
 41
0.000000
 39
0.000000
  0
VERTEX
  8
PIN_BOTTOM
 10
13.893038
 20
11.047984
 40
0.000000
 41
0.000000
 42
0.000000
  0
VERTEX
  8
PIN_BOTTOM
 10
15.293086
 20
11.047984
 40
0.000000
 41
0.000000
 42
0.000000
  0
VERTEX
  8
PIN_BOTTOM
 10
15.293086
 20
11.748008
 40
0.000000
 41
0.000000
 42
0.000000
  0
VERTEX
  8
PIN_BOTTOM
 10
13.893038
 20
11.748008
 40
0.000000
 41
0.000000
 42
0.000000
  0
SEQEND
  0
POLYLINE
  8
PIN_BOTTOM
 66
1
 70
1
 40
0.000000
 41
0.000000
 39
0.000000
  0
VERTEX
  8
PIN_BOTTOM
 10
13.893038
 20
9.947910
 40
0.000000
 41
0.000000
 42
0.000000
  0
VERTEX
  8
PIN_BOTTOM
 10
15.293086
 20
9.947910
 40
0.000000
 41
0.000000
 42
0.000000
  0
VERTEX
  8
PIN_BOTTOM
 10
15.293086
 20
10.647934
 40
0.000000
 41
0.000000
 42
0.000000
  0
VERTEX
  8
PIN_BOTTOM
 10
13.893038
 20
10.647934
 40
0.000000
 41
0.000000
 42
0.000000
  0
SEQEND
  0
POLYLINE
  8
PIN_BOTTOM
 66
1
 70
1
 40
0.000000
 41
0.000000
 39
0.000000
  0
VERTEX
  8
PIN_BOTTOM
 10
13.893038
 20
8.848090
 40
0.000000
 41
0.000000
 42
0.000000
  0
VERTEX
  8
PIN_BOTTOM
 10
15.293086
 20
8.848090
 40
0.000000
 41
0.000000
 42
0.000000
  0
VERTEX
  8
PIN_BOTTOM
 10
15.293086
 20
9.548114
 40
0.000000
 41
0.000000
 42
0.000000
  0
VERTEX
  8
PIN_BOTTOM
 10
13.893038
 20
9.548114
 40
0.000000
 41
0.000000
 42
0.000000
  0
SEQEND
  0
POLYLINE
  8
PG_SILKSCREEN_BOTTOM
 66
1
 70
0
 40
0.000000
 41
0.000000
 39
0.000000
  0
VERTEX
  8
PG_SILKSCREEN_BOTTOM
 10
0.692912
 20
8.247888
 40
0.150114
 41
0.150114
 42
0.000000
  0
VERTEX
  8
PG_SILKSCREEN_BOTTOM
 10
0.692912
 20
16.047974
 40
0.150114
 41
0.150114
 42
0.000000
  0
VERTEX
  8
PG_SILKSCREEN_BOTTOM
 10
-0.007112
 20
20.448016
 40
0.150114
 41
0.150114
 42
0.000000
  0
VERTEX
  8
PG_SILKSCREEN_BOTTOM
 10
-0.007112
 20
23.248112
 40
0.150114
 41
0.150114
 42
0.000000
  0
VERTEX
  8
PG_SILKSCREEN_BOTTOM
 10
14.993112
 20
23.248112
 40
0.150114
 41
0.150114
 42
0.000000
  0
VERTEX
  8
PG_SILKSCREEN_BOTTOM
 10
14.993112
 20
8.247888
 40
0.150114
 41
0.150114
 42
0.000000
  0
VERTEX
  8
PG_SILKSCREEN_BOTTOM
 10
0.692912
 20
8.247888
 40
0.150114
 41
0.150114
 42
0.000000
  0
SEQEND
  0
POLYLINE
  8
PG_SILKSCREEN_BOTTOM
 66
1
 70
0
 40
0.000000
 41
0.000000
 39
0.000000
  0
VERTEX
  8
PG_SILKSCREEN_BOTTOM
 10
-0.706882
 20
20.448016
 40
0.150114
 41
0.150114
 42
0.414352
  0
VERTEX
  8
PG_SILKSCREEN_BOTTOM
 10
-1.207008
 20
19.947890
 40
0.150114
 41
0.150114
 42
0.000000
  0
SEQEND
  0
POLYLINE
  8
PG_SILKSCREEN_BOTTOM
 66
1
 70
0
 40
0.000000
 41
0.000000
 39
0.000000
  0
VERTEX
  8
PG_SILKSCREEN_BOTTOM
 10
-1.207008
 20
19.947890
 40
0.150114
 41
0.150114
 42
0.000000
  0
VERTEX
  8
PG_SILKSCREEN_BOTTOM
 10
-1.207008
 20
9.448038
 40
0.150114
 41
0.150114
 42
0.000000
  0
SEQEND
  0
POLYLINE
  8
PG_SILKSCREEN_BOTTOM
 66
1
 70
0
 40
0.000000
 41
0.000000
 39
0.000000
  0
VERTEX
  8
PG_SILKSCREEN_BOTTOM
 10
-0.007112
 20
20.448016
 40
0.150114
 41
0.150114
 42
0.000000
  0
VERTEX
  8
PG_SILKSCREEN_BOTTOM
 10
-0.706882
 20
20.448016
 40
0.150114
 41
0.150114
 42
0.000000
  0
SEQEND
  0
POLYLINE
  8
PG_SILKSCREEN_BOTTOM
 66
1
 70
0
 40
0.000000
 41
0.000000
 39
0.000000
  0
VERTEX
  8
PG_SILKSCREEN_BOTTOM
 10
-0.607060
 20
20.448016
 40
0.150114
 41
0.150114
 42
0.000000
  0
VERTEX
  8
PG_SILKSCREEN_BOTTOM
 10
-1.706880
 20
20.448016
 40
0.150114
 41
0.150114
 42
0.000000
  0
SEQEND
  0
POLYLINE
  8
PG_SILKSCREEN_BOTTOM
 66
1
 70
0
 40
0.000000
 41
0.000000
 39
0.000000
  0
VERTEX
  8
PG_SILKSCREEN_BOTTOM
 10
-2.207006
 20
19.947890
 40
0.150114
 41
0.150114
 42
0.000000
  0
VERTEX
  8
PG_SILKSCREEN_BOTTOM
 10
-2.207006
 20
9.448038
 40
0.150114
 41
0.150114
 42
0.000000
  0
SEQEND
  0
POLYLINE
  8
PG_SILKSCREEN_BOTTOM
 66
1
 70
0
 40
0.000000
 41
0.000000
 39
0.000000
  0
VERTEX
  8
PG_SILKSCREEN_BOTTOM
 10
-1.706880
 20
20.448016
 40
0.150114
 41
0.150114
 42
0.414353
  0
VERTEX
  8
PG_SILKSCREEN_BOTTOM
 10
-2.207006
 20
19.947890
 40
0.150114
 41
0.150114
 42
0.000000
  0
SEQEND
  0
POLYLINE
  8
PG_SILKSCREEN_BOTTOM
 66
1
 70
0
 40
0.000000
 41
0.000000
 39
0.000000
  0
VERTEX
  8
PG_SILKSCREEN_BOTTOM
 10
-1.706880
 20
20.448016
 40
0.150114
 41
0.150114
 42
0.000000
  0
VERTEX
  8
PG_SILKSCREEN_BOTTOM
 10
-4.706874
 20
20.448016
 40
0.150114
 41
0.150114
 42
0.000000
  0
SEQEND
  0
POLYLINE
  8
PG_SILKSCREEN_BOTTOM
 66
1
 70
0
 40
0.000000
 41
0.000000
 39
0.000000
  0
VERTEX
  8
PG_SILKSCREEN_BOTTOM
 10
-5.207000
 20
19.947890
 40
0.150114
 41
0.150114
 42
0.000000
  0
VERTEX
  8
PG_SILKSCREEN_BOTTOM
 10
-5.207000
 20
9.448038
 40
0.150114
 41
0.150114
 42
0.000000
  0
SEQEND
  0
POLYLINE
  8
PG_SILKSCREEN_BOTTOM
 66
1
 70
0
 40
0.000000
 41
0.000000
 39
0.000000
  0
VERTEX
  8
PG_SILKSCREEN_BOTTOM
 10
-4.706874
 20
20.448016
 40
0.150114
 41
0.150114
 42
0.414355
  0
VERTEX
  8
PG_SILKSCREEN_BOTTOM
 10
-5.207000
 20
19.947890
 40
0.150114
 41
0.150114
 42
0.000000
  0
SEQEND
  0
POLYLINE
  8
PG_SILKSCREEN_BOTTOM
 66
1
 70
0
 40
0.000000
 41
0.000000
 39
0.000000
  0
VERTEX
  8
PG_SILKSCREEN_BOTTOM
 10
-5.207000
 20
9.448038
 40
0.150114
 41
0.150114
 42
0.414327
  0
VERTEX
  8
PG_SILKSCREEN_BOTTOM
 10
-4.706874
 20
8.947912
 40
0.150114
 41
0.150114
 42
0.000000
  0
SEQEND
  0
POLYLINE
  8
PG_SILKSCREEN_BOTTOM
 66
1
 70
0
 40
0.000000
 41
0.000000
 39
0.000000
  0
VERTEX
  8
PG_SILKSCREEN_BOTTOM
 10
-4.706874
 20
8.947912
 40
0.150114
 41
0.150114
 42
0.000000
  0
VERTEX
  8
PG_SILKSCREEN_BOTTOM
 10
-1.706880
 20
8.947912
 40
0.150114
 41
0.150114
 42
0.000000
  0
SEQEND
  0
POLYLINE
  8
PG_SILKSCREEN_BOTTOM
 66
1
 70
0
 40
0.000000
 41
0.000000
 39
0.000000
  0
VERTEX
  8
PG_SILKSCREEN_BOTTOM
 10
-2.207006
 20
9.448038
 40
0.150114
 41
0.150114
 42
0.414324
  0
VERTEX
  8
PG_SILKSCREEN_BOTTOM
 10
-1.706880
 20
8.947912
 40
0.150114
 41
0.150114
 42
0.000000
  0
SEQEND
  0
POLYLINE
  8
PG_SILKSCREEN_BOTTOM
 66
1
 70
0
 40
0.000000
 41
0.000000
 39
0.000000
  0
VERTEX
  8
PG_SILKSCREEN_BOTTOM
 10
-1.706880
 20
8.947912
 40
0.150114
 41
0.150114
 42
0.000000
  0
VERTEX
  8
PG_SILKSCREEN_BOTTOM
 10
-0.706882
 20
8.947912
 40
0.150114
 41
0.150114
 42
0.000000
  0
SEQEND
  0
POLYLINE
  8
PG_SILKSCREEN_BOTTOM
 66
1
 70
0
 40
0.000000
 41
0.000000
 39
0.000000
  0
VERTEX
  8
PG_SILKSCREEN_BOTTOM
 10
-1.207008
 20
9.448038
 40
0.150114
 41
0.150114
 42
0.414324
  0
VERTEX
  8
PG_SILKSCREEN_BOTTOM
 10
-0.706882
 20
8.947912
 40
0.150114
 41
0.150114
 42
0.000000
  0
SEQEND
  0
POLYLINE
  8
PG_SILKSCREEN_BOTTOM
 66
1
 70
0
 40
0.000000
 41
0.000000
 39
0.000000
  0
VERTEX
  8
PG_SILKSCREEN_BOTTOM
 10
-0.706882
 20
8.947912
 40
0.150114
 41
0.150114
 42
0.000000
  0
VERTEX
  8
PG_SILKSCREEN_BOTTOM
 10
0.692912
 20
8.947912
 40
0.150114
 41
0.150114
 42
0.000000
  0
SEQEND
  0
TEXT
  8
RD_SILKSCREEN_BOTTOM
 10
16.256000
 20
18.923000
 11
0.000000
 21
0.000000
 40
0.762000
 41
0.833333
 50
270.000000
  7
STANDARD
 71
2
 72
0
  1
J4
 73
0
  0
POLYLINE
  8
PIN_TOP
 66
1
 70
1
 40
0.000000
 41
0.000000
 39
0.000000
  0
VERTEX
  8
PIN_TOP
 10
6.070854
 20
27.076908
 40
0.000000
 41
0.000000
 42
0.000000
  0
VERTEX
  8
PIN_TOP
 10
7.239254
 20
27.076908
 40
0.000000
 41
0.000000
 42
0.000000
  0
VERTEX
  8
PIN_TOP
 10
7.239254
 20
26.467308
 40
0.000000
 41
0.000000
 42
0.000000
  0
VERTEX
  8
PIN_TOP
 10
6.070854
 20
26.467308
 40
0.000000
 41
0.000000
 42
0.000000
  0
SEQEND
  0
POLYLINE
  8
PIN_TOP
 66
1
 70
1
 40
0.000000
 41
0.000000
 39
0.000000
  0
VERTEX
  8
PIN_TOP
 10
6.070854
 20
27.876754
 40
0.000000
 41
0.000000
 42
0.000000
  0
VERTEX
  8
PIN_TOP
 10
7.239254
 20
27.876754
 40
0.000000
 41
0.000000
 42
0.000000
  0
VERTEX
  8
PIN_TOP
 10
7.239254
 20
27.267154
 40
0.000000
 41
0.000000
 42
0.000000
  0
VERTEX
  8
PIN_TOP
 10
6.070854
 20
27.267154
 40
0.000000
 41
0.000000
 42
0.000000
  0
SEQEND
  0
POLYLINE
  8
PIN_TOP
 66
1
 70
1
 40
0.000000
 41
0.000000
 39
0.000000
  0
VERTEX
  8
PIN_TOP
 10
6.070854
 20
28.374340
 40
0.000000
 41
0.000000
 42
0.000000
  0
VERTEX
  8
PIN_TOP
 10
7.239254
 20
28.374340
 40
0.000000
 41
0.000000
 42
0.000000
  0
VERTEX
  8
PIN_TOP
 10
7.239254
 20
28.069540
 40
0.000000
 41
0.000000
 42
0.000000
  0
VERTEX
  8
PIN_TOP
 10
6.070854
 20
28.069540
 40
0.000000
 41
0.000000
 42
0.000000
  0
SEQEND
  0
POLYLINE
  8
PIN_TOP
 66
1
 70
1
 40
0.000000
 41
0.000000
 39
0.000000
  0
VERTEX
  8
PIN_TOP
 10
6.070854
 20
28.874466
 40
0.000000
 41
0.000000
 42
0.000000
  0
VERTEX
  8
PIN_TOP
 10
7.239254
 20
28.874466
 40
0.000000
 41
0.000000
 42
0.000000
  0
VERTEX
  8
PIN_TOP
 10
7.239254
 20
28.569666
 40
0.000000
 41
0.000000
 42
0.000000
  0
VERTEX
  8
PIN_TOP
 10
6.070854
 20
28.569666
 40
0.000000
 41
0.000000
 42
0.000000
  0
SEQEND
  0
POLYLINE
  8
PIN_TOP
 66
1
 70
1
 40
0.000000
 41
0.000000
 39
0.000000
  0
VERTEX
  8
PIN_TOP
 10
6.070854
 20
29.374338
 40
0.000000
 41
0.000000
 42
0.000000
  0
VERTEX
  8
PIN_TOP
 10
7.239254
 20
29.374338
 40
0.000000
 41
0.000000
 42
0.000000
  0
VERTEX
  8
PIN_TOP
 10
7.239254
 20
29.069538
 40
0.000000
 41
0.000000
 42
0.000000
  0
VERTEX
  8
PIN_TOP
 10
6.070854
 20
29.069538
 40
0.000000
 41
0.000000
 42
0.000000
  0
SEQEND
  0
POLYLINE
  8
PIN_TOP
 66
1
 70
1
 40
0.000000
 41
0.000000
 39
0.000000
  0
VERTEX
  8
PIN_TOP
 10
6.070854
 20
29.874464
 40
0.000000
 41
0.000000
 42
0.000000
  0
VERTEX
  8
PIN_TOP
 10
7.239254
 20
29.874464
 40
0.000000
 41
0.000000
 42
0.000000
  0
VERTEX
  8
PIN_TOP
 10
7.239254
 20
29.569664
 40
0.000000
 41
0.000000
 42
0.000000
  0
VERTEX
  8
PIN_TOP
 10
6.070854
 20
29.569664
 40
0.000000
 41
0.000000
 42
0.000000
  0
SEQEND
  0
POLYLINE
  8
PIN_TOP
 66
1
 70
1
 40
0.000000
 41
0.000000
 39
0.000000
  0
VERTEX
  8
PIN_TOP
 10
6.070854
 20
30.374336
 40
0.000000
 41
0.000000
 42
0.000000
  0
VERTEX
  8
PIN_TOP
 10
7.239254
 20
30.374336
 40
0.000000
 41
0.000000
 42
0.000000
  0
VERTEX
  8
PIN_TOP
 10
7.239254
 20
30.069536
 40
0.000000
 41
0.000000
 42
0.000000
  0
VERTEX
  8
PIN_TOP
 10
6.070854
 20
30.069536
 40
0.000000
 41
0.000000
 42
0.000000
  0
SEQEND
  0
POLYLINE
  8
PIN_TOP
 66
1
 70
1
 40
0.000000
 41
0.000000
 39
0.000000
  0
VERTEX
  8
PIN_TOP
 10
6.070854
 20
30.874462
 40
0.000000
 41
0.000000
 42
0.000000
  0
VERTEX
  8
PIN_TOP
 10
7.239254
 20
30.874462
 40
0.000000
 41
0.000000
 42
0.000000
  0
VERTEX
  8
PIN_TOP
 10
7.239254
 20
30.569662
 40
0.000000
 41
0.000000
 42
0.000000
  0
VERTEX
  8
PIN_TOP
 10
6.070854
 20
30.569662
 40
0.000000
 41
0.000000
 42
0.000000
  0
SEQEND
  0
POLYLINE
  8
PIN_TOP
 66
1
 70
1
 40
0.000000
 41
0.000000
 39
0.000000
  0
VERTEX
  8
PIN_TOP
 10
6.070854
 20
31.374334
 40
0.000000
 41
0.000000
 42
0.000000
  0
VERTEX
  8
PIN_TOP
 10
7.239254
 20
31.374334
 40
0.000000
 41
0.000000
 42
0.000000
  0
VERTEX
  8
PIN_TOP
 10
7.239254
 20
31.069534
 40
0.000000
 41
0.000000
 42
0.000000
  0
VERTEX
  8
PIN_TOP
 10
6.070854
 20
31.069534
 40
0.000000
 41
0.000000
 42
0.000000
  0
SEQEND
  0
POLYLINE
  8
PIN_TOP
 66
1
 70
1
 40
0.000000
 41
0.000000
 39
0.000000
  0
VERTEX
  8
PIN_TOP
 10
6.070854
 20
31.874460
 40
0.000000
 41
0.000000
 42
0.000000
  0
VERTEX
  8
PIN_TOP
 10
7.239254
 20
31.874460
 40
0.000000
 41
0.000000
 42
0.000000
  0
VERTEX
  8
PIN_TOP
 10
7.239254
 20
31.569660
 40
0.000000
 41
0.000000
 42
0.000000
  0
VERTEX
  8
PIN_TOP
 10
6.070854
 20
31.569660
 40
0.000000
 41
0.000000
 42
0.000000
  0
SEQEND
  0
POLYLINE
  8
PIN_TOP
 66
1
 70
1
 40
0.000000
 41
0.000000
 39
0.000000
  0
VERTEX
  8
PIN_TOP
 10
6.070854
 20
32.676846
 40
0.000000
 41
0.000000
 42
0.000000
  0
VERTEX
  8
PIN_TOP
 10
7.239254
 20
32.676846
 40
0.000000
 41
0.000000
 42
0.000000
  0
VERTEX
  8
PIN_TOP
 10
7.239254
 20
32.067246
 40
0.000000
 41
0.000000
 42
0.000000
  0
VERTEX
  8
PIN_TOP
 10
6.070854
 20
32.067246
 40
0.000000
 41
0.000000
 42
0.000000
  0
SEQEND
  0
POLYLINE
  8
PIN_TOP
 66
1
 70
1
 40
0.000000
 41
0.000000
 39
0.000000
  0
VERTEX
  8
PIN_TOP
 10
6.070854
 20
33.476692
 40
0.000000
 41
0.000000
 42
0.000000
  0
VERTEX
  8
PIN_TOP
 10
7.239254
 20
33.476692
 40
0.000000
 41
0.000000
 42
0.000000
  0
VERTEX
  8
PIN_TOP
 10
7.239254
 20
32.867092
 40
0.000000
 41
0.000000
 42
0.000000
  0
VERTEX
  8
PIN_TOP
 10
6.070854
 20
32.867092
 40
0.000000
 41
0.000000
 42
0.000000
  0
SEQEND
  0
CIRCLE
  8
PIN_TOP
 10
5.554980
 20
32.862012
 40
0.317500
  0
CIRCLE
  8
PIN_BOTTOM
 10
5.554980
 20
32.862012
 40
0.317500
  0
CIRCLE
  8
PIN_TOP
 10
5.554980
 20
27.081988
 40
0.317500
  0
CIRCLE
  8
PIN_BOTTOM
 10
5.554980
 20
27.081988
 40
0.317500
  0
POLYLINE
  8
PIN_TOP
 66
1
 70
1
 40
0.000000
 41
0.000000
 39
0.000000
  0
VERTEX
  8
PIN_TOP
 10
6.613906
 20
33.784032
 40
0.000000
 41
0.000000
 42
0.000000
  0
VERTEX
  8
PIN_TOP
 10
5.496306
 20
33.784032
 40
0.000000
 41
0.000000
 42
-1.000000
  0
VERTEX
  8
PIN_TOP
 10
5.496306
 20
34.800032
 40
0.000000
 41
0.000000
 42
0.000000
  0
VERTEX
  8
PIN_TOP
 10
6.613906
 20
34.800032
 40
0.000000
 41
0.000000
 42
-1.000000
  0
SEQEND
  0
POLYLINE
  8
PIN_BOTTOM
 66
1
 70
1
 40
0.000000
 41
0.000000
 39
0.000000
  0
VERTEX
  8
PIN_BOTTOM
 10
6.613906
 20
33.784032
 40
0.000000
 41
0.000000
 42
0.000000
  0
VERTEX
  8
PIN_BOTTOM
 10
5.496306
 20
33.784032
 40
0.000000
 41
0.000000
 42
-1.000000
  0
VERTEX
  8
PIN_BOTTOM
 10
5.496306
 20
34.800032
 40
0.000000
 41
0.000000
 42
0.000000
  0
VERTEX
  8
PIN_BOTTOM
 10
6.613906
 20
34.800032
 40
0.000000
 41
0.000000
 42
-1.000000
  0
SEQEND
  0
POLYLINE
  8
PIN_TOP
 66
1
 70
1
 40
0.000000
 41
0.000000
 39
0.000000
  0
VERTEX
  8
PIN_TOP
 10
6.613906
 20
25.143968
 40
0.000000
 41
0.000000
 42
0.000000
  0
VERTEX
  8
PIN_TOP
 10
5.496306
 20
25.143968
 40
0.000000
 41
0.000000
 42
-1.000000
  0
VERTEX
  8
PIN_TOP
 10
5.496306
 20
26.159968
 40
0.000000
 41
0.000000
 42
0.000000
  0
VERTEX
  8
PIN_TOP
 10
6.613906
 20
26.159968
 40
0.000000
 41
0.000000
 42
-1.000000
  0
SEQEND
  0
POLYLINE
  8
PIN_BOTTOM
 66
1
 70
1
 40
0.000000
 41
0.000000
 39
0.000000
  0
VERTEX
  8
PIN_BOTTOM
 10
6.613906
 20
25.143968
 40
0.000000
 41
0.000000
 42
0.000000
  0
VERTEX
  8
PIN_BOTTOM
 10
5.496306
 20
25.143968
 40
0.000000
 41
0.000000
 42
-1.000000
  0
VERTEX
  8
PIN_BOTTOM
 10
5.496306
 20
26.159968
 40
0.000000
 41
0.000000
 42
0.000000
  0
VERTEX
  8
PIN_BOTTOM
 10
6.613906
 20
26.159968
 40
0.000000
 41
0.000000
 42
-1.000000
  0
SEQEND
  0
POLYLINE
  8
PIN_TOP
 66
1
 70
1
 40
0.000000
 41
0.000000
 39
0.000000
  0
VERTEX
  8
PIN_TOP
 10
2.311400
 20
33.784032
 40
0.000000
 41
0.000000
 42
0.000000
  0
VERTEX
  8
PIN_TOP
 10
1.498600
 20
33.784032
 40
0.000000
 41
0.000000
 42
-1.000000
  0
VERTEX
  8
PIN_TOP
 10
1.498600
 20
34.800032
 40
0.000000
 41
0.000000
 42
0.000000
  0
VERTEX
  8
PIN_TOP
 10
2.311400
 20
34.800032
 40
0.000000
 41
0.000000
 42
-1.000000
  0
SEQEND
  0
POLYLINE
  8
PIN_BOTTOM
 66
1
 70
1
 40
0.000000
 41
0.000000
 39
0.000000
  0
VERTEX
  8
PIN_BOTTOM
 10
2.311400
 20
33.784032
 40
0.000000
 41
0.000000
 42
0.000000
  0
VERTEX
  8
PIN_BOTTOM
 10
1.498600
 20
33.784032
 40
0.000000
 41
0.000000
 42
-1.000000
  0
VERTEX
  8
PIN_BOTTOM
 10
1.498600
 20
34.800032
 40
0.000000
 41
0.000000
 42
0.000000
  0
VERTEX
  8
PIN_BOTTOM
 10
2.311400
 20
34.800032
 40
0.000000
 41
0.000000
 42
-1.000000
  0
SEQEND
  0
POLYLINE
  8
PIN_TOP
 66
1
 70
1
 40
0.000000
 41
0.000000
 39
0.000000
  0
VERTEX
  8
PIN_TOP
 10
2.311400
 20
25.143968
 40
0.000000
 41
0.000000
 42
0.000000
  0
VERTEX
  8
PIN_TOP
 10
1.498600
 20
25.143968
 40
0.000000
 41
0.000000
 42
-1.000000
  0
VERTEX
  8
PIN_TOP
 10
1.498600
 20
26.159968
 40
0.000000
 41
0.000000
 42
0.000000
  0
VERTEX
  8
PIN_TOP
 10
2.311400
 20
26.159968
 40
0.000000
 41
0.000000
 42
-1.000000
  0
SEQEND
  0
POLYLINE
  8
PIN_BOTTOM
 66
1
 70
1
 40
0.000000
 41
0.000000
 39
0.000000
  0
VERTEX
  8
PIN_BOTTOM
 10
2.311400
 20
25.143968
 40
0.000000
 41
0.000000
 42
0.000000
  0
VERTEX
  8
PIN_BOTTOM
 10
1.498600
 20
25.143968
 40
0.000000
 41
0.000000
 42
-1.000000
  0
VERTEX
  8
PIN_BOTTOM
 10
1.498600
 20
26.159968
 40
0.000000
 41
0.000000
 42
0.000000
  0
VERTEX
  8
PIN_BOTTOM
 10
2.311400
 20
26.159968
 40
0.000000
 41
0.000000
 42
-1.000000
  0
SEQEND
  0
POLYLINE
  8
PG_SILKSCREEN_TOP
 66
1
 70
0
 40
0.000000
 41
0.000000
 39
0.000000
  0
VERTEX
  8
PG_SILKSCREEN_TOP
 10
4.754880
 20
34.472118
 40
0.150114
 41
0.150114
 42
0.000000
  0
VERTEX
  8
PG_SILKSCREEN_TOP
 10
3.154934
 20
34.472118
 40
0.150114
 41
0.150114
 42
0.000000
  0
SEQEND
  0
POLYLINE
  8
PG_SILKSCREEN_TOP
 66
1
 70
0
 40
0.000000
 41
0.000000
 39
0.000000
  0
VERTEX
  8
PG_SILKSCREEN_TOP
 10
3.154934
 20
25.471882
 40
0.150114
 41
0.150114
 42
0.000000
  0
VERTEX
  8
PG_SILKSCREEN_TOP
 10
4.754880
 20
25.471882
 40
0.150114
 41
0.150114
 42
0.000000
  0
SEQEND
  0
POLYLINE
  8
PG_SILKSCREEN_TOP
 66
1
 70
0
 40
0.000000
 41
0.000000
 39
0.000000
  0
VERTEX
  8
PG_SILKSCREEN_TOP
 10
0.754888
 20
34.472118
 40
0.150114
 41
0.150114
 42
0.000000
  0
VERTEX
  8
PG_SILKSCREEN_TOP
 10
-0.694944
 20
34.472118
 40
0.150114
 41
0.150114
 42
0.000000
  0
VERTEX
  8
PG_SILKSCREEN_TOP
 10
-0.694944
 20
25.471882
 40
0.150114
 41
0.150114
 42
0.000000
  0
VERTEX
  8
PG_SILKSCREEN_TOP
 10
0.754888
 20
25.471882
 40
0.150114
 41
0.150114
 42
0.000000
  0
SEQEND
  0
TEXT
  8
RD_SILKSCREEN_TOP
 10
6.502400
 20
36.474400
 11
0.000000
 21
0.000000
 40
0.762000
 41
0.833333
 50
0.000000
  7
STANDARD
 71
0
 72
0
  1
J3
 73
0
  0
POLYLINE
  8
PIN_TOP
 66
1
 70
1
 40
0.000000
 41
0.000000
 39
0.000000
  0
VERTEX
  8
PIN_TOP
 10
6.070854
 20
39.649908
 40
0.000000
 41
0.000000
 42
0.000000
  0
VERTEX
  8
PIN_TOP
 10
7.239254
 20
39.649908
 40
0.000000
 41
0.000000
 42
0.000000
  0
VERTEX
  8
PIN_TOP
 10
7.239254
 20
39.040308
 40
0.000000
 41
0.000000
 42
0.000000
  0
VERTEX
  8
PIN_TOP
 10
6.070854
 20
39.040308
 40
0.000000
 41
0.000000
 42
0.000000
  0
SEQEND
  0
POLYLINE
  8
PIN_TOP
 66
1
 70
1
 40
0.000000
 41
0.000000
 39
0.000000
  0
VERTEX
  8
PIN_TOP
 10
6.070854
 20
40.449754
 40
0.000000
 41
0.000000
 42
0.000000
  0
VERTEX
  8
PIN_TOP
 10
7.239254
 20
40.449754
 40
0.000000
 41
0.000000
 42
0.000000
  0
VERTEX
  8
PIN_TOP
 10
7.239254
 20
39.840154
 40
0.000000
 41
0.000000
 42
0.000000
  0
VERTEX
  8
PIN_TOP
 10
6.070854
 20
39.840154
 40
0.000000
 41
0.000000
 42
0.000000
  0
SEQEND
  0
POLYLINE
  8
PIN_TOP
 66
1
 70
1
 40
0.000000
 41
0.000000
 39
0.000000
  0
VERTEX
  8
PIN_TOP
 10
6.070854
 20
40.947340
 40
0.000000
 41
0.000000
 42
0.000000
  0
VERTEX
  8
PIN_TOP
 10
7.239254
 20
40.947340
 40
0.000000
 41
0.000000
 42
0.000000
  0
VERTEX
  8
PIN_TOP
 10
7.239254
 20
40.642540
 40
0.000000
 41
0.000000
 42
0.000000
  0
VERTEX
  8
PIN_TOP
 10
6.070854
 20
40.642540
 40
0.000000
 41
0.000000
 42
0.000000
  0
SEQEND
  0
POLYLINE
  8
PIN_TOP
 66
1
 70
1
 40
0.000000
 41
0.000000
 39
0.000000
  0
VERTEX
  8
PIN_TOP
 10
6.070854
 20
41.447466
 40
0.000000
 41
0.000000
 42
0.000000
  0
VERTEX
  8
PIN_TOP
 10
7.239254
 20
41.447466
 40
0.000000
 41
0.000000
 42
0.000000
  0
VERTEX
  8
PIN_TOP
 10
7.239254
 20
41.142666
 40
0.000000
 41
0.000000
 42
0.000000
  0
VERTEX
  8
PIN_TOP
 10
6.070854
 20
41.142666
 40
0.000000
 41
0.000000
 42
0.000000
  0
SEQEND
  0
POLYLINE
  8
PIN_TOP
 66
1
 70
1
 40
0.000000
 41
0.000000
 39
0.000000
  0
VERTEX
  8
PIN_TOP
 10
6.070854
 20
41.947338
 40
0.000000
 41
0.000000
 42
0.000000
  0
VERTEX
  8
PIN_TOP
 10
7.239254
 20
41.947338
 40
0.000000
 41
0.000000
 42
0.000000
  0
VERTEX
  8
PIN_TOP
 10
7.239254
 20
41.642538
 40
0.000000
 41
0.000000
 42
0.000000
  0
VERTEX
  8
PIN_TOP
 10
6.070854
 20
41.642538
 40
0.000000
 41
0.000000
 42
0.000000
  0
SEQEND
  0
POLYLINE
  8
PIN_TOP
 66
1
 70
1
 40
0.000000
 41
0.000000
 39
0.000000
  0
VERTEX
  8
PIN_TOP
 10
6.070854
 20
42.447464
 40
0.000000
 41
0.000000
 42
0.000000
  0
VERTEX
  8
PIN_TOP
 10
7.239254
 20
42.447464
 40
0.000000
 41
0.000000
 42
0.000000
  0
VERTEX
  8
PIN_TOP
 10
7.239254
 20
42.142664
 40
0.000000
 41
0.000000
 42
0.000000
  0
VERTEX
  8
PIN_TOP
 10
6.070854
 20
42.142664
 40
0.000000
 41
0.000000
 42
0.000000
  0
SEQEND
  0
POLYLINE
  8
PIN_TOP
 66
1
 70
1
 40
0.000000
 41
0.000000
 39
0.000000
  0
VERTEX
  8
PIN_TOP
 10
6.070854
 20
42.947336
 40
0.000000
 41
0.000000
 42
0.000000
  0
VERTEX
  8
PIN_TOP
 10
7.239254
 20
42.947336
 40
0.000000
 41
0.000000
 42
0.000000
  0
VERTEX
  8
PIN_TOP
 10
7.239254
 20
42.642536
 40
0.000000
 41
0.000000
 42
0.000000
  0
VERTEX
  8
PIN_TOP
 10
6.070854
 20
42.642536
 40
0.000000
 41
0.000000
 42
0.000000
  0
SEQEND
  0
POLYLINE
  8
PIN_TOP
 66
1
 70
1
 40
0.000000
 41
0.000000
 39
0.000000
  0
VERTEX
  8
PIN_TOP
 10
6.070854
 20
43.447462
 40
0.000000
 41
0.000000
 42
0.000000
  0
VERTEX
  8
PIN_TOP
 10
7.239254
 20
43.447462
 40
0.000000
 41
0.000000
 42
0.000000
  0
VERTEX
  8
PIN_TOP
 10
7.239254
 20
43.142662
 40
0.000000
 41
0.000000
 42
0.000000
  0
VERTEX
  8
PIN_TOP
 10
6.070854
 20
43.142662
 40
0.000000
 41
0.000000
 42
0.000000
  0
SEQEND
  0
POLYLINE
  8
PIN_TOP
 66
1
 70
1
 40
0.000000
 41
0.000000
 39
0.000000
  0
VERTEX
  8
PIN_TOP
 10
6.070854
 20
43.947334
 40
0.000000
 41
0.000000
 42
0.000000
  0
VERTEX
  8
PIN_TOP
 10
7.239254
 20
43.947334
 40
0.000000
 41
0.000000
 42
0.000000
  0
VERTEX
  8
PIN_TOP
 10
7.239254
 20
43.642534
 40
0.000000
 41
0.000000
 42
0.000000
  0
VERTEX
  8
PIN_TOP
 10
6.070854
 20
43.642534
 40
0.000000
 41
0.000000
 42
0.000000
  0
SEQEND
  0
POLYLINE
  8
PIN_TOP
 66
1
 70
1
 40
0.000000
 41
0.000000
 39
0.000000
  0
VERTEX
  8
PIN_TOP
 10
6.070854
 20
44.447460
 40
0.000000
 41
0.000000
 42
0.000000
  0
VERTEX
  8
PIN_TOP
 10
7.239254
 20
44.447460
 40
0.000000
 41
0.000000
 42
0.000000
  0
VERTEX
  8
PIN_TOP
 10
7.239254
 20
44.142660
 40
0.000000
 41
0.000000
 42
0.000000
  0
VERTEX
  8
PIN_TOP
 10
6.070854
 20
44.142660
 40
0.000000
 41
0.000000
 42
0.000000
  0
SEQEND
  0
POLYLINE
  8
PIN_TOP
 66
1
 70
1
 40
0.000000
 41
0.000000
 39
0.000000
  0
VERTEX
  8
PIN_TOP
 10
6.070854
 20
45.249846
 40
0.000000
 41
0.000000
 42
0.000000
  0
VERTEX
  8
PIN_TOP
 10
7.239254
 20
45.249846
 40
0.000000
 41
0.000000
 42
0.000000
  0
VERTEX
  8
PIN_TOP
 10
7.239254
 20
44.640246
 40
0.000000
 41
0.000000
 42
0.000000
  0
VERTEX
  8
PIN_TOP
 10
6.070854
 20
44.640246
 40
0.000000
 41
0.000000
 42
0.000000
  0
SEQEND
  0
POLYLINE
  8
PIN_TOP
 66
1
 70
1
 40
0.000000
 41
0.000000
 39
0.000000
  0
VERTEX
  8
PIN_TOP
 10
6.070854
 20
46.049692
 40
0.000000
 41
0.000000
 42
0.000000
  0
VERTEX
  8
PIN_TOP
 10
7.239254
 20
46.049692
 40
0.000000
 41
0.000000
 42
0.000000
  0
VERTEX
  8
PIN_TOP
 10
7.239254
 20
45.440092
 40
0.000000
 41
0.000000
 42
0.000000
  0
VERTEX
  8
PIN_TOP
 10
6.070854
 20
45.440092
 40
0.000000
 41
0.000000
 42
0.000000
  0
SEQEND
  0
CIRCLE
  8
PIN_TOP
 10
5.554980
 20
45.435012
 40
0.317500
  0
CIRCLE
  8
PIN_BOTTOM
 10
5.554980
 20
45.435012
 40
0.317500
  0
CIRCLE
  8
PIN_TOP
 10
5.554980
 20
39.654988
 40
0.317500
  0
CIRCLE
  8
PIN_BOTTOM
 10
5.554980
 20
39.654988
 40
0.317500
  0
POLYLINE
  8
PIN_TOP
 66
1
 70
1
 40
0.000000
 41
0.000000
 39
0.000000
  0
VERTEX
  8
PIN_TOP
 10
6.613906
 20
46.357032
 40
0.000000
 41
0.000000
 42
0.000000
  0
VERTEX
  8
PIN_TOP
 10
5.496306
 20
46.357032
 40
0.000000
 41
0.000000
 42
-1.000000
  0
VERTEX
  8
PIN_TOP
 10
5.496306
 20
47.373032
 40
0.000000
 41
0.000000
 42
0.000000
  0
VERTEX
  8
PIN_TOP
 10
6.613906
 20
47.373032
 40
0.000000
 41
0.000000
 42
-1.000000
  0
SEQEND
  0
POLYLINE
  8
PIN_BOTTOM
 66
1
 70
1
 40
0.000000
 41
0.000000
 39
0.000000
  0
VERTEX
  8
PIN_BOTTOM
 10
6.613906
 20
46.357032
 40
0.000000
 41
0.000000
 42
0.000000
  0
VERTEX
  8
PIN_BOTTOM
 10
5.496306
 20
46.357032
 40
0.000000
 41
0.000000
 42
-1.000000
  0
VERTEX
  8
PIN_BOTTOM
 10
5.496306
 20
47.373032
 40
0.000000
 41
0.000000
 42
0.000000
  0
VERTEX
  8
PIN_BOTTOM
 10
6.613906
 20
47.373032
 40
0.000000
 41
0.000000
 42
-1.000000
  0
SEQEND
  0
POLYLINE
  8
PIN_TOP
 66
1
 70
1
 40
0.000000
 41
0.000000
 39
0.000000
  0
VERTEX
  8
PIN_TOP
 10
6.613906
 20
37.716968
 40
0.000000
 41
0.000000
 42
0.000000
  0
VERTEX
  8
PIN_TOP
 10
5.496306
 20
37.716968
 40
0.000000
 41
0.000000
 42
-1.000000
  0
VERTEX
  8
PIN_TOP
 10
5.496306
 20
38.732968
 40
0.000000
 41
0.000000
 42
0.000000
  0
VERTEX
  8
PIN_TOP
 10
6.613906
 20
38.732968
 40
0.000000
 41
0.000000
 42
-1.000000
  0
SEQEND
  0
POLYLINE
  8
PIN_BOTTOM
 66
1
 70
1
 40
0.000000
 41
0.000000
 39
0.000000
  0
VERTEX
  8
PIN_BOTTOM
 10
6.613906
 20
37.716968
 40
0.000000
 41
0.000000
 42
0.000000
  0
VERTEX
  8
PIN_BOTTOM
 10
5.496306
 20
37.716968
 40
0.000000
 41
0.000000
 42
-1.000000
  0
VERTEX
  8
PIN_BOTTOM
 10
5.496306
 20
38.732968
 40
0.000000
 41
0.000000
 42
0.000000
  0
VERTEX
  8
PIN_BOTTOM
 10
6.613906
 20
38.732968
 40
0.000000
 41
0.000000
 42
-1.000000
  0
SEQEND
  0
POLYLINE
  8
PIN_TOP
 66
1
 70
1
 40
0.000000
 41
0.000000
 39
0.000000
  0
VERTEX
  8
PIN_TOP
 10
2.311400
 20
46.357032
 40
0.000000
 41
0.000000
 42
0.000000
  0
VERTEX
  8
PIN_TOP
 10
1.498600
 20
46.357032
 40
0.000000
 41
0.000000
 42
-1.000000
  0
VERTEX
  8
PIN_TOP
 10
1.498600
 20
47.373032
 40
0.000000
 41
0.000000
 42
0.000000
  0
VERTEX
  8
PIN_TOP
 10
2.311400
 20
47.373032
 40
0.000000
 41
0.000000
 42
-1.000000
  0
SEQEND
  0
POLYLINE
  8
PIN_BOTTOM
 66
1
 70
1
 40
0.000000
 41
0.000000
 39
0.000000
  0
VERTEX
  8
PIN_BOTTOM
 10
2.311400
 20
46.357032
 40
0.000000
 41
0.000000
 42
0.000000
  0
VERTEX
  8
PIN_BOTTOM
 10
1.498600
 20
46.357032
 40
0.000000
 41
0.000000
 42
-1.000000
  0
VERTEX
  8
PIN_BOTTOM
 10
1.498600
 20
47.373032
 40
0.000000
 41
0.000000
 42
0.000000
  0
VERTEX
  8
PIN_BOTTOM
 10
2.311400
 20
47.373032
 40
0.000000
 41
0.000000
 42
-1.000000
  0
SEQEND
  0
POLYLINE
  8
PIN_TOP
 66
1
 70
1
 40
0.000000
 41
0.000000
 39
0.000000
  0
VERTEX
  8
PIN_TOP
 10
2.311400
 20
37.716968
 40
0.000000
 41
0.000000
 42
0.000000
  0
VERTEX
  8
PIN_TOP
 10
1.498600
 20
37.716968
 40
0.000000
 41
0.000000
 42
-1.000000
  0
VERTEX
  8
PIN_TOP
 10
1.498600
 20
38.732968
 40
0.000000
 41
0.000000
 42
0.000000
  0
VERTEX
  8
PIN_TOP
 10
2.311400
 20
38.732968
 40
0.000000
 41
0.000000
 42
-1.000000
  0
SEQEND
  0
POLYLINE
  8
PIN_BOTTOM
 66
1
 70
1
 40
0.000000
 41
0.000000
 39
0.000000
  0
VERTEX
  8
PIN_BOTTOM
 10
2.311400
 20
37.716968
 40
0.000000
 41
0.000000
 42
0.000000
  0
VERTEX
  8
PIN_BOTTOM
 10
1.498600
 20
37.716968
 40
0.000000
 41
0.000000
 42
-1.000000
  0
VERTEX
  8
PIN_BOTTOM
 10
1.498600
 20
38.732968
 40
0.000000
 41
0.000000
 42
0.000000
  0
VERTEX
  8
PIN_BOTTOM
 10
2.311400
 20
38.732968
 40
0.000000
 41
0.000000
 42
-1.000000
  0
SEQEND
  0
POLYLINE
  8
PG_SILKSCREEN_TOP
 66
1
 70
0
 40
0.000000
 41
0.000000
 39
0.000000
  0
VERTEX
  8
PG_SILKSCREEN_TOP
 10
4.754880
 20
47.045118
 40
0.150114
 41
0.150114
 42
0.000000
  0
VERTEX
  8
PG_SILKSCREEN_TOP
 10
3.154934
 20
47.045118
 40
0.150114
 41
0.150114
 42
0.000000
  0
SEQEND
  0
POLYLINE
  8
PG_SILKSCREEN_TOP
 66
1
 70
0
 40
0.000000
 41
0.000000
 39
0.000000
  0
VERTEX
  8
PG_SILKSCREEN_TOP
 10
3.154934
 20
38.044882
 40
0.150114
 41
0.150114
 42
0.000000
  0
VERTEX
  8
PG_SILKSCREEN_TOP
 10
4.754880
 20
38.044882
 40
0.150114
 41
0.150114
 42
0.000000
  0
SEQEND
  0
POLYLINE
  8
PG_SILKSCREEN_TOP
 66
1
 70
0
 40
0.000000
 41
0.000000
 39
0.000000
  0
VERTEX
  8
PG_SILKSCREEN_TOP
 10
0.754888
 20
47.045118
 40
0.150114
 41
0.150114
 42
0.000000
  0
VERTEX
  8
PG_SILKSCREEN_TOP
 10
-0.694944
 20
47.045118
 40
0.150114
 41
0.150114
 42
0.000000
  0
VERTEX
  8
PG_SILKSCREEN_TOP
 10
-0.694944
 20
38.044882
 40
0.150114
 41
0.150114
 42
0.000000
  0
VERTEX
  8
PG_SILKSCREEN_TOP
 10
0.754888
 20
38.044882
 40
0.150114
 41
0.150114
 42
0.000000
  0
SEQEND
  0
TEXT
  8
RD_SILKSCREEN_TOP
 10
2.311400
 20
47.802800
 11
0.000000
 21
0.000000
 40
0.762000
 41
0.833333
 50
0.000000
  7
STANDARD
 71
0
 72
0
  1
J6
 73
0
  0
CIRCLE
  8
PIN_TOP
 10
62.357000
 20
11.805920
 40
0.698500
  0
CIRCLE
  8
PIN_BOTTOM
 10
62.357000
 20
11.805920
 40
0.698500
  0
CIRCLE
  8
PIN_TOP
 10
76.146914
 20
10.900918
 40
0.762000
  0
CIRCLE
  8
PIN_BOTTOM
 10
76.146914
 20
10.900918
 40
0.762000
  0
CIRCLE
  8
PIN_TOP
 10
76.146914
 20
13.440918
 40
0.762000
  0
CIRCLE
  8
PIN_BOTTOM
 10
76.146914
 20
13.440918
 40
0.762000
  0
CIRCLE
  8
PIN_TOP
 10
76.146914
 20
24.151082
 40
0.762000
  0
CIRCLE
  8
PIN_BOTTOM
 10
76.146914
 20
24.151082
 40
0.762000
  0
CIRCLE
  8
PIN_TOP
 10
76.146914
 20
21.611082
 40
0.762000
  0
CIRCLE
  8
PIN_BOTTOM
 10
76.146914
 20
21.611082
 40
0.762000
  0
CIRCLE
  8
PIN_TOP
 10
64.897000
 20
13.075920
 40
0.698500
  0
CIRCLE
  8
PIN_BOTTOM
 10
64.897000
 20
13.075920
 40
0.698500
  0
CIRCLE
  8
PIN_TOP
 10
62.357000
 20
14.345920
 40
0.698500
  0
CIRCLE
  8
PIN_BOTTOM
 10
62.357000
 20
14.345920
 40
0.698500
  0
CIRCLE
  8
PIN_TOP
 10
64.897000
 20
15.615920
 40
0.698500
  0
CIRCLE
  8
PIN_BOTTOM
 10
64.897000
 20
15.615920
 40
0.698500
  0
CIRCLE
  8
PIN_TOP
 10
62.357000
 20
19.425920
 40
0.698500
  0
CIRCLE
  8
PIN_BOTTOM
 10
62.357000
 20
19.425920
 40
0.698500
  0
CIRCLE
  8
PIN_TOP
 10
62.357000
 20
16.885920
 40
0.698500
  0
CIRCLE
  8
PIN_BOTTOM
 10
62.357000
 20
16.885920
 40
0.698500
  0
CIRCLE
  8
PIN_TOP
 10
64.897000
 20
18.155920
 40
0.698500
  0
CIRCLE
  8
PIN_BOTTOM
 10
64.897000
 20
18.155920
 40
0.698500
  0
CIRCLE
  8
PIN_TOP
 10
64.897000
 20
20.695920
 40
0.698500
  0
CIRCLE
  8
PIN_BOTTOM
 10
64.897000
 20
20.695920
 40
0.698500
  0
CIRCLE
  8
PIN_TOP
 10
62.357000
 20
21.965920
 40
0.698500
  0
CIRCLE
  8
PIN_BOTTOM
 10
62.357000
 20
21.965920
 40
0.698500
  0
CIRCLE
  8
PIN_TOP
 10
64.897000
 20
23.235920
 40
0.698500
  0
CIRCLE
  8
PIN_BOTTOM
 10
64.897000
 20
23.235920
 40
0.698500
  0
CIRCLE
  8
PIN_TOP
 10
68.196968
 20
9.781032
 40
1.206500
  0
CIRCLE
  8
PIN_BOTTOM
 10
68.196968
 20
9.781032
 40
1.206500
  0
CIRCLE
  8
PIN_TOP
 10
68.196968
 20
25.270968
 40
1.206500
  0
CIRCLE
  8
PIN_BOTTOM
 10
68.196968
 20
25.270968
 40
1.206500
  0
CIRCLE
  8
PIN_TOP
 10
71.247000
 20
11.811000
 40
1.587500
  0
CIRCLE
  8
PIN_BOTTOM
 10
71.247000
 20
11.811000
 40
1.587500
  0
CIRCLE
  8
PIN_TOP
 10
71.247000
 20
23.241000
 40
1.587500
  0
CIRCLE
  8
PIN_BOTTOM
 10
71.247000
 20
23.241000
 40
1.587500
  0
POLYLINE
  8
PG_SILKSCREEN_TOP
 66
1
 70
0
 40
0.000000
 41
0.000000
 39
0.000000
  0
VERTEX
  8
PG_SILKSCREEN_TOP
 10
82.246978
 20
25.626060
 40
0.150114
 41
0.150114
 42
0.000000
  0
VERTEX
  8
PG_SILKSCREEN_TOP
 10
70.047104
 20
25.626060
 40
0.150114
 41
0.150114
 42
0.000000
  0
SEQEND
  0
POLYLINE
  8
PG_SILKSCREEN_TOP
 66
1
 70
0
 40
0.000000
 41
0.000000
 39
0.000000
  0
VERTEX
  8
PG_SILKSCREEN_TOP
 10
78.047088
 20
11.926062
 40
0.150114
 41
0.150114
 42
0.000000
  0
VERTEX
  8
PG_SILKSCREEN_TOP
 10
77.047090
 20
11.926062
 40
0.150114
 41
0.150114
 42
0.000000
  0
VERTEX
  8
PG_SILKSCREEN_TOP
 10
77.546962
 20
12.425934
 40
0.150114
 41
0.150114
 42
0.000000
  0
VERTEX
  8
PG_SILKSCREEN_TOP
 10
78.047088
 20
11.926062
 40
0.150114
 41
0.150114
 42
0.000000
  0
SEQEND
  0
POLYLINE
  8
PG_SILKSCREEN_TOP
 66
1
 70
0
 40
0.000000
 41
0.000000
 39
0.000000
  0
VERTEX
  8
PG_SILKSCREEN_TOP
 10
78.047088
 20
12.425934
 40
0.150114
 41
0.150114
 42
0.000000
  0
VERTEX
  8
PG_SILKSCREEN_TOP
 10
77.047090
 20
12.425934
 40
0.150114
 41
0.150114
 42
0.000000
  0
SEQEND
  0
POLYLINE
  8
PG_SILKSCREEN_TOP
 66
1
 70
0
 40
0.000000
 41
0.000000
 39
0.000000
  0
VERTEX
  8
PG_SILKSCREEN_TOP
 10
77.546962
 20
12.425934
 40
0.150114
 41
0.150114
 42
0.000000
  0
VERTEX
  8
PG_SILKSCREEN_TOP
 10
77.546962
 20
12.825984
 40
0.150114
 41
0.150114
 42
0.000000
  0
SEQEND
  0
POLYLINE
  8
PG_SILKSCREEN_TOP
 66
1
 70
0
 40
0.000000
 41
0.000000
 39
0.000000
  0
VERTEX
  8
PG_SILKSCREEN_TOP
 10
77.546962
 20
12.425934
 40
0.150114
 41
0.150114
 42
0.000000
  0
VERTEX
  8
PG_SILKSCREEN_TOP
 10
77.546962
 20
11.526012
 40
0.150114
 41
0.150114
 42
0.000000
  0
SEQEND
  0
POLYLINE
  8
PG_SILKSCREEN_TOP
 66
1
 70
0
 40
0.000000
 41
0.000000
 39
0.000000
  0
VERTEX
  8
PG_SILKSCREEN_TOP
 10
77.047090
 20
22.626066
 40
0.150114
 41
0.150114
 42
0.000000
  0
VERTEX
  8
PG_SILKSCREEN_TOP
 10
78.047088
 20
22.626066
 40
0.150114
 41
0.150114
 42
0.000000
  0
SEQEND
  0
POLYLINE
  8
PG_SILKSCREEN_TOP
 66
1
 70
0
 40
0.000000
 41
0.000000
 39
0.000000
  0
VERTEX
  8
PG_SILKSCREEN_TOP
 10
77.047090
 20
23.125938
 40
0.150114
 41
0.150114
 42
0.000000
  0
VERTEX
  8
PG_SILKSCREEN_TOP
 10
78.047088
 20
23.125938
 40
0.150114
 41
0.150114
 42
0.000000
  0
VERTEX
  8
PG_SILKSCREEN_TOP
 10
77.546962
 20
22.626066
 40
0.150114
 41
0.150114
 42
0.000000
  0
VERTEX
  8
PG_SILKSCREEN_TOP
 10
77.047090
 20
23.125938
 40
0.150114
 41
0.150114
 42
0.000000
  0
SEQEND
  0
POLYLINE
  8
PG_SILKSCREEN_TOP
 66
1
 70
0
 40
0.000000
 41
0.000000
 39
0.000000
  0
VERTEX
  8
PG_SILKSCREEN_TOP
 10
77.546962
 20
22.626066
 40
0.150114
 41
0.150114
 42
0.000000
  0
VERTEX
  8
PG_SILKSCREEN_TOP
 10
77.546962
 20
22.226016
 40
0.150114
 41
0.150114
 42
0.000000
  0
SEQEND
  0
POLYLINE
  8
PG_SILKSCREEN_TOP
 66
1
 70
0
 40
0.000000
 41
0.000000
 39
0.000000
  0
VERTEX
  8
PG_SILKSCREEN_TOP
 10
77.546962
 20
22.626066
 40
0.150114
 41
0.150114
 42
0.000000
  0
VERTEX
  8
PG_SILKSCREEN_TOP
 10
77.546962
 20
23.525988
 40
0.150114
 41
0.150114
 42
0.000000
  0
SEQEND
  0
POLYLINE
  8
PG_SILKSCREEN_TOP
 66
1
 70
0
 40
0.000000
 41
0.000000
 39
0.000000
  0
VERTEX
  8
PG_SILKSCREEN_TOP
 10
66.247010
 20
25.626060
 40
0.150114
 41
0.150114
 42
0.000000
  0
VERTEX
  8
PG_SILKSCREEN_TOP
 10
60.947046
 20
25.626060
 40
0.150114
 41
0.150114
 42
0.000000
  0
VERTEX
  8
PG_SILKSCREEN_TOP
 10
60.947046
 20
9.425940
 40
0.150114
 41
0.150114
 42
0.000000
  0
VERTEX
  8
PG_SILKSCREEN_TOP
 10
66.247010
 20
9.425940
 40
0.150114
 41
0.150114
 42
0.000000
  0
SEQEND
  0
POLYLINE
  8
PG_SILKSCREEN_TOP
 66
1
 70
0
 40
0.000000
 41
0.000000
 39
0.000000
  0
VERTEX
  8
PG_SILKSCREEN_TOP
 10
70.047104
 20
9.425940
 40
0.150114
 41
0.150114
 42
0.000000
  0
VERTEX
  8
PG_SILKSCREEN_TOP
 10
82.246978
 20
9.425940
 40
0.150114
 41
0.150114
 42
0.000000
  0
VERTEX
  8
PG_SILKSCREEN_TOP
 10
82.246978
 20
25.626060
 40
0.150114
 41
0.150114
 42
0.000000
  0
SEQEND
  0
TEXT
  8
RD_SILKSCREEN_TOP
 10
70.231000
 20
7.797800
 11
0.000000
 21
0.000000
 40
0.762000
 41
0.833333
 50
0.000000
  7
STANDARD
 71
0
 72
0
  1
J9
 73
0
  0
TEXT
  8
PG_SILKSCREEN_TOP
 10
76.581000
 20
26.111200
 11
0.000000
 21
0.000000
 40
0.762000
 41
0.833333
 50
0.000000
  7
STANDARD
 71
0
 72
0
  1
Y
 73
0
  0
TEXT
  8
PG_SILKSCREEN_TOP
 10
75.971400
 20
8.102600
 11
0.000000
 21
0.000000
 40
0.762000
 41
0.833333
 50
0.000000
  7
STANDARD
 71
0
 72
0
  1
G
 73
0
  0
TEXT
  8
PG_SILKSCREEN_BOTTOM
 10
61.947044
 20
10.025888
 11
0.000000
 21
0.000000
 40
0.762000
 41
0.833333
 50
270.000000
  7
STANDARD
 71
2
 72
0
  1
1
 73
0
  0
TEXT
  8
PG_SILKSCREEN_BOTTOM
 10
61.947044
 20
23.125938
 11
0.000000
 21
0.000000
 40
0.762000
 41
0.833333
 50
270.000000
  7
STANDARD
 71
2
 72
0
  1
9
 73
0
  0
TEXT
  8
PG_SILKSCREEN_BOTTOM
 10
66.146934
 20
12.725908
 11
0.000000
 21
0.000000
 40
0.762000
 41
0.833333
 50
270.000000
  7
STANDARD
 71
2
 72
0
  1
2
 73
0
  0
TEXT
  8
PG_SILKSCREEN_BOTTOM
 10
66.146934
 20
22.326092
 11
0.000000
 21
0.000000
 40
0.762000
 41
0.833333
 50
270.000000
  7
STANDARD
 71
2
 72
0
  1
10
 73
0
  0
POLYLINE
  8
PIN_TOP
 66
1
 70
1
 40
0.000000
 41
0.000000
 39
0.000000
  0
VERTEX
  8
PIN_TOP
 10
75.704192
 20
31.219140
 40
0.000000
 41
0.000000
 42
0.000000
  0
VERTEX
  8
PIN_TOP
 10
77.504036
 20
31.219140
 40
0.000000
 41
0.000000
 42
-1.000000
  0
VERTEX
  8
PIN_TOP
 10
77.504036
 20
29.719016
 40
0.000000
 41
0.000000
 42
0.000000
  0
VERTEX
  8
PIN_TOP
 10
75.704192
 20
29.719016
 40
0.000000
 41
0.000000
 42
-1.000000
  0
SEQEND
  0
POLYLINE
  8
PIN_BOTTOM
 66
1
 70
1
 40
0.000000
 41
0.000000
 39
0.000000
  0
VERTEX
  8
PIN_BOTTOM
 10
75.704192
 20
31.219140
 40
0.000000
 41
0.000000
 42
0.000000
  0
VERTEX
  8
PIN_BOTTOM
 10
77.504036
 20
31.219140
 40
0.000000
 41
0.000000
 42
-1.000000
  0
VERTEX
  8
PIN_BOTTOM
 10
77.504036
 20
29.719016
 40
0.000000
 41
0.000000
 42
0.000000
  0
VERTEX
  8
PIN_BOTTOM
 10
75.704192
 20
29.719016
 40
0.000000
 41
0.000000
 42
-1.000000
  0
SEQEND
  0
POLYLINE
  8
PIN_TOP
 66
1
 70
1
 40
0.000000
 41
0.000000
 39
0.000000
  0
VERTEX
  8
PIN_TOP
 10
75.704192
 20
45.718984
 40
0.000000
 41
0.000000
 42
0.000000
  0
VERTEX
  8
PIN_TOP
 10
77.504036
 20
45.718984
 40
0.000000
 41
0.000000
 42
-1.000000
  0
VERTEX
  8
PIN_TOP
 10
77.504036
 20
44.218860
 40
0.000000
 41
0.000000
 42
0.000000
  0
VERTEX
  8
PIN_TOP
 10
75.704192
 20
44.218860
 40
0.000000
 41
0.000000
 42
-1.000000
  0
SEQEND
  0
POLYLINE
  8
PIN_BOTTOM
 66
1
 70
1
 40
0.000000
 41
0.000000
 39
0.000000
  0
VERTEX
  8
PIN_BOTTOM
 10
75.704192
 20
45.718984
 40
0.000000
 41
0.000000
 42
0.000000
  0
VERTEX
  8
PIN_BOTTOM
 10
77.504036
 20
45.718984
 40
0.000000
 41
0.000000
 42
-1.000000
  0
VERTEX
  8
PIN_BOTTOM
 10
77.504036
 20
44.218860
 40
0.000000
 41
0.000000
 42
0.000000
  0
VERTEX
  8
PIN_BOTTOM
 10
75.704192
 20
44.218860
 40
0.000000
 41
0.000000
 42
-1.000000
  0
SEQEND
  0
POLYLINE
  8
PIN_TOP
 66
1
 70
1
 40
0.000000
 41
0.000000
 39
0.000000
  0
VERTEX
  8
PIN_TOP
 10
69.704204
 20
31.219140
 40
0.000000
 41
0.000000
 42
0.000000
  0
VERTEX
  8
PIN_TOP
 10
71.504048
 20
31.219140
 40
0.000000
 41
0.000000
 42
-1.000000
  0
VERTEX
  8
PIN_TOP
 10
71.504048
 20
29.719016
 40
0.000000
 41
0.000000
 42
0.000000
  0
VERTEX
  8
PIN_TOP
 10
69.704204
 20
29.719016
 40
0.000000
 41
0.000000
 42
-1.000000
  0
SEQEND
  0
POLYLINE
  8
PIN_BOTTOM
 66
1
 70
1
 40
0.000000
 41
0.000000
 39
0.000000
  0
VERTEX
  8
PIN_BOTTOM
 10
69.704204
 20
31.219140
 40
0.000000
 41
0.000000
 42
0.000000
  0
VERTEX
  8
PIN_BOTTOM
 10
71.504048
 20
31.219140
 40
0.000000
 41
0.000000
 42
-1.000000
  0
VERTEX
  8
PIN_BOTTOM
 10
71.504048
 20
29.719016
 40
0.000000
 41
0.000000
 42
0.000000
  0
VERTEX
  8
PIN_BOTTOM
 10
69.704204
 20
29.719016
 40
0.000000
 41
0.000000
 42
-1.000000
  0
SEQEND
  0
POLYLINE
  8
PIN_TOP
 66
1
 70
1
 40
0.000000
 41
0.000000
 39
0.000000
  0
VERTEX
  8
PIN_TOP
 10
69.704204
 20
45.718984
 40
0.000000
 41
0.000000
 42
0.000000
  0
VERTEX
  8
PIN_TOP
 10
71.504048
 20
45.718984
 40
0.000000
 41
0.000000
 42
-1.000000
  0
VERTEX
  8
PIN_TOP
 10
71.504048
 20
44.218860
 40
0.000000
 41
0.000000
 42
0.000000
  0
VERTEX
  8
PIN_TOP
 10
69.704204
 20
44.218860
 40
0.000000
 41
0.000000
 42
-1.000000
  0
SEQEND
  0
POLYLINE
  8
PIN_BOTTOM
 66
1
 70
1
 40
0.000000
 41
0.000000
 39
0.000000
  0
VERTEX
  8
PIN_BOTTOM
 10
69.704204
 20
45.718984
 40
0.000000
 41
0.000000
 42
0.000000
  0
VERTEX
  8
PIN_BOTTOM
 10
71.504048
 20
45.718984
 40
0.000000
 41
0.000000
 42
-1.000000
  0
VERTEX
  8
PIN_BOTTOM
 10
71.504048
 20
44.218860
 40
0.000000
 41
0.000000
 42
0.000000
  0
VERTEX
  8
PIN_BOTTOM
 10
69.704204
 20
44.218860
 40
0.000000
 41
0.000000
 42
-1.000000
  0
SEQEND
  0
POLYLINE
  8
PIN_TOP
 66
1
 70
1
 40
0.000000
 41
0.000000
 39
0.000000
  0
VERTEX
  8
PIN_TOP
 10
69.053964
 20
33.368869
 40
0.000000
 41
0.000000
 42
0.000000
  0
VERTEX
  8
PIN_TOP
 10
71.154036
 20
33.368869
 40
0.000000
 41
0.000000
 42
-1.000000
  0
VERTEX
  8
PIN_TOP
 10
71.154036
 20
33.068895
 40
0.000000
 41
0.000000
 42
0.000000
  0
VERTEX
  8
PIN_TOP
 10
69.053964
 20
33.068895
 40
0.000000
 41
0.000000
 42
-1.000000
  0
SEQEND
  0
POLYLINE
  8
PIN_TOP
 66
1
 70
1
 40
0.000000
 41
0.000000
 39
0.000000
  0
VERTEX
  8
PIN_TOP
 10
69.053964
 20
33.868995
 40
0.000000
 41
0.000000
 42
0.000000
  0
VERTEX
  8
PIN_TOP
 10
71.154036
 20
33.868995
 40
0.000000
 41
0.000000
 42
-1.000000
  0
VERTEX
  8
PIN_TOP
 10
71.154036
 20
33.569021
 40
0.000000
 41
0.000000
 42
0.000000
  0
VERTEX
  8
PIN_TOP
 10
69.053964
 20
33.569021
 40
0.000000
 41
0.000000
 42
-1.000000
  0
SEQEND
  0
POLYLINE
  8
PIN_TOP
 66
1
 70
1
 40
0.000000
 41
0.000000
 39
0.000000
  0
VERTEX
  8
PIN_TOP
 10
69.053964
 20
34.368867
 40
0.000000
 41
0.000000
 42
0.000000
  0
VERTEX
  8
PIN_TOP
 10
71.154036
 20
34.368867
 40
0.000000
 41
0.000000
 42
-1.000000
  0
VERTEX
  8
PIN_TOP
 10
71.154036
 20
34.068893
 40
0.000000
 41
0.000000
 42
0.000000
  0
VERTEX
  8
PIN_TOP
 10
69.053964
 20
34.068893
 40
0.000000
 41
0.000000
 42
-1.000000
  0
SEQEND
  0
POLYLINE
  8
PIN_TOP
 66
1
 70
1
 40
0.000000
 41
0.000000
 39
0.000000
  0
VERTEX
  8
PIN_TOP
 10
69.053964
 20
34.868993
 40
0.000000
 41
0.000000
 42
0.000000
  0
VERTEX
  8
PIN_TOP
 10
71.154036
 20
34.868993
 40
0.000000
 41
0.000000
 42
-1.000000
  0
VERTEX
  8
PIN_TOP
 10
71.154036
 20
34.569019
 40
0.000000
 41
0.000000
 42
0.000000
  0
VERTEX
  8
PIN_TOP
 10
69.053964
 20
34.569019
 40
0.000000
 41
0.000000
 42
-1.000000
  0
SEQEND
  0
POLYLINE
  8
PIN_TOP
 66
1
 70
1
 40
0.000000
 41
0.000000
 39
0.000000
  0
VERTEX
  8
PIN_TOP
 10
69.053964
 20
35.368865
 40
0.000000
 41
0.000000
 42
0.000000
  0
VERTEX
  8
PIN_TOP
 10
71.154036
 20
35.368865
 40
0.000000
 41
0.000000
 42
-1.000000
  0
VERTEX
  8
PIN_TOP
 10
71.154036
 20
35.068891
 40
0.000000
 41
0.000000
 42
0.000000
  0
VERTEX
  8
PIN_TOP
 10
69.053964
 20
35.068891
 40
0.000000
 41
0.000000
 42
-1.000000
  0
SEQEND
  0
POLYLINE
  8
PIN_TOP
 66
1
 70
1
 40
0.000000
 41
0.000000
 39
0.000000
  0
VERTEX
  8
PIN_TOP
 10
69.053964
 20
35.868991
 40
0.000000
 41
0.000000
 42
0.000000
  0
VERTEX
  8
PIN_TOP
 10
71.154036
 20
35.868991
 40
0.000000
 41
0.000000
 42
-1.000000
  0
VERTEX
  8
PIN_TOP
 10
71.154036
 20
35.569017
 40
0.000000
 41
0.000000
 42
0.000000
  0
VERTEX
  8
PIN_TOP
 10
69.053964
 20
35.569017
 40
0.000000
 41
0.000000
 42
-1.000000
  0
SEQEND
  0
POLYLINE
  8
PIN_TOP
 66
1
 70
1
 40
0.000000
 41
0.000000
 39
0.000000
  0
VERTEX
  8
PIN_TOP
 10
69.053964
 20
36.368863
 40
0.000000
 41
0.000000
 42
0.000000
  0
VERTEX
  8
PIN_TOP
 10
71.154036
 20
36.368863
 40
0.000000
 41
0.000000
 42
-1.000000
  0
VERTEX
  8
PIN_TOP
 10
71.154036
 20
36.068889
 40
0.000000
 41
0.000000
 42
0.000000
  0
VERTEX
  8
PIN_TOP
 10
69.053964
 20
36.068889
 40
0.000000
 41
0.000000
 42
-1.000000
  0
SEQEND
  0
POLYLINE
  8
PIN_TOP
 66
1
 70
1
 40
0.000000
 41
0.000000
 39
0.000000
  0
VERTEX
  8
PIN_TOP
 10
69.053964
 20
36.868989
 40
0.000000
 41
0.000000
 42
0.000000
  0
VERTEX
  8
PIN_TOP
 10
71.154036
 20
36.868989
 40
0.000000
 41
0.000000
 42
-1.000000
  0
VERTEX
  8
PIN_TOP
 10
71.154036
 20
36.569015
 40
0.000000
 41
0.000000
 42
0.000000
  0
VERTEX
  8
PIN_TOP
 10
69.053964
 20
36.569015
 40
0.000000
 41
0.000000
 42
-1.000000
  0
SEQEND
  0
POLYLINE
  8
PIN_TOP
 66
1
 70
1
 40
0.000000
 41
0.000000
 39
0.000000
  0
VERTEX
  8
PIN_TOP
 10
69.053964
 20
37.368861
 40
0.000000
 41
0.000000
 42
0.000000
  0
VERTEX
  8
PIN_TOP
 10
71.154036
 20
37.368861
 40
0.000000
 41
0.000000
 42
-1.000000
  0
VERTEX
  8
PIN_TOP
 10
71.154036
 20
37.068887
 40
0.000000
 41
0.000000
 42
0.000000
  0
VERTEX
  8
PIN_TOP
 10
69.053964
 20
37.068887
 40
0.000000
 41
0.000000
 42
-1.000000
  0
SEQEND
  0
POLYLINE
  8
PIN_TOP
 66
1
 70
1
 40
0.000000
 41
0.000000
 39
0.000000
  0
VERTEX
  8
PIN_TOP
 10
69.053964
 20
37.868987
 40
0.000000
 41
0.000000
 42
0.000000
  0
VERTEX
  8
PIN_TOP
 10
71.154036
 20
37.868987
 40
0.000000
 41
0.000000
 42
-1.000000
  0
VERTEX
  8
PIN_TOP
 10
71.154036
 20
37.569013
 40
0.000000
 41
0.000000
 42
0.000000
  0
VERTEX
  8
PIN_TOP
 10
69.053964
 20
37.569013
 40
0.000000
 41
0.000000
 42
-1.000000
  0
SEQEND
  0
POLYLINE
  8
PIN_TOP
 66
1
 70
1
 40
0.000000
 41
0.000000
 39
0.000000
  0
VERTEX
  8
PIN_TOP
 10
69.053964
 20
38.369113
 40
0.000000
 41
0.000000
 42
0.000000
  0
VERTEX
  8
PIN_TOP
 10
71.154036
 20
38.369113
 40
0.000000
 41
0.000000
 42
-1.000000
  0
VERTEX
  8
PIN_TOP
 10
71.154036
 20
38.069139
 40
0.000000
 41
0.000000
 42
0.000000
  0
VERTEX
  8
PIN_TOP
 10
69.053964
 20
38.069139
 40
0.000000
 41
0.000000
 42
-1.000000
  0
SEQEND
  0
POLYLINE
  8
PIN_TOP
 66
1
 70
1
 40
0.000000
 41
0.000000
 39
0.000000
  0
VERTEX
  8
PIN_TOP
 10
69.053964
 20
38.868985
 40
0.000000
 41
0.000000
 42
0.000000
  0
VERTEX
  8
PIN_TOP
 10
71.154036
 20
38.868985
 40
0.000000
 41
0.000000
 42
-1.000000
  0
VERTEX
  8
PIN_TOP
 10
71.154036
 20
38.569011
 40
0.000000
 41
0.000000
 42
0.000000
  0
VERTEX
  8
PIN_TOP
 10
69.053964
 20
38.569011
 40
0.000000
 41
0.000000
 42
-1.000000
  0
SEQEND
  0
POLYLINE
  8
PIN_TOP
 66
1
 70
1
 40
0.000000
 41
0.000000
 39
0.000000
  0
VERTEX
  8
PIN_TOP
 10
69.053964
 20
39.369111
 40
0.000000
 41
0.000000
 42
0.000000
  0
VERTEX
  8
PIN_TOP
 10
71.154036
 20
39.369111
 40
0.000000
 41
0.000000
 42
-1.000000
  0
VERTEX
  8
PIN_TOP
 10
71.154036
 20
39.069137
 40
0.000000
 41
0.000000
 42
0.000000
  0
VERTEX
  8
PIN_TOP
 10
69.053964
 20
39.069137
 40
0.000000
 41
0.000000
 42
-1.000000
  0
SEQEND
  0
POLYLINE
  8
PIN_TOP
 66
1
 70
1
 40
0.000000
 41
0.000000
 39
0.000000
  0
VERTEX
  8
PIN_TOP
 10
69.053964
 20
39.868983
 40
0.000000
 41
0.000000
 42
0.000000
  0
VERTEX
  8
PIN_TOP
 10
71.154036
 20
39.868983
 40
0.000000
 41
0.000000
 42
-1.000000
  0
VERTEX
  8
PIN_TOP
 10
71.154036
 20
39.569009
 40
0.000000
 41
0.000000
 42
0.000000
  0
VERTEX
  8
PIN_TOP
 10
69.053964
 20
39.569009
 40
0.000000
 41
0.000000
 42
-1.000000
  0
SEQEND
  0
POLYLINE
  8
PIN_TOP
 66
1
 70
1
 40
0.000000
 41
0.000000
 39
0.000000
  0
VERTEX
  8
PIN_TOP
 10
69.053964
 20
40.369109
 40
0.000000
 41
0.000000
 42
0.000000
  0
VERTEX
  8
PIN_TOP
 10
71.154036
 20
40.369109
 40
0.000000
 41
0.000000
 42
-1.000000
  0
VERTEX
  8
PIN_TOP
 10
71.154036
 20
40.069135
 40
0.000000
 41
0.000000
 42
0.000000
  0
VERTEX
  8
PIN_TOP
 10
69.053964
 20
40.069135
 40
0.000000
 41
0.000000
 42
-1.000000
  0
SEQEND
  0
POLYLINE
  8
PIN_TOP
 66
1
 70
1
 40
0.000000
 41
0.000000
 39
0.000000
  0
VERTEX
  8
PIN_TOP
 10
69.053964
 20
40.868981
 40
0.000000
 41
0.000000
 42
0.000000
  0
VERTEX
  8
PIN_TOP
 10
71.154036
 20
40.868981
 40
0.000000
 41
0.000000
 42
-1.000000
  0
VERTEX
  8
PIN_TOP
 10
71.154036
 20
40.569007
 40
0.000000
 41
0.000000
 42
0.000000
  0
VERTEX
  8
PIN_TOP
 10
69.053964
 20
40.569007
 40
0.000000
 41
0.000000
 42
-1.000000
  0
SEQEND
  0
POLYLINE
  8
PIN_TOP
 66
1
 70
1
 40
0.000000
 41
0.000000
 39
0.000000
  0
VERTEX
  8
PIN_TOP
 10
69.053964
 20
41.369107
 40
0.000000
 41
0.000000
 42
0.000000
  0
VERTEX
  8
PIN_TOP
 10
71.154036
 20
41.369107
 40
0.000000
 41
0.000000
 42
-1.000000
  0
VERTEX
  8
PIN_TOP
 10
71.154036
 20
41.069133
 40
0.000000
 41
0.000000
 42
0.000000
  0
VERTEX
  8
PIN_TOP
 10
69.053964
 20
41.069133
 40
0.000000
 41
0.000000
 42
-1.000000
  0
SEQEND
  0
POLYLINE
  8
PIN_TOP
 66
1
 70
1
 40
0.000000
 41
0.000000
 39
0.000000
  0
VERTEX
  8
PIN_TOP
 10
69.053964
 20
41.868979
 40
0.000000
 41
0.000000
 42
0.000000
  0
VERTEX
  8
PIN_TOP
 10
71.154036
 20
41.868979
 40
0.000000
 41
0.000000
 42
-1.000000
  0
VERTEX
  8
PIN_TOP
 10
71.154036
 20
41.569005
 40
0.000000
 41
0.000000
 42
0.000000
  0
VERTEX
  8
PIN_TOP
 10
69.053964
 20
41.569005
 40
0.000000
 41
0.000000
 42
-1.000000
  0
SEQEND
  0
POLYLINE
  8
PIN_TOP
 66
1
 70
1
 40
0.000000
 41
0.000000
 39
0.000000
  0
VERTEX
  8
PIN_TOP
 10
69.053964
 20
42.369105
 40
0.000000
 41
0.000000
 42
0.000000
  0
VERTEX
  8
PIN_TOP
 10
71.154036
 20
42.369105
 40
0.000000
 41
0.000000
 42
-1.000000
  0
VERTEX
  8
PIN_TOP
 10
71.154036
 20
42.069131
 40
0.000000
 41
0.000000
 42
0.000000
  0
VERTEX
  8
PIN_TOP
 10
69.053964
 20
42.069131
 40
0.000000
 41
0.000000
 42
-1.000000
  0
SEQEND
  0
POLYLINE
  8
PG_SILKSCREEN_TOP
 66
1
 70
0
 40
0.000000
 41
0.000000
 39
0.000000
  0
VERTEX
  8
PG_SILKSCREEN_TOP
 10
70.104000
 20
32.719010
 40
0.254000
 41
0.254000
 42
0.000000
  0
VERTEX
  8
PG_SILKSCREEN_TOP
 10
70.104000
 20
30.218888
 40
0.254000
 41
0.254000
 42
0.000000
  0
VERTEX
  8
PG_SILKSCREEN_TOP
 10
81.254092
 20
30.218888
 40
0.254000
 41
0.254000
 42
0.000000
  0
VERTEX
  8
PG_SILKSCREEN_TOP
 10
81.254092
 20
45.219112
 40
0.254000
 41
0.254000
 42
0.000000
  0
VERTEX
  8
PG_SILKSCREEN_TOP
 10
70.104000
 20
45.219112
 40
0.254000
 41
0.254000
 42
0.000000
  0
VERTEX
  8
PG_SILKSCREEN_TOP
 10
70.104000
 20
43.219116
 40
0.254000
 41
0.254000
 42
0.000000
  0
SEQEND
  0
POLYLINE
  8
PG_SILKSCREEN_TOP
 66
1
 70
0
 40
0.000000
 41
0.000000
 39
0.000000
  0
VERTEX
  8
PG_SILKSCREEN_TOP
 10
75.280012
 20
41.920922
 40
0.127000
 41
0.127000
 42
0.000000
  0
VERTEX
  8
PG_SILKSCREEN_TOP
 10
77.579982
 20
41.420796
 40
0.127000
 41
0.127000
 42
0.000000
  0
SEQEND
  0
POLYLINE
  8
PG_SILKSCREEN_TOP
 66
1
 70
0
 40
0.000000
 41
0.000000
 39
0.000000
  0
VERTEX
  8
PG_SILKSCREEN_TOP
 10
77.579982
 20
39.921180
 40
0.127000
 41
0.127000
 42
0.000000
  0
VERTEX
  8
PG_SILKSCREEN_TOP
 10
75.280012
 20
39.420800
 40
0.127000
 41
0.127000
 42
0.000000
  0
SEQEND
  0
POLYLINE
  8
PG_SILKSCREEN_TOP
 66
1
 70
0
 40
0.000000
 41
0.000000
 39
0.000000
  0
VERTEX
  8
PG_SILKSCREEN_TOP
 10
77.579982
 20
41.420796
 40
0.127000
 41
0.127000
 42
0.000000
  0
VERTEX
  8
PG_SILKSCREEN_TOP
 10
77.579982
 20
39.921180
 40
0.127000
 41
0.127000
 42
0.000000
  0
SEQEND
  0
POLYLINE
  8
PG_SILKSCREEN_TOP
 66
1
 70
0
 40
0.000000
 41
0.000000
 39
0.000000
  0
VERTEX
  8
PG_SILKSCREEN_TOP
 10
77.579982
 20
35.420808
 40
0.127000
 41
0.127000
 42
0.000000
  0
VERTEX
  8
PG_SILKSCREEN_TOP
 10
75.280012
 20
35.921188
 40
0.127000
 41
0.127000
 42
0.000000
  0
SEQEND
  0
POLYLINE
  8
PG_SILKSCREEN_TOP
 66
1
 70
0
 40
0.000000
 41
0.000000
 39
0.000000
  0
VERTEX
  8
PG_SILKSCREEN_TOP
 10
75.280012
 20
33.420812
 40
0.127000
 41
0.127000
 42
0.000000
  0
VERTEX
  8
PG_SILKSCREEN_TOP
 10
77.579982
 20
33.921192
 40
0.127000
 41
0.127000
 42
0.000000
  0
SEQEND
  0
POLYLINE
  8
PG_SILKSCREEN_TOP
 66
1
 70
0
 40
0.000000
 41
0.000000
 39
0.000000
  0
VERTEX
  8
PG_SILKSCREEN_TOP
 10
77.579982
 20
33.921192
 40
0.127000
 41
0.127000
 42
0.000000
  0
VERTEX
  8
PG_SILKSCREEN_TOP
 10
77.579982
 20
35.420808
 40
0.127000
 41
0.127000
 42
0.000000
  0
SEQEND
  0
TEXT
  8
RD_SILKSCREEN_TOP
 10
69.799200
 20
46.812200
 11
0.000000
 21
0.000000
 40
0.762000
 41
0.833333
 50
0.000000
  7
STANDARD
 71
0
 72
0
  1
J5
 73
0
  0
POLYLINE
  8
PIN_TOP
 66
1
 70
1
 40
0.000000
 41
0.000000
 39
0.000000
  0
VERTEX
  8
PIN_TOP
 10
71.279893
 20
5.181473
 40
0.000000
 41
0.000000
 42
0.000000
  0
VERTEX
  8
PIN_TOP
 10
71.279893
 20
3.581527
 40
0.000000
 41
0.000000
 42
0.000000
  0
VERTEX
  8
PIN_TOP
 10
69.679947
 20
3.581527
 40
0.000000
 41
0.000000
 42
0.000000
  0
VERTEX
  8
PIN_TOP
 10
69.679947
 20
5.181473
 40
0.000000
 41
0.000000
 42
0.000000
  0
SEQEND
  0
POLYLINE
  8
PIN_BOTTOM
 66
1
 70
1
 40
0.000000
 41
0.000000
 39
0.000000
  0
VERTEX
  8
PIN_BOTTOM
 10
71.279893
 20
5.181473
 40
0.000000
 41
0.000000
 42
0.000000
  0
VERTEX
  8
PIN_BOTTOM
 10
71.279893
 20
3.581527
 40
0.000000
 41
0.000000
 42
0.000000
  0
VERTEX
  8
PIN_BOTTOM
 10
69.679947
 20
3.581527
 40
0.000000
 41
0.000000
 42
0.000000
  0
VERTEX
  8
PIN_BOTTOM
 10
69.679947
 20
5.181473
 40
0.000000
 41
0.000000
 42
0.000000
  0
SEQEND
  0
CIRCLE
  8
PIN_TOP
 10
67.939920
 20
4.381500
 40
0.799973
  0
CIRCLE
  8
PIN_BOTTOM
 10
67.939920
 20
4.381500
 40
0.799973
  0
CIRCLE
  8
PIN_TOP
 10
65.399920
 20
4.381500
 40
0.799973
  0
CIRCLE
  8
PIN_BOTTOM
 10
65.399920
 20
4.381500
 40
0.799973
  0
CIRCLE
  8
PIN_TOP
 10
62.859920
 20
4.381500
 40
0.799973
  0
CIRCLE
  8
PIN_BOTTOM
 10
62.859920
 20
4.381500
 40
0.799973
  0
CIRCLE
  8
PIN_TOP
 10
60.319920
 20
4.381500
 40
0.799973
  0
CIRCLE
  8
PIN_BOTTOM
 10
60.319920
 20
4.381500
 40
0.799973
  0
CIRCLE
  8
PIN_TOP
 10
57.779920
 20
4.381500
 40
0.799973
  0
CIRCLE
  8
PIN_BOTTOM
 10
57.779920
 20
4.381500
 40
0.799973
  0
CIRCLE
  8
PIN_TOP
 10
55.239920
 20
4.381500
 40
0.799973
  0
CIRCLE
  8
PIN_BOTTOM
 10
55.239920
 20
4.381500
 40
0.799973
  0
CIRCLE
  8
PIN_TOP
 10
52.699920
 20
4.381500
 40
0.799973
  0
CIRCLE
  8
PIN_BOTTOM
 10
52.699920
 20
4.381500
 40
0.799973
  0
CIRCLE
  8
PIN_TOP
 10
50.159920
 20
4.381500
 40
0.799973
  0
CIRCLE
  8
PIN_BOTTOM
 10
50.159920
 20
4.381500
 40
0.799973
  0
CIRCLE
  8
PIN_TOP
 10
47.619920
 20
4.381500
 40
0.799973
  0
CIRCLE
  8
PIN_BOTTOM
 10
47.619920
 20
4.381500
 40
0.799973
  0
CIRCLE
  8
PIN_TOP
 10
45.079920
 20
4.381500
 40
0.799973
  0
CIRCLE
  8
PIN_BOTTOM
 10
45.079920
 20
4.381500
 40
0.799973
  0
CIRCLE
  8
PIN_TOP
 10
42.539920
 20
4.381500
 40
0.799973
  0
CIRCLE
  8
PIN_BOTTOM
 10
42.539920
 20
4.381500
 40
0.799973
  0
CIRCLE
  8
PIN_TOP
 10
39.999920
 20
4.381500
 40
0.799973
  0
CIRCLE
  8
PIN_BOTTOM
 10
39.999920
 20
4.381500
 40
0.799973
  0
CIRCLE
  8
PIN_TOP
 10
37.459920
 20
4.381500
 40
0.799973
  0
CIRCLE
  8
PIN_BOTTOM
 10
37.459920
 20
4.381500
 40
0.799973
  0
CIRCLE
  8
PIN_TOP
 10
34.919920
 20
4.381500
 40
0.799973
  0
CIRCLE
  8
PIN_BOTTOM
 10
34.919920
 20
4.381500
 40
0.799973
  0
CIRCLE
  8
PIN_TOP
 10
32.379920
 20
4.381500
 40
0.799973
  0
CIRCLE
  8
PIN_BOTTOM
 10
32.379920
 20
4.381500
 40
0.799973
  0
CIRCLE
  8
PIN_TOP
 10
29.839920
 20
4.381500
 40
0.799973
  0
CIRCLE
  8
PIN_BOTTOM
 10
29.839920
 20
4.381500
 40
0.799973
  0
CIRCLE
  8
PIN_TOP
 10
27.299920
 20
4.381500
 40
0.799973
  0
CIRCLE
  8
PIN_BOTTOM
 10
27.299920
 20
4.381500
 40
0.799973
  0
CIRCLE
  8
PIN_TOP
 10
24.759920
 20
4.381500
 40
0.799973
  0
CIRCLE
  8
PIN_BOTTOM
 10
24.759920
 20
4.381500
 40
0.799973
  0
CIRCLE
  8
PIN_TOP
 10
22.219920
 20
4.381500
 40
0.799973
  0
CIRCLE
  8
PIN_BOTTOM
 10
22.219920
 20
4.381500
 40
0.799973
  0
CIRCLE
  8
PIN_TOP
 10
19.679920
 20
4.381500
 40
0.799973
  0
CIRCLE
  8
PIN_BOTTOM
 10
19.679920
 20
4.381500
 40
0.799973
  0
CIRCLE
  8
PIN_TOP
 10
17.139920
 20
4.381500
 40
0.799973
  0
CIRCLE
  8
PIN_BOTTOM
 10
17.139920
 20
4.381500
 40
0.799973
  0
CIRCLE
  8
PIN_TOP
 10
14.599920
 20
4.381500
 40
0.799973
  0
CIRCLE
  8
PIN_BOTTOM
 10
14.599920
 20
4.381500
 40
0.799973
  0
CIRCLE
  8
PIN_TOP
 10
12.059920
 20
4.381500
 40
0.799973
  0
CIRCLE
  8
PIN_BOTTOM
 10
12.059920
 20
4.381500
 40
0.799973
  0
CIRCLE
  8
PIN_TOP
 10
9.519920
 20
4.381500
 40
0.799973
  0
CIRCLE
  8
PIN_BOTTOM
 10
9.519920
 20
4.381500
 40
0.799973
  0
CIRCLE
  8
PIN_TOP
 10
70.479920
 20
1.841500
 40
0.799973
  0
CIRCLE
  8
PIN_BOTTOM
 10
70.479920
 20
1.841500
 40
0.799973
  0
CIRCLE
  8
PIN_TOP
 10
67.939920
 20
1.841500
 40
0.799973
  0
CIRCLE
  8
PIN_BOTTOM
 10
67.939920
 20
1.841500
 40
0.799973
  0
CIRCLE
  8
PIN_TOP
 10
65.399920
 20
1.841500
 40
0.799973
  0
CIRCLE
  8
PIN_BOTTOM
 10
65.399920
 20
1.841500
 40
0.799973
  0
CIRCLE
  8
PIN_TOP
 10
62.859920
 20
1.841500
 40
0.799973
  0
CIRCLE
  8
PIN_BOTTOM
 10
62.859920
 20
1.841500
 40
0.799973
  0
CIRCLE
  8
PIN_TOP
 10
60.319920
 20
1.841500
 40
0.799973
  0
CIRCLE
  8
PIN_BOTTOM
 10
60.319920
 20
1.841500
 40
0.799973
  0
CIRCLE
  8
PIN_TOP
 10
57.779920
 20
1.841500
 40
0.799973
  0
CIRCLE
  8
PIN_BOTTOM
 10
57.779920
 20
1.841500
 40
0.799973
  0
CIRCLE
  8
PIN_TOP
 10
55.239920
 20
1.841500
 40
0.799973
  0
CIRCLE
  8
PIN_BOTTOM
 10
55.239920
 20
1.841500
 40
0.799973
  0
CIRCLE
  8
PIN_TOP
 10
52.699920
 20
1.841500
 40
0.799973
  0
CIRCLE
  8
PIN_BOTTOM
 10
52.699920
 20
1.841500
 40
0.799973
  0
CIRCLE
  8
PIN_TOP
 10
50.159920
 20
1.841500
 40
0.799973
  0
CIRCLE
  8
PIN_BOTTOM
 10
50.159920
 20
1.841500
 40
0.799973
  0
CIRCLE
  8
PIN_TOP
 10
47.619920
 20
1.841500
 40
0.799973
  0
CIRCLE
  8
PIN_BOTTOM
 10
47.619920
 20
1.841500
 40
0.799973
  0
CIRCLE
  8
PIN_TOP
 10
45.079920
 20
1.841500
 40
0.799973
  0
CIRCLE
  8
PIN_BOTTOM
 10
45.079920
 20
1.841500
 40
0.799973
  0
CIRCLE
  8
PIN_TOP
 10
42.539920
 20
1.841500
 40
0.799973
  0
CIRCLE
  8
PIN_BOTTOM
 10
42.539920
 20
1.841500
 40
0.799973
  0
CIRCLE
  8
PIN_TOP
 10
39.999920
 20
1.841500
 40
0.799973
  0
CIRCLE
  8
PIN_BOTTOM
 10
39.999920
 20
1.841500
 40
0.799973
  0
CIRCLE
  8
PIN_TOP
 10
37.459920
 20
1.841500
 40
0.799973
  0
CIRCLE
  8
PIN_BOTTOM
 10
37.459920
 20
1.841500
 40
0.799973
  0
CIRCLE
  8
PIN_TOP
 10
34.919920
 20
1.841500
 40
0.799973
  0
CIRCLE
  8
PIN_BOTTOM
 10
34.919920
 20
1.841500
 40
0.799973
  0
CIRCLE
  8
PIN_TOP
 10
32.379920
 20
1.841500
 40
0.799973
  0
CIRCLE
  8
PIN_BOTTOM
 10
32.379920
 20
1.841500
 40
0.799973
  0
CIRCLE
  8
PIN_TOP
 10
29.839920
 20
1.841500
 40
0.799973
  0
CIRCLE
  8
PIN_BOTTOM
 10
29.839920
 20
1.841500
 40
0.799973
  0
CIRCLE
  8
PIN_TOP
 10
27.299920
 20
1.841500
 40
0.799973
  0
CIRCLE
  8
PIN_BOTTOM
 10
27.299920
 20
1.841500
 40
0.799973
  0
CIRCLE
  8
PIN_TOP
 10
24.759920
 20
1.841500
 40
0.799973
  0
CIRCLE
  8
PIN_BOTTOM
 10
24.759920
 20
1.841500
 40
0.799973
  0
CIRCLE
  8
PIN_TOP
 10
22.219920
 20
1.841500
 40
0.799973
  0
CIRCLE
  8
PIN_BOTTOM
 10
22.219920
 20
1.841500
 40
0.799973
  0
CIRCLE
  8
PIN_TOP
 10
19.679920
 20
1.841500
 40
0.799973
  0
CIRCLE
  8
PIN_BOTTOM
 10
19.679920
 20
1.841500
 40
0.799973
  0
CIRCLE
  8
PIN_TOP
 10
17.139920
 20
1.841500
 40
0.799973
  0
CIRCLE
  8
PIN_BOTTOM
 10
17.139920
 20
1.841500
 40
0.799973
  0
CIRCLE
  8
PIN_TOP
 10
14.599920
 20
1.841500
 40
0.799973
  0
CIRCLE
  8
PIN_BOTTOM
 10
14.599920
 20
1.841500
 40
0.799973
  0
CIRCLE
  8
PIN_TOP
 10
12.059920
 20
1.841500
 40
0.799973
  0
CIRCLE
  8
PIN_BOTTOM
 10
12.059920
 20
1.841500
 40
0.799973
  0
CIRCLE
  8
PIN_TOP
 10
9.519920
 20
1.841500
 40
0.799973
  0
CIRCLE
  8
PIN_BOTTOM
 10
9.519920
 20
1.841500
 40
0.799973
  0
POLYLINE
  8
PG_SILKSCREEN_TOP
 66
1
 70
0
 40
0.000000
 41
0.000000
 39
0.000000
  0
VERTEX
  8
PG_SILKSCREEN_TOP
 10
69.209920
 20
5.651500
 40
0.127000
 41
0.127000
 42
0.000000
  0
VERTEX
  8
PG_SILKSCREEN_TOP
 10
69.209920
 20
3.111500
 40
0.127000
 41
0.127000
 42
0.000000
  0
SEQEND
  0
POLYLINE
  8
PG_SILKSCREEN_TOP
 66
1
 70
0
 40
0.000000
 41
0.000000
 39
0.000000
  0
VERTEX
  8
PG_SILKSCREEN_TOP
 10
69.209920
 20
3.111500
 40
0.127000
 41
0.127000
 42
0.000000
  0
VERTEX
  8
PG_SILKSCREEN_TOP
 10
71.749920
 20
3.111500
 40
0.127000
 41
0.127000
 42
0.000000
  0
SEQEND
  0
POLYLINE
  8
PG_SILKSCREEN_TOP
 66
1
 70
0
 40
0.000000
 41
0.000000
 39
0.000000
  0
VERTEX
  8
PG_SILKSCREEN_TOP
 10
71.749920
 20
0.571500
 40
0.127000
 41
0.127000
 42
0.000000
  0
VERTEX
  8
PG_SILKSCREEN_TOP
 10
8.249920
 20
0.571500
 40
0.127000
 41
0.127000
 42
0.000000
  0
SEQEND
  0
POLYLINE
  8
PG_SILKSCREEN_TOP
 66
1
 70
0
 40
0.000000
 41
0.000000
 39
0.000000
  0
VERTEX
  8
PG_SILKSCREEN_TOP
 10
8.249920
 20
0.571500
 40
0.127000
 41
0.127000
 42
0.000000
  0
VERTEX
  8
PG_SILKSCREEN_TOP
 10
8.249920
 20
5.651500
 40
0.127000
 41
0.127000
 42
0.000000
  0
SEQEND
  0
POLYLINE
  8
PG_SILKSCREEN_TOP
 66
1
 70
0
 40
0.000000
 41
0.000000
 39
0.000000
  0
VERTEX
  8
PG_SILKSCREEN_TOP
 10
8.249920
 20
5.651500
 40
0.127000
 41
0.127000
 42
0.000000
  0
VERTEX
  8
PG_SILKSCREEN_TOP
 10
71.749920
 20
5.651500
 40
0.127000
 41
0.127000
 42
0.000000
  0
SEQEND
  0
POLYLINE
  8
PG_SILKSCREEN_TOP
 66
1
 70
0
 40
0.000000
 41
0.000000
 39
0.000000
  0
VERTEX
  8
PG_SILKSCREEN_TOP
 10
71.749920
 20
5.651500
 40
0.127000
 41
0.127000
 42
0.000000
  0
VERTEX
  8
PG_SILKSCREEN_TOP
 10
71.749920
 20
0.571500
 40
0.127000
 41
0.127000
 42
0.000000
  0
SEQEND
  0
POLYLINE
  8
PG_SILKSCREEN_TOP
 66
1
 70
0
 40
0.000000
 41
0.000000
 39
0.000000
  0
VERTEX
  8
PG_SILKSCREEN_TOP
 10
33.649920
 20
5.651500
 40
0.150114
 41
0.150114
 42
0.000000
  0
VERTEX
  8
PG_SILKSCREEN_TOP
 10
33.649920
 20
3.111500
 40
0.150114
 41
0.150114
 42
0.000000
  0
VERTEX
  8
PG_SILKSCREEN_TOP
 10
46.349920
 20
3.111500
 40
0.150114
 41
0.150114
 42
0.000000
  0
VERTEX
  8
PG_SILKSCREEN_TOP
 10
46.349920
 20
5.651500
 40
0.150114
 41
0.150114
 42
0.000000
  0
SEQEND
  0
TEXT
  8
RD_SILKSCREEN_TOP
 10
29.032200
 20
6.350000
 11
0.000000
 21
0.000000
 40
0.762000
 41
1.000000
 50
0.000000
  7
STANDARD
 71
0
 72
0
  1
J11
 73
0
  0
TEXT
  8
PG_SILKSCREEN_TOP
 10
72.872600
 20
4.064000
 11
0.000000
 21
0.000000
 40
0.762000
 41
0.833333
 50
0.000000
  7
STANDARD
 71
0
 72
0
  1
1
 73
0
  0
TEXT
  8
PG_SILKSCREEN_TOP
 10
72.872600
 20
1.422400
 11
0.000000
 21
0.000000
 40
0.762000
 41
0.833333
 50
0.000000
  7
STANDARD
 71
0
 72
0
  1
2
 73
0
  0
TEXT
  8
PG_SILKSCREEN_TOP
 10
6.477000
 20
4.064000
 11
0.000000
 21
0.000000
 40
0.762000
 41
0.833333
 50
0.000000
  7
STANDARD
 71
0
 72
0
  1
49
 73
0
  0
TEXT
  8
PG_SILKSCREEN_TOP
 10
6.350000
 20
1.397000
 11
0.000000
 21
0.000000
 40
0.762000
 41
0.833333
 50
0.000000
  7
STANDARD
 71
0
 72
0
  1
50
 73
0
  0
POLYLINE
  8
PIN_TOP
 66
1
 70
1
 40
0.000000
 41
0.000000
 39
0.000000
  0
VERTEX
  8
PIN_TOP
 10
8.719820
 20
50.825400
 40
0.000000
 41
0.000000
 42
0.000000
  0
VERTEX
  8
PIN_TOP
 10
8.719820
 20
52.425346
 40
0.000000
 41
0.000000
 42
0.000000
  0
VERTEX
  8
PIN_TOP
 10
10.319766
 20
52.425346
 40
0.000000
 41
0.000000
 42
0.000000
  0
VERTEX
  8
PIN_TOP
 10
10.319766
 20
50.825400
 40
0.000000
 41
0.000000
 42
0.000000
  0
SEQEND
  0
POLYLINE
  8
PIN_BOTTOM
 66
1
 70
1
 40
0.000000
 41
0.000000
 39
0.000000
  0
VERTEX
  8
PIN_BOTTOM
 10
8.719820
 20
50.825400
 40
0.000000
 41
0.000000
 42
0.000000
  0
VERTEX
  8
PIN_BOTTOM
 10
8.719820
 20
52.425346
 40
0.000000
 41
0.000000
 42
0.000000
  0
VERTEX
  8
PIN_BOTTOM
 10
10.319766
 20
52.425346
 40
0.000000
 41
0.000000
 42
0.000000
  0
VERTEX
  8
PIN_BOTTOM
 10
10.319766
 20
50.825400
 40
0.000000
 41
0.000000
 42
0.000000
  0
SEQEND
  0
CIRCLE
  8
PIN_TOP
 10
12.059920
 20
51.625500
 40
0.799973
  0
CIRCLE
  8
PIN_BOTTOM
 10
12.059920
 20
51.625500
 40
0.799973
  0
CIRCLE
  8
PIN_TOP
 10
14.599920
 20
51.625500
 40
0.799973
  0
CIRCLE
  8
PIN_BOTTOM
 10
14.599920
 20
51.625500
 40
0.799973
  0
CIRCLE
  8
PIN_TOP
 10
17.139920
 20
51.625500
 40
0.799973
  0
CIRCLE
  8
PIN_BOTTOM
 10
17.139920
 20
51.625500
 40
0.799973
  0
CIRCLE
  8
PIN_TOP
 10
19.679920
 20
51.625500
 40
0.799973
  0
CIRCLE
  8
PIN_BOTTOM
 10
19.679920
 20
51.625500
 40
0.799973
  0
CIRCLE
  8
PIN_TOP
 10
22.219920
 20
51.625500
 40
0.799973
  0
CIRCLE
  8
PIN_BOTTOM
 10
22.219920
 20
51.625500
 40
0.799973
  0
CIRCLE
  8
PIN_TOP
 10
24.759920
 20
51.625500
 40
0.799973
  0
CIRCLE
  8
PIN_BOTTOM
 10
24.759920
 20
51.625500
 40
0.799973
  0
CIRCLE
  8
PIN_TOP
 10
27.299920
 20
51.625500
 40
0.799973
  0
CIRCLE
  8
PIN_BOTTOM
 10
27.299920
 20
51.625500
 40
0.799973
  0
CIRCLE
  8
PIN_TOP
 10
29.839920
 20
51.625500
 40
0.799973
  0
CIRCLE
  8
PIN_BOTTOM
 10
29.839920
 20
51.625500
 40
0.799973
  0
CIRCLE
  8
PIN_TOP
 10
32.379920
 20
51.625500
 40
0.799973
  0
CIRCLE
  8
PIN_BOTTOM
 10
32.379920
 20
51.625500
 40
0.799973
  0
CIRCLE
  8
PIN_TOP
 10
34.919920
 20
51.625500
 40
0.799973
  0
CIRCLE
  8
PIN_BOTTOM
 10
34.919920
 20
51.625500
 40
0.799973
  0
CIRCLE
  8
PIN_TOP
 10
37.459920
 20
51.625500
 40
0.799973
  0
CIRCLE
  8
PIN_BOTTOM
 10
37.459920
 20
51.625500
 40
0.799973
  0
CIRCLE
  8
PIN_TOP
 10
39.999920
 20
51.625500
 40
0.799973
  0
CIRCLE
  8
PIN_BOTTOM
 10
39.999920
 20
51.625500
 40
0.799973
  0
CIRCLE
  8
PIN_TOP
 10
42.539920
 20
51.625500
 40
0.799973
  0
CIRCLE
  8
PIN_BOTTOM
 10
42.539920
 20
51.625500
 40
0.799973
  0
CIRCLE
  8
PIN_TOP
 10
45.079920
 20
51.625500
 40
0.799973
  0
CIRCLE
  8
PIN_BOTTOM
 10
45.079920
 20
51.625500
 40
0.799973
  0
CIRCLE
  8
PIN_TOP
 10
47.619920
 20
51.625500
 40
0.799973
  0
CIRCLE
  8
PIN_BOTTOM
 10
47.619920
 20
51.625500
 40
0.799973
  0
CIRCLE
  8
PIN_TOP
 10
50.159920
 20
51.625500
 40
0.799973
  0
CIRCLE
  8
PIN_BOTTOM
 10
50.159920
 20
51.625500
 40
0.799973
  0
CIRCLE
  8
PIN_TOP
 10
52.699920
 20
51.625500
 40
0.799973
  0
CIRCLE
  8
PIN_BOTTOM
 10
52.699920
 20
51.625500
 40
0.799973
  0
CIRCLE
  8
PIN_TOP
 10
55.239920
 20
51.625500
 40
0.799973
  0
CIRCLE
  8
PIN_BOTTOM
 10
55.239920
 20
51.625500
 40
0.799973
  0
CIRCLE
  8
PIN_TOP
 10
57.779920
 20
51.625500
 40
0.799973
  0
CIRCLE
  8
PIN_BOTTOM
 10
57.779920
 20
51.625500
 40
0.799973
  0
CIRCLE
  8
PIN_TOP
 10
60.319920
 20
51.625500
 40
0.799973
  0
CIRCLE
  8
PIN_BOTTOM
 10
60.319920
 20
51.625500
 40
0.799973
  0
CIRCLE
  8
PIN_TOP
 10
62.859920
 20
51.625500
 40
0.799973
  0
CIRCLE
  8
PIN_BOTTOM
 10
62.859920
 20
51.625500
 40
0.799973
  0
CIRCLE
  8
PIN_TOP
 10
65.399920
 20
51.625500
 40
0.799973
  0
CIRCLE
  8
PIN_BOTTOM
 10
65.399920
 20
51.625500
 40
0.799973
  0
CIRCLE
  8
PIN_TOP
 10
67.939920
 20
51.625500
 40
0.799973
  0
CIRCLE
  8
PIN_BOTTOM
 10
67.939920
 20
51.625500
 40
0.799973
  0
CIRCLE
  8
PIN_TOP
 10
70.479920
 20
51.625500
 40
0.799973
  0
CIRCLE
  8
PIN_BOTTOM
 10
70.479920
 20
51.625500
 40
0.799973
  0
CIRCLE
  8
PIN_TOP
 10
9.519920
 20
54.165500
 40
0.799973
  0
CIRCLE
  8
PIN_BOTTOM
 10
9.519920
 20
54.165500
 40
0.799973
  0
CIRCLE
  8
PIN_TOP
 10
12.059920
 20
54.165500
 40
0.799973
  0
CIRCLE
  8
PIN_BOTTOM
 10
12.059920
 20
54.165500
 40
0.799973
  0
CIRCLE
  8
PIN_TOP
 10
14.599920
 20
54.165500
 40
0.799973
  0
CIRCLE
  8
PIN_BOTTOM
 10
14.599920
 20
54.165500
 40
0.799973
  0
CIRCLE
  8
PIN_TOP
 10
17.139920
 20
54.165500
 40
0.799973
  0
CIRCLE
  8
PIN_BOTTOM
 10
17.139920
 20
54.165500
 40
0.799973
  0
CIRCLE
  8
PIN_TOP
 10
19.679920
 20
54.165500
 40
0.799973
  0
CIRCLE
  8
PIN_BOTTOM
 10
19.679920
 20
54.165500
 40
0.799973
  0
CIRCLE
  8
PIN_TOP
 10
22.219920
 20
54.165500
 40
0.799973
  0
CIRCLE
  8
PIN_BOTTOM
 10
22.219920
 20
54.165500
 40
0.799973
  0
CIRCLE
  8
PIN_TOP
 10
24.759920
 20
54.165500
 40
0.799973
  0
CIRCLE
  8
PIN_BOTTOM
 10
24.759920
 20
54.165500
 40
0.799973
  0
CIRCLE
  8
PIN_TOP
 10
27.299920
 20
54.165500
 40
0.799973
  0
CIRCLE
  8
PIN_BOTTOM
 10
27.299920
 20
54.165500
 40
0.799973
  0
CIRCLE
  8
PIN_TOP
 10
29.839920
 20
54.165500
 40
0.799973
  0
CIRCLE
  8
PIN_BOTTOM
 10
29.839920
 20
54.165500
 40
0.799973
  0
CIRCLE
  8
PIN_TOP
 10
32.379920
 20
54.165500
 40
0.799973
  0
CIRCLE
  8
PIN_BOTTOM
 10
32.379920
 20
54.165500
 40
0.799973
  0
CIRCLE
  8
PIN_TOP
 10
34.919920
 20
54.165500
 40
0.799973
  0
CIRCLE
  8
PIN_BOTTOM
 10
34.919920
 20
54.165500
 40
0.799973
  0
CIRCLE
  8
PIN_TOP
 10
37.459920
 20
54.165500
 40
0.799973
  0
CIRCLE
  8
PIN_BOTTOM
 10
37.459920
 20
54.165500
 40
0.799973
  0
CIRCLE
  8
PIN_TOP
 10
39.999920
 20
54.165500
 40
0.799973
  0
CIRCLE
  8
PIN_BOTTOM
 10
39.999920
 20
54.165500
 40
0.799973
  0
CIRCLE
  8
PIN_TOP
 10
42.539920
 20
54.165500
 40
0.799973
  0
CIRCLE
  8
PIN_BOTTOM
 10
42.539920
 20
54.165500
 40
0.799973
  0
CIRCLE
  8
PIN_TOP
 10
45.079920
 20
54.165500
 40
0.799973
  0
CIRCLE
  8
PIN_BOTTOM
 10
45.079920
 20
54.165500
 40
0.799973
  0
CIRCLE
  8
PIN_TOP
 10
47.619920
 20
54.165500
 40
0.799973
  0
CIRCLE
  8
PIN_BOTTOM
 10
47.619920
 20
54.165500
 40
0.799973
  0
CIRCLE
  8
PIN_TOP
 10
50.159920
 20
54.165500
 40
0.799973
  0
CIRCLE
  8
PIN_BOTTOM
 10
50.159920
 20
54.165500
 40
0.799973
  0
CIRCLE
  8
PIN_TOP
 10
52.699920
 20
54.165500
 40
0.799973
  0
CIRCLE
  8
PIN_BOTTOM
 10
52.699920
 20
54.165500
 40
0.799973
  0
CIRCLE
  8
PIN_TOP
 10
55.239920
 20
54.165500
 40
0.799973
  0
CIRCLE
  8
PIN_BOTTOM
 10
55.239920
 20
54.165500
 40
0.799973
  0
CIRCLE
  8
PIN_TOP
 10
57.779920
 20
54.165500
 40
0.799973
  0
CIRCLE
  8
PIN_BOTTOM
 10
57.779920
 20
54.165500
 40
0.799973
  0
CIRCLE
  8
PIN_TOP
 10
60.319920
 20
54.165500
 40
0.799973
  0
CIRCLE
  8
PIN_BOTTOM
 10
60.319920
 20
54.165500
 40
0.799973
  0
CIRCLE
  8
PIN_TOP
 10
62.859920
 20
54.165500
 40
0.799973
  0
CIRCLE
  8
PIN_BOTTOM
 10
62.859920
 20
54.165500
 40
0.799973
  0
CIRCLE
  8
PIN_TOP
 10
65.399920
 20
54.165500
 40
0.799973
  0
CIRCLE
  8
PIN_BOTTOM
 10
65.399920
 20
54.165500
 40
0.799973
  0
CIRCLE
  8
PIN_TOP
 10
67.939920
 20
54.165500
 40
0.799973
  0
CIRCLE
  8
PIN_BOTTOM
 10
67.939920
 20
54.165500
 40
0.799973
  0
CIRCLE
  8
PIN_TOP
 10
70.479920
 20
54.165500
 40
0.799973
  0
CIRCLE
  8
PIN_BOTTOM
 10
70.479920
 20
54.165500
 40
0.799973
  0
POLYLINE
  8
PG_SILKSCREEN_TOP
 66
1
 70
0
 40
0.000000
 41
0.000000
 39
0.000000
  0
VERTEX
  8
PG_SILKSCREEN_TOP
 10
10.789920
 20
50.355500
 40
0.127000
 41
0.127000
 42
0.000000
  0
VERTEX
  8
PG_SILKSCREEN_TOP
 10
10.789920
 20
52.895500
 40
0.127000
 41
0.127000
 42
0.000000
  0
SEQEND
  0
POLYLINE
  8
PG_SILKSCREEN_TOP
 66
1
 70
0
 40
0.000000
 41
0.000000
 39
0.000000
  0
VERTEX
  8
PG_SILKSCREEN_TOP
 10
10.789920
 20
52.895500
 40
0.127000
 41
0.127000
 42
0.000000
  0
VERTEX
  8
PG_SILKSCREEN_TOP
 10
8.249920
 20
52.895500
 40
0.127000
 41
0.127000
 42
0.000000
  0
SEQEND
  0
POLYLINE
  8
PG_SILKSCREEN_TOP
 66
1
 70
0
 40
0.000000
 41
0.000000
 39
0.000000
  0
VERTEX
  8
PG_SILKSCREEN_TOP
 10
8.249920
 20
55.435500
 40
0.127000
 41
0.127000
 42
0.000000
  0
VERTEX
  8
PG_SILKSCREEN_TOP
 10
71.749920
 20
55.435500
 40
0.127000
 41
0.127000
 42
0.000000
  0
SEQEND
  0
POLYLINE
  8
PG_SILKSCREEN_TOP
 66
1
 70
0
 40
0.000000
 41
0.000000
 39
0.000000
  0
VERTEX
  8
PG_SILKSCREEN_TOP
 10
71.749920
 20
55.435500
 40
0.127000
 41
0.127000
 42
0.000000
  0
VERTEX
  8
PG_SILKSCREEN_TOP
 10
71.749920
 20
50.355500
 40
0.127000
 41
0.127000
 42
0.000000
  0
SEQEND
  0
POLYLINE
  8
PG_SILKSCREEN_TOP
 66
1
 70
0
 40
0.000000
 41
0.000000
 39
0.000000
  0
VERTEX
  8
PG_SILKSCREEN_TOP
 10
71.749920
 20
50.355500
 40
0.127000
 41
0.127000
 42
0.000000
  0
VERTEX
  8
PG_SILKSCREEN_TOP
 10
8.249920
 20
50.355500
 40
0.127000
 41
0.127000
 42
0.000000
  0
SEQEND
  0
POLYLINE
  8
PG_SILKSCREEN_TOP
 66
1
 70
0
 40
0.000000
 41
0.000000
 39
0.000000
  0
VERTEX
  8
PG_SILKSCREEN_TOP
 10
8.249920
 20
50.355500
 40
0.127000
 41
0.127000
 42
0.000000
  0
VERTEX
  8
PG_SILKSCREEN_TOP
 10
8.249920
 20
55.435500
 40
0.127000
 41
0.127000
 42
0.000000
  0
SEQEND
  0
POLYLINE
  8
PG_SILKSCREEN_TOP
 66
1
 70
0
 40
0.000000
 41
0.000000
 39
0.000000
  0
VERTEX
  8
PG_SILKSCREEN_TOP
 10
46.349920
 20
50.355500
 40
0.150114
 41
0.150114
 42
0.000000
  0
VERTEX
  8
PG_SILKSCREEN_TOP
 10
46.349920
 20
52.895500
 40
0.150114
 41
0.150114
 42
0.000000
  0
VERTEX
  8
PG_SILKSCREEN_TOP
 10
33.649920
 20
52.895500
 40
0.150114
 41
0.150114
 42
0.000000
  0
VERTEX
  8
PG_SILKSCREEN_TOP
 10
33.649920
 20
50.355500
 40
0.150114
 41
0.150114
 42
0.000000
  0
SEQEND
  0
TEXT
  8
RD_SILKSCREEN_TOP
 10
29.540200
 20
48.920400
 11
0.000000
 21
0.000000
 40
0.762000
 41
0.833333
 50
0.000000
  7
STANDARD
 71
0
 72
0
  1
J10
 73
0
  0
TEXT
  8
PG_SILKSCREEN_TOP
 10
6.687820
 20
51.231800
 11
0.000000
 21
0.000000
 40
0.762000
 41
0.833333
 50
0.000000
  7
STANDARD
 71
0
 72
0
  1
1
 73
0
  0
TEXT
  8
PG_SILKSCREEN_TOP
 10
6.687820
 20
53.771800
 11
0.000000
 21
0.000000
 40
0.762000
 41
0.833333
 50
0.000000
  7
STANDARD
 71
0
 72
0
  1
2
 73
0
  0
TEXT
  8
PG_SILKSCREEN_TOP
 10
72.334120
 20
51.231800
 11
0.000000
 21
0.000000
 40
0.762000
 41
0.833333
 50
0.000000
  7
STANDARD
 71
0
 72
0
  1
49
 73
0
  0
TEXT
  8
PG_SILKSCREEN_TOP
 10
72.334120
 20
53.771800
 11
0.000000
 21
0.000000
 40
0.762000
 41
0.833333
 50
0.000000
  7
STANDARD
 71
0
 72
0
  1
50
 73
0
  0
POLYLINE
  8
BG_OUTLINE
 66
1
 70
0
 40
0.000000
 41
0.000000
 39
0.000000
  0
VERTEX
  8
BG_OUTLINE
 10
0.000000
 20
0.000000
 40
0.000000
 41
0.000000
 42
0.000000
  0
VERTEX
  8
BG_OUTLINE
 10
79.999840
 20
0.000000
 40
0.000000
 41
0.000000
 42
0.000000
  0
VERTEX
  8
BG_OUTLINE
 10
79.999840
 20
55.999888
 40
0.000000
 41
0.000000
 42
0.000000
  0
VERTEX
  8
BG_OUTLINE
 10
0.000000
 20
55.999888
 40
0.000000
 41
0.000000
 42
0.000000
  0
VERTEX
  8
BG_OUTLINE
 10
0.000000
 20
0.000000
 40
0.000000
 41
0.000000
 42
0.000000
  0
SEQEND
  0
POLYLINE
  8
BG_OUTLINE
 66
1
 70
1
 40
0.000000
 41
0.000000
 39
0.000000
  0
VERTEX
  8
BG_OUTLINE
 10
0.000000
 20
0.000000
 40
0.000000
 41
0.000000
 42
0.000000
  0
VERTEX
  8
BG_OUTLINE
 10
0.000000
 20
55.999888
 40
0.000000
 41
0.000000
 42
0.000000
  0
VERTEX
  8
BG_OUTLINE
 10
79.999840
 20
55.999888
 40
0.000000
 41
0.000000
 42
0.000000
  0
VERTEX
  8
BG_OUTLINE
 10
79.999840
 20
0.000000
 40
0.000000
 41
0.000000
 42
0.000000
  0
SEQEND
  0
TEXT
  8
BG_SILKSCREEN_BOTTOM
 10
50.876200
 20
47.193200
 11
0.000000
 21
0.000000
 40
2.032000
 41
0.812500
 50
0.000000
  7
STANDARD
 71
2
 72
0
  1
22-A7LITEB10-10
 73
0
  0
TEXT
  8
BG_SILKSCREEN_TOP
 10
13.792200
 20
10.718800
 11
0.000000
 21
0.000000
 40
0.762000
 41
0.833333
 50
0.000000
  7
STANDARD
 71
0
 72
0
  1
RST
 73
0
  0
TEXT
  8
BG_SILKSCREEN_TOP
 10
13.893800
 20
14.579600
 11
0.000000
 21
0.000000
 40
0.762000
 41
0.833333
 50
0.000000
  7
STANDARD
 71
0
 72
0
  1
KEY1
 73
0
  0
TEXT
  8
BG_SILKSCREEN_TOP
 10
13.817600
 20
18.059400
 11
0.000000
 21
0.000000
 40
0.762000
 41
0.833333
 50
0.000000
  7
STANDARD
 71
0
 72
0
  1
KEY2
 73
0
  0
ENDSEC
  0
EOF
